<!DOCTYPE svg PUBLIC "-//W3C//DTD SVG 20010904//EN" "http://www.w3.org/TR/2001/REC-SVG-20010904/DTD/svg10.dtd">
<svg version="1.0" xmlns="http://www.w3.org/2000/svg" width="299px" height="252px" viewBox="0 0 2990 2520" preserveAspectRatio="xMidYMid meet">
<g id="layer101" fill="#4a3c34" stroke="none">
<path d="M70 2513 c1 -5 31 -88 68 -186 l67 -178 270 -167 270 -167 9 -51 c8 -47 12 -53 53 -75 l45 -24 -6 -50 -6 -51 68 -66 c37 -36 75 -68 85 -71 12 -5 17 -17 17 -45 0 -34 -4 -41 -29 -52 -16 -6 -32 -19 -35 -27 -5 -12 -9 -13 -21 -3 -17 14 -38 3 -31 -16 3 -8 1 -14 -4 -14 -6 0 -9 -3 -9 -7 4 -26 -2 -63 -10 -59 -5 4 -7 -3 -4 -14 4 -14 0 -20 -11 -20 -9 0 -16 -7 -16 -15 0 -8 -9 -24 -19 -34 -15 -15 -19 -32 -18 -80 1 -34 -1 -61 -5 -61 -5 0 -8 -7 -8 -15 0 -8 -4 -15 -10 -15 -5 0 -10 -7 -10 -15 0 -8 -6 -15 -13 -15 -7 0 -18 -10 -26 -21 -10 -16 -15 -19 -21 -9 -13 22 -26 3 -39 -57 -20 -92 -20 -94 -5 -100 11 -4 11 -9 0 -31 -7 -15 -11 -33 -8 -41 2 -8 0 -11 -6 -7 -14 8 17 -126 32 -139 7 -6 11 -29 9 -57 -1 -27 2 -48 7 -48 6 0 10 5 10 11 0 5 5 7 10 4 18 -11 11 -25 -12 -26 -16 -1 -18 -3 -6 -6 15 -4 17 -13 9 -66 0 -5 -5 -6 -9 -3 -4 2 -9 -11 -10 -30 -2 -19 2 -34 8 -34 6 0 9 -4 5 -9 -3 -6 1 -13 8 -18 7 -4 17 -16 20 -26 4 -11 16 -21 27 -24 11 -3 18 -9 15 -13 -2 -4 11 -6 29 -5 37 3 86 -33 86 -61 0 -8 4 -13 9 -10 12 8 72 -5 66 -14 -3 -4 28 -8 67 -9 40 -1 77 -6 82 -11 6 -6 27 -10 49 -10 21 0 36 -4 33 -8 -8 -13 28 -11 37 2 4 7 10 8 15 1 20 -27 128 -24 182 5 29 15 80 16 89 1 6 -8 46 6 142 51 128 60 173 93 191 140 4 10 17 18 28 18 11 0 20 5 20 10 0 7 6 7 19 0 27 -14 31 -13 31 10 0 11 5 20 10 20 7 0 7 7 0 20 -9 16 -7 26 10 49 11 16 20 34 20 40 0 6 4 11 8 11 5 0 6 20 2 45 -4 24 -4 49 0 55 4 7 6 37 5 68 -2 46 1 58 19 73 11 10 28 16 38 13 26 -8 32 16 9 40 -25 27 -26 36 -5 36 9 0 12 -5 8 -12 -5 -8 -1 -7 10 1 12 10 16 24 14 43 -3 21 -1 27 8 24 39 -15 10 36 -39 68 -15 10 -27 23 -27 28 0 5 -7 16 -15 24 -9 9 -15 11 -15 4 0 -6 -5 -8 -10 -5 -6 4 -8 10 -5 15 3 4 -2 11 -10 14 -13 5 -12 9 5 26 11 11 20 29 20 41 0 15 4 19 16 15 14 -5 15 -4 4 9 -7 8 -23 15 -35 15 -13 0 -25 7 -29 15 -3 8 0 15 6 15 7 0 0 12 -14 28 -14 15 -23 34 -21 42 3 11 2 11 -4 3 -17 -24 -83 64 -83 112 0 18 -7 28 -26 35 -34 13 -37 13 -31 -5 9 -21 -8 -28 -23 -9 -11 12 -15 12 -21 2 -5 -8 -9 8 -9 39 l0 51 89 4 c87 3 91 4 126 38 37 36 65 88 65 121 0 11 5 18 12 17 7 -2 14 10 17 26 5 27 37 49 291 203 157 96 292 181 301 191 9 9 91 133 182 275 l166 257 -1460 0 c-802 0 -1459 -3 -1459 -7z"/>
</g>
<g id="layer102" fill="#986b53" stroke="none">
<path d="M86 2493 c8 -37 68 -214 96 -286 l23 -58 270 -167 270 -167 9 -51 c8 -47 12 -53 53 -75 l45 -24 -6 -50 -6 -51 68 -66 c37 -36 75 -68 85 -71 12 -5 17 -17 17 -45 0 -34 -4 -41 -29 -52 -16 -6 -32 -19 -35 -27 -5 -12 -9 -13 -21 -3 -17 14 -38 3 -31 -16 3 -8 1 -14 -4 -14 -6 0 -9 -3 -9 -7 4 -26 -2 -63 -10 -59 -5 4 -7 -3 -4 -14 4 -14 0 -20 -11 -20 -9 0 -16 -7 -16 -15 0 -8 -9 -24 -19 -34 -15 -15 -19 -32 -18 -80 1 -34 -1 -61 -5 -61 -5 0 -8 -7 -8 -15 0 -8 -4 -15 -10 -15 -5 0 -10 -7 -10 -15 0 -8 -6 -15 -13 -15 -7 0 -18 -10 -26 -21 -10 -16 -15 -19 -21 -9 -13 22 -26 3 -39 -57 -20 -92 -20 -94 -5 -100 11 -4 11 -9 0 -31 -7 -15 -11 -33 -8 -41 2 -8 0 -11 -6 -7 -14 8 17 -126 32 -139 7 -6 11 -29 9 -57 -1 -27 2 -48 7 -48 6 0 10 5 10 11 0 5 5 7 10 4 18 -11 11 -25 -12 -26 -16 -1 -18 -3 -6 -6 15 -4 17 -13 9 -66 0 -5 -5 -6 -9 -3 -4 2 -9 -11 -10 -30 -2 -19 2 -34 8 -34 6 0 9 -4 5 -9 -3 -6 1 -13 8 -18 7 -4 17 -16 20 -26 4 -11 16 -21 27 -24 11 -3 18 -9 15 -13 -2 -4 11 -6 29 -5 37 3 86 -33 86 -61 0 -8 4 -13 9 -10 12 8 72 -5 66 -14 -3 -4 28 -8 67 -9 40 -1 77 -6 82 -11 6 -6 27 -10 49 -10 21 0 36 -4 33 -8 -8 -13 28 -11 37 2 4 7 10 8 15 1 20 -27 128 -24 182 5 29 15 80 16 89 1 6 -8 46 6 142 51 128 60 173 93 191 140 4 10 17 18 28 18 11 0 20 5 20 10 0 7 6 7 19 0 27 -14 31 -13 31 10 0 11 5 20 10 20 7 0 7 7 0 20 -9 16 -7 26 10 49 11 16 20 34 20 40 0 6 4 11 8 11 5 0 6 20 2 45 -4 24 -4 49 0 55 4 7 6 37 5 68 -2 46 1 58 19 73 11 10 28 16 38 13 26 -8 32 16 9 40 -25 27 -26 36 -5 36 9 0 12 -5 8 -12 -5 -8 -1 -7 10 1 12 10 16 24 14 43 -3 21 -1 27 8 24 39 -15 10 36 -39 68 -15 10 -27 23 -27 28 0 5 -7 16 -15 24 -9 9 -15 11 -15 4 0 -6 -5 -8 -10 -5 -6 4 -8 10 -5 15 3 4 -2 11 -10 14 -13 5 -12 9 5 26 11 11 20 29 20 41 0 15 4 19 16 15 14 -5 15 -4 4 9 -7 8 -25 15 -41 15 -26 0 -29 -3 -23 -25 3 -14 4 -25 1 -25 -15 0 -58 51 -72 84 -20 48 -57 66 -84 42 -19 -17 -20 -17 -31 4 -14 27 -40 161 -40 210 l0 38 89 4 c87 3 91 4 126 38 37 36 65 88 65 121 0 11 5 18 12 17 7 -2 14 13 18 37 5 36 40 99 64 116 5 4 25 10 46 13 20 3 54 18 76 33 113 77 159 105 269 162 79 41 133 76 157 103 45 48 301 443 305 470 3 16 -6 18 -103 18 -87 0 -104 -2 -95 -13 7 -10 7 -17 0 -24 -13 -13 -18 -83 -6 -83 8 0 0 -39 -10 -50 -2 -2 -15 10 -29 28 -14 18 -30 32 -35 32 -6 0 -8 -4 -5 -8 9 -15 -16 -78 -35 -90 -18 -12 -19 -8 -15 98 4 111 0 122 -32 102 -8 -5 -11 -22 -8 -45 3 -20 1 -37 -4 -37 -6 0 -10 -4 -10 -10 0 -5 7 -10 15 -10 27 0 16 -20 -12 -21 -17 -1 -21 -3 -10 -6 21 -5 23 -43 2 -43 -8 0 -15 5 -15 11 0 5 -4 8 -9 5 -5 -3 -23 -3 -41 0 -22 5 -28 9 -18 15 7 5 21 6 31 3 9 -3 17 0 17 6 0 18 -30 23 -55 10 -13 -7 -29 -9 -35 -5 -9 6 -6 11 10 20 l23 13 -21 6 c-12 4 -20 12 -16 17 4 6 10 7 17 0 8 -6 18 -5 30 3 23 17 22 26 -4 26 -11 0 -17 -4 -14 -10 8 -12 -5 -13 -24 -1 -9 6 -10 11 -2 15 14 9 15 46 1 46 -5 0 -10 -5 -10 -11 0 -6 -7 -9 -15 -5 -10 3 -15 -1 -15 -12 0 -14 -2 -15 -9 -2 -6 8 -7 18 -5 22 3 5 -172 8 -388 7 -216 -1 -385 -4 -375 -6 24 -6 16 -27 -12 -31 -13 -2 -21 1 -17 6 3 5 -1 15 -9 22 -13 10 -15 9 -16 -11 l0 -24 -11 23 c-6 12 -15 22 -20 22 -10 0 -11 -14 0 -24 4 -4 7 -11 8 -14 2 -25 18 -79 26 -89 16 -20 30 -15 18 6 -23 44 -31 73 -18 68 7 -2 13 -10 14 -18 2 -30 57 -140 65 -128 4 7 1 22 -7 35 -12 18 -12 23 -2 27 11 4 11 6 0 6 -7 1 -10 6 -6 13 4 6 -1 17 -11 25 -24 16 -8 17 28 1 15 -7 27 -18 27 -24 0 -17 49 -46 66 -40 17 7 18 -5 2 -23 -10 -11 -10 -13 0 -7 8 5 12 0 12 -13 0 -15 6 -21 23 -21 17 0 29 -11 43 -37 11 -21 30 -42 42 -48 12 -5 22 -14 22 -18 0 -5 20 -33 45 -62 26 -30 53 -77 65 -110 20 -58 31 -143 20 -150 -4 -2 -19 3 -34 11 -37 19 -39 18 -21 -9 8 -13 12 -27 8 -32 -5 -4 -2 -5 4 -1 7 4 13 3 13 -1 0 -8 56 -46 62 -42 10 7 48 -15 48 -27 0 -15 -22 -19 -34 -6 -4 4 -11 7 -14 7 -22 1 -106 53 -135 84 -38 40 -90 130 -101 175 -4 17 -15 36 -24 44 -9 7 -12 11 -5 8 24 -13 -1 36 -35 67 -108 97 -176 165 -189 190 -14 28 -15 28 -30 10 -14 -17 -14 -17 -9 0 3 10 2 25 -3 35 -5 9 -15 31 -21 49 -6 17 -20 33 -31 36 -22 6 -26 27 -4 27 8 0 15 4 15 10 0 5 -16 9 -34 8 -29 -1 -36 -5 -39 -27 l-4 -26 -2 28 c-1 24 -5 27 -36 27 -34 0 -35 -1 -36 -42 0 -45 -17 -102 -18 -65 -1 15 -3 16 -15 5 -8 -7 -12 -16 -10 -19 2 -4 -5 -18 -16 -30 -14 -18 -19 -20 -20 -8 0 8 6 21 13 29 9 11 8 11 -8 0 -174 -129 -263 -218 -234 -236 7 -4 9 -3 6 3 -7 12 18 51 28 42 9 -10 -48 -98 -64 -99 -8 0 -12 -3 -8 -6 3 -4 -6 -25 -21 -48 -15 -22 -36 -58 -46 -79 -11 -20 -35 -55 -53 -77 -19 -22 -32 -40 -28 -40 3 0 -3 -10 -15 -22 -11 -12 -20 -29 -20 -39 0 -9 -7 -19 -15 -23 -33 -12 -13 36 54 131 65 92 119 211 106 233 -3 5 3 13 12 19 14 8 15 11 3 11 -10 0 -5 9 14 26 21 19 26 28 17 37 -6 6 -11 18 -11 26 0 11 4 10 16 -5 8 -10 13 -13 9 -6 -3 6 -2 12 3 12 5 0 17 12 27 26 9 15 13 24 8 21 -5 -3 -15 -2 -23 4 -12 7 -12 9 -1 9 11 0 11 3 0 16 -11 13 -9 15 17 9 l29 -6 -30 15 c-30 15 -29 17 14 19 23 2 53 47 30 47 -6 0 -7 4 -4 10 4 6 11 5 19 -3 8 -6 10 -14 5 -17 -4 -3 -4 -12 0 -19 13 -21 33 -3 25 22 -8 23 -7 78 1 85 3 3 10 0 18 -6 14 -12 60 -11 65 1 1 4 -1 14 -5 22 -7 12 -16 13 -43 5 -20 -6 -36 -6 -39 -1 -8 12 -171 13 -171 1 0 -6 -9 -6 -25 0 -15 6 -109 10 -209 10 l-184 -1 -5 -25 c-2 -13 0 -27 4 -30 16 -9 10 -34 -6 -28 -10 4 -15 0 -15 -11 0 -11 5 -15 15 -11 8 3 15 1 15 -4 0 -6 -6 -10 -13 -10 -14 0 -11 -81 3 -90 4 -3 10 -15 14 -27 5 -16 1 -25 -16 -37 -17 -12 -18 -16 -6 -16 9 0 18 -7 22 -15 7 -19 5 -19 -39 2 -36 17 -49 37 -17 27 12 -4 11 0 -6 15 -13 11 -21 25 -17 31 3 5 -1 10 -9 10 -24 0 -30 20 -10 34 16 13 15 15 -14 30 -32 16 -41 39 -22 51 16 10 12 22 -10 28 -11 3 -20 11 -20 19 0 10 3 10 11 -2 9 -12 10 -12 5 3 -3 10 -6 23 -6 29 0 5 -7 2 -16 -6 -21 -22 -31 -20 -30 7 1 17 -5 23 -27 25 -15 2 -26 0 -25 -5 3 -13 -25 -83 -34 -83 -4 0 -9 12 -9 28 -2 52 -4 57 -21 60 -29 6 -49 -49 -48 -131 0 -21 -2 -42 -5 -47 -9 -15 -35 1 -35 20 0 11 -4 21 -9 24 -5 3 -12 35 -16 71 -6 55 -9 65 -26 65 -16 0 -18 -5 -13 -27z m2294 -16 c0 -13 5 -28 12 -35 14 -14 4 -18 -64 -27 -40 -5 -48 -3 -57 13 -6 11 -7 22 -4 26 3 3 1 6 -6 6 -7 0 -9 -9 -5 -25 4 -15 2 -25 -5 -26 -6 -1 -15 -3 -21 -4 -5 -1 -24 -3 -41 -4 -21 -1 -28 -5 -24 -13 4 -7 -1 -4 -9 6 -9 11 -16 26 -16 33 0 7 -5 13 -10 13 -6 0 -8 -11 -4 -25 7 -27 13 -25 -86 -30 -29 -1 -56 4 -76 16 -42 26 -58 25 -44 -1 17 -32 -18 -40 -41 -9 -27 35 -23 49 14 51 17 0 39 2 47 2 8 1 24 -7 35 -17 19 -18 20 -18 23 2 3 17 11 21 45 23 70 3 76 3 83 11 15 15 41 6 52 -19 15 -31 31 -24 24 11 -4 23 -1 25 29 26 51 2 102 8 107 14 3 3 14 5 24 5 12 0 18 -7 18 -23z m-1723 -21 c-3 -8 3 -22 13 -31 27 -25 20 -59 -13 -63 -20 -2 -27 1 -27 13 0 9 4 14 9 11 5 -4 8 2 7 11 -2 9 -8 19 -14 21 -7 2 -9 8 -6 13 3 6 0 16 -6 24 -10 13 -8 15 15 15 19 0 26 -4 22 -14z m3 -142 c0 -8 4 -14 10 -14 16 0 33 -42 32 -79 -1 -18 2 -39 5 -45 11 -16 14 -34 19 -106 4 -66 10 -118 13 -122 1 -2 4 -18 7 -36 2 -18 8 -42 14 -52 16 -30 12 -35 -11 -14 -26 23 -82 141 -74 155 4 5 2 9 -3 9 -11 0 -27 65 -24 94 1 10 -3 25 -9 32 -6 8 -8 25 -5 38 3 14 3 27 -2 30 -6 4 -8 56 -3 118 1 21 31 13 31 -8z m1860 2 c0 -8 -4 -18 -10 -21 -5 -3 -10 3 -10 14 0 12 5 21 10 21 6 0 10 -6 10 -14z m-390 -273 c0 -18 25 -44 34 -36 3 4 6 1 6 -5 0 -6 -5 -14 -10 -17 -6 -4 -7 -13 -1 -23 10 -19 3 -72 -9 -72 -5 0 -11 -13 -15 -29 -6 -30 -31 -59 -41 -49 -10 11 -6 44 10 80 10 24 12 39 5 43 -7 5 -6 11 2 21 9 12 9 17 -4 27 -9 7 -15 21 -12 32 2 11 4 31 4 44 1 20 3 21 16 11 8 -7 15 -19 15 -27z m-1120 -66 c0 -18 -2 -19 -10 -7 -13 20 -13 43 0 35 6 -3 10 -16 10 -28z m29 -44 c-15 -20 -39 -60 -39 -67 0 -3 38 13 84 35 46 21 96 39 112 39 33 0 24 -13 -14 -18 -36 -5 -92 -32 -92 -44 0 -7 5 -7 13 0 8 7 18 7 27 2 8 -6 12 -10 8 -11 -5 -1 -12 -3 -18 -4 -5 -1 -15 -3 -21 -4 -5 0 -7 -5 -4 -11 3 -5 1 -10 -4 -10 -6 0 -11 -15 -11 -34 0 -19 -5 -38 -10 -41 -19 -12 -41 -79 -34 -107 3 -16 3 -66 -1 -113 l-7 -84 -32 16 c-34 16 -96 91 -96 116 0 9 5 28 12 43 11 24 10 28 -20 53 -43 35 -41 49 1 16 l34 -25 -1 42 c0 68 14 140 27 135 7 -2 18 15 27 41 10 30 21 46 33 48 11 1 21 5 25 8 13 13 14 -5 1 -21z m409 -13 c13 -8 11 -9 -9 -4 -15 3 -30 1 -33 -5 -4 -6 -27 -11 -52 -11 -38 0 -44 3 -44 21 0 21 3 21 61 15 33 -3 68 -10 77 -16z m-88 -162 c0 -4 -14 -8 -30 -8 l-31 0 18 24 c16 23 19 23 31 9 6 -9 12 -20 12 -25z m486 -70 c23 -33 44 -52 47 -45 2 6 3 37 1 67 -2 30 -1 47 2 37 3 -9 10 -15 15 -12 5 4 9 -1 9 -10 0 -11 5 -15 14 -12 8 3 17 -1 20 -10 7 -17 0 -33 -15 -33 -6 0 -7 5 -4 10 3 6 -1 10 -11 10 -13 0 -14 -3 -4 -15 6 -8 9 -23 5 -36 -5 -14 -4 -19 4 -15 7 5 11 -1 11 -14 0 -19 4 -21 25 -16 34 9 42 -14 21 -58 -9 -19 -16 -38 -16 -43 0 -12 -49 -57 -77 -72 -12 -6 -52 -11 -89 -11 l-66 0 4 65 c3 46 10 71 24 87 51 57 81 146 42 122 -10 -6 -11 -5 -1 8 18 21 4 31 -16 10 -9 -10 -13 -13 -8 -8 11 16 8 28 -5 20 -10 -6 -10 -4 0 7 15 16 16 33 2 24 -6 -4 -9 -1 -8 7 2 7 -2 12 -8 11 -6 -1 -11 5 -11 13 0 20 39 -17 93 -88z m-443 -42 c59 -38 72 -52 37 -41 -10 3 -30 0 -42 -7 -13 -7 -32 -14 -43 -15 -79 -12 -112 -12 -125 -3 -13 9 -8 17 30 50 25 22 51 40 58 40 8 0 10 5 6 12 -11 17 13 6 79 -36z m574 14 c-1 -22 -12 -26 -23 -9 -3 6 0 15 7 20 18 12 18 12 16 -11z m-445 -409 c11 -11 5 -12 -37 -6 -74 11 -185 14 -185 5 0 -12 -151 -23 -163 -11 -18 18 87 29 255 27 85 -1 121 -5 130 -15z m-566 -46 c-11 -28 -22 -43 -29 -39 -8 5 -8 2 1 -7 6 -7 12 -22 12 -34 0 -18 -6 -21 -40 -20 -22 0 -40 3 -40 8 0 4 4 7 8 7 4 0 8 12 7 28 0 21 5 28 22 30 20 3 21 6 12 23 -15 29 -5 47 28 51 15 2 30 2 32 1 2 -1 -4 -23 -13 -48z m639 -2 c-6 -25 -44 -67 -77 -84 -15 -8 -16 -6 -7 20 6 17 17 35 25 42 8 6 14 18 14 26 0 8 4 12 9 9 5 -3 12 6 16 21 6 25 8 26 17 10 5 -10 7 -30 3 -44z m-502 20 c-4 -24 -3 -25 7 -10 6 9 16 17 23 17 7 0 6 -4 -3 -10 -8 -5 -11 -10 -6 -10 5 0 3 -7 -4 -16 -8 -8 -9 -14 -4 -13 20 3 34 -2 34 -13 0 -6 7 -19 16 -29 8 -9 14 -27 12 -38 -3 -19 -7 -17 -55 20 -55 42 -65 68 -43 110 15 28 28 23 23 -8z m167 -83 c0 -5 -9 -10 -21 -10 -11 0 -17 5 -14 10 3 6 13 10 21 10 8 0 14 -4 14 -10z m619 -126 c12 -14 26 -36 31 -50 7 -16 17 -24 34 -24 16 0 32 -11 47 -32 13 -18 29 -39 36 -46 7 -7 13 -17 13 -22 0 -5 3 -17 6 -27 6 -15 4 -16 -7 -5 -19 17 -69 16 -69 -3 0 -8 4 -15 9 -15 4 0 5 -19 1 -42 -5 -23 -6 -48 -3 -55 3 -7 0 -13 -6 -13 -7 0 -11 -24 -11 -62 -1 -78 0 -94 2 -112 4 -34 -26 -108 -49 -119 -12 -5 -23 -17 -23 -25 0 -12 4 -11 21 4 22 19 22 19 10 -4 -7 -12 -9 -28 -5 -34 4 -6 3 -8 -3 -5 -6 4 -19 -3 -29 -15 -11 -11 -35 -31 -54 -44 -19 -13 -52 -37 -73 -53 -21 -17 -45 -27 -53 -24 -8 3 -20 0 -27 -6 -8 -6 -23 -9 -35 -6 -14 2 -22 -1 -22 -10 0 -21 -17 -27 -39 -13 -18 11 -25 9 -53 -19 -20 -18 -56 -37 -93 -48 -33 -9 -78 -25 -100 -35 -39 -17 -42 -17 -75 1 -21 11 -56 18 -87 19 -45 0 -56 5 -88 34 -36 34 -79 66 -90 66 -10 0 -5 -36 7 -48 6 -6 9 -14 6 -17 -8 -8 -74 20 -82 34 -10 16 10 13 28 -4 20 -20 25 -19 19 4 -2 10 -12 18 -21 17 -9 0 -19 10 -23 24 l-7 25 -1 -26 c-1 -15 -8 -30 -17 -33 -13 -5 -15 -2 -11 14 3 11 1 22 -4 25 -4 3 -6 13 -3 23 3 9 -2 6 -10 -8 -8 -14 -15 -19 -16 -12 0 6 -6 12 -14 12 -7 0 -17 10 -20 23 -7 21 -7 21 -16 2 -8 -18 -9 -19 -9 -1 -1 12 -6 16 -16 12 -18 -7 -19 -1 -1 57 7 25 11 48 8 51 -3 4 0 6 7 6 7 0 9 5 5 11 -3 6 -19 9 -35 7 -23 -4 -26 -2 -17 9 6 8 17 12 23 9 7 -2 17 -1 24 3 16 10 -24 61 -49 61 -12 0 -17 5 -14 14 3 7 -5 29 -16 49 -23 38 -24 94 -2 90 6 -2 12 7 12 18 0 18 -2 20 -16 8 -13 -10 -17 -10 -25 2 -5 8 -9 20 -9 27 0 7 -5 10 -12 6 -15 -9 -2 14 25 43 16 18 18 27 9 52 -7 19 -7 33 -1 36 5 4 9 15 9 26 0 22 36 62 49 55 5 -3 17 15 27 39 10 25 22 45 26 45 4 0 5 -6 2 -14 -3 -8 0 -17 7 -22 7 -4 15 -2 17 4 2 7 9 9 14 5 7 -4 9 1 6 14 -3 11 -1 28 4 37 12 21 38 21 38 0 0 -14 3 -14 15 -4 12 10 15 10 15 -1 0 -45 22 -253 32 -302 12 -63 29 -82 86 -93 21 -4 32 -3 32 5 0 24 57 5 90 -30 8 -9 31 -19 50 -23 44 -9 107 -34 140 -57 42 -28 266 -13 277 19 4 10 23 46 44 82 43 73 65 167 79 333 4 54 10 101 13 104 4 3 13 0 22 -7 19 -16 49 -5 41 15 -9 24 18 17 43 -11z m-619 -111 c0 -8 5 -11 11 -7 12 7 10 -11 -5 -76 -15 -65 -112 -87 -208 -47 -38 16 -35 30 5 24 32 -4 124 17 142 34 5 5 -18 9 -59 9 -64 0 -126 21 -126 42 0 4 42 8 93 8 83 1 90 2 73 15 -18 14 -18 15 -2 15 9 0 15 4 12 9 -4 5 10 4 29 -2 19 -6 35 -17 35 -24z m212 19 c11 -16 25 -19 100 -17 l87 2 -26 -20 c-14 -12 -55 -26 -92 -32 l-66 -11 40 -18 c24 -10 53 -15 72 -12 18 2 35 0 38 -5 4 -5 1 -9 -5 -9 -6 0 -8 -4 -5 -10 4 -6 -9 -11 -32 -11 -21 -1 -49 -3 -63 -5 -30 -4 -108 15 -116 28 -3 5 -1 14 5 21 6 8 6 18 1 27 -14 22 -12 50 4 50 7 0 16 9 19 20 6 25 22 26 39 2z"/>
<path d="M936 1664 c-9 -22 -8 -24 9 -24 8 0 15 9 15 20 0 24 -15 27 -24 4z"/>
<path d="M753 834 c-3 -8 -2 -19 3 -24 5 -5 10 1 10 16 2 27 -4 31 -13 8z"/>
<path d="M2496 2430 c5 -5 25 -13 44 -16 33 -6 34 -6 15 9 -22 18 -76 24 -59 7z"/>
<path d="M1880 1988 c12 -21 19 -38 15 -38 -7 0 2 -12 46 -60 17 -19 26 -27 19 -18 -6 9 -9 22 -6 27 4 5 -4 20 -16 33 -13 13 -36 39 -51 58 l-28 35 21 -37z"/>
<path d="M1954 1960 c9 -47 26 -63 26 -23 0 17 -8 37 -17 44 -15 13 -16 11 -9 -21z"/>
</g>
<g id="layer103" fill="#5c78b9" stroke="none">
<path d="M2898 2493 c0 -10 0 -31 1 -46 2 -21 -3 -30 -18 -34 -11 -3 -18 -9 -15 -14 3 -5 10 -7 16 -3 5 3 3 -7 -6 -24 -9 -17 -25 -31 -41 -34 -24 -5 -34 5 -16 17 13 7 7 58 -8 63 -12 4 -14 -6 -11 -54 1 -17 -6 -36 -15 -44 -9 -7 -13 -21 -10 -31 4 -13 1 -19 -9 -19 -9 0 -22 -11 -31 -23 -17 -27 -61 -50 -76 -41 -5 3 -7 14 -4 25 4 10 2 19 -4 19 -5 0 -13 16 -17 35 -3 19 -10 35 -14 35 -5 0 -6 -9 -3 -20 3 -11 -5 -41 -17 -66 -13 -29 -18 -49 -12 -53 7 -4 5 -13 -3 -24 -11 -15 -17 -17 -32 -8 -16 9 -16 10 -1 11 11 0 15 5 12 14 -3 8 -12 12 -19 10 -7 -3 -16 -1 -20 5 -3 6 -21 10 -38 10 -21 -1 -25 -3 -12 -6 27 -7 43 -23 23 -23 -9 0 -20 -5 -23 -10 -4 -7 3 -8 22 -4 25 7 27 6 14 -10 -9 -10 -21 -14 -33 -10 -21 6 -78 -13 -78 -26 0 -5 -8 -11 -17 -13 -11 -3 -7 -5 10 -6 18 -1 26 -5 21 -12 -4 -7 -21 -9 -43 -6 -27 5 -32 4 -18 -4 9 -5 17 -15 17 -20 0 -6 -4 -8 -9 -4 -20 12 -20 -15 0 -29 21 -14 21 -15 -12 -18 -28 -2 -33 -7 -31 -23 2 -11 9 -23 14 -26 6 -4 2 -12 -9 -20 -11 -8 -22 -22 -26 -31 -5 -15 -9 -15 -46 3 -43 21 -66 25 -56 10 3 -5 -5 -20 -17 -34 -45 -47 -60 -71 -60 -93 0 -37 -23 -36 -96 4 -82 44 -114 69 -131 101 -7 12 -15 21 -17 18 -7 -6 34 -73 42 -69 3 2 17 -8 31 -22 23 -23 24 -26 7 -26 -15 0 -9 -10 24 -41 40 -38 45 -40 61 -25 42 38 42 4 -1 -55 -24 -33 -32 -55 -33 -90 -1 -32 -9 -57 -31 -89 -41 -61 -76 -84 -142 -92 -56 -6 -55 -6 15 -4 68 2 75 4 109 36 37 36 64 88 64 122 0 10 4 17 9 14 11 -7 21 17 21 51 0 13 14 44 31 68 24 34 39 44 69 49 32 5 93 40 221 127 14 9 80 44 147 78 107 54 125 66 165 118 60 79 140 204 140 219 0 7 3 11 6 9 12 -7 133 195 127 212 -6 14 -8 14 -21 -3 -13 -17 -14 -17 -15 -1 0 9 -4 17 -10 17 -5 0 -11 -8 -12 -17z m-611 -635 c-2 -7 -14 -12 -27 -10 -19 2 -21 0 -10 -13 10 -12 10 -15 0 -15 -8 0 -10 -3 -7 -6 8 -8 -27 -40 -66 -61 -40 -20 -45 -10 -8 17 17 12 31 28 31 36 0 8 5 14 10 14 6 0 9 3 9 8 -5 33 3 42 37 42 24 0 34 -4 31 -12z"/>
<path d="M377 2323 c-11 -11 -8 -20 9 -27 12 -5 15 -2 10 11 -6 14 -4 15 5 6 16 -16 3 -33 -25 -33 -21 0 -23 -4 -19 -36 3 -32 1 -35 -19 -32 -13 2 -24 11 -26 22 -3 11 -10 26 -18 34 -8 7 -14 20 -14 28 0 17 -26 19 -33 2 -3 -8 -6 -6 -6 4 -1 18 -31 14 -31 -4 0 -11 -29 -42 -34 -37 -2 2 -8 13 -15 24 -12 20 -12 20 -7 0 3 -11 16 -46 28 -78 l23 -58 270 -167 270 -167 9 -51 c8 -47 12 -53 53 -75 l45 -24 -6 -50 -6 -51 68 -66 c37 -36 75 -68 85 -71 12 -5 17 -17 17 -45 0 -34 -4 -41 -29 -52 -16 -6 -32 -19 -35 -27 -5 -12 -9 -13 -21 -3 -17 14 -38 3 -31 -16 3 -8 1 -14 -4 -14 -6 0 -9 -3 -9 -7 4 -26 -2 -63 -10 -59 -5 4 -7 -3 -4 -14 4 -14 0 -20 -11 -20 -9 0 -16 -7 -16 -15 0 -8 -9 -24 -19 -34 -15 -15 -19 -32 -18 -80 1 -34 -1 -61 -5 -61 -5 0 -8 -7 -8 -15 0 -8 -4 -15 -10 -15 -5 0 -10 -7 -10 -15 0 -8 -6 -15 -13 -15 -7 0 -18 -10 -26 -21 -10 -16 -15 -19 -21 -9 -13 22 -26 3 -39 -57 -20 -92 -20 -94 -5 -100 11 -4 11 -9 0 -31 -7 -15 -11 -33 -8 -41 2 -8 0 -11 -6 -7 -14 8 17 -126 32 -139 7 -6 11 -29 9 -57 -1 -27 2 -48 7 -48 6 0 10 5 10 11 0 5 5 7 10 4 18 -11 11 -25 -12 -26 -16 -1 -18 -3 -6 -6 15 -4 17 -13 9 -66 0 -5 -5 -6 -9 -3 -4 2 -9 -11 -10 -30 -2 -19 2 -34 8 -34 6 0 8 -5 5 -10 -3 -6 0 -13 8 -16 8 -3 17 -14 20 -25 3 -11 15 -23 26 -26 11 -3 19 -9 16 -13 -2 -4 11 -6 29 -5 37 3 86 -33 86 -61 0 -8 4 -13 9 -10 12 8 72 -5 66 -14 -3 -4 28 -8 67 -9 40 -1 77 -6 82 -11 6 -6 27 -10 49 -10 21 0 36 -4 33 -8 -8 -13 28 -11 37 2 5 8 10 7 16 -3 5 -8 11 -9 15 -3 8 13 -17 22 -64 22 -51 0 -80 12 -124 50 -26 23 -34 27 -29 14 6 -18 5 -18 -18 1 -13 11 -18 13 -11 5 17 -19 15 -40 -3 -40 -8 0 -15 5 -15 12 0 6 -3 9 -6 5 -4 -3 -19 0 -35 9 -23 11 -29 12 -29 2 -1 -7 -18 7 -39 31 -27 30 -46 43 -65 43 -19 0 -26 6 -26 21 0 19 -1 19 -19 3 -19 -17 -19 -17 -6 21 18 48 18 66 3 57 -10 -6 -10 -4 -1 7 19 20 16 33 -5 19 -9 -7 -5 -1 11 13 15 14 27 29 27 32 0 12 -45 4 -63 -13 -19 -17 -20 -16 -8 6 7 13 23 27 37 32 24 10 34 22 12 18 -6 -2 -17 8 -24 20 -8 17 -13 20 -17 10 -3 -7 -6 1 -7 17 0 17 -7 39 -15 49 -8 11 -15 38 -15 60 0 23 -7 50 -15 60 -8 10 -12 23 -8 29 3 6 1 7 -5 3 -22 -13 -12 20 12 43 23 21 26 64 5 77 -13 7 32 86 65 114 16 13 36 40 45 60 l15 35 4 -27 c8 -61 33 -20 41 67 1 6 5 4 10 -4 8 -12 12 -12 25 2 9 9 15 20 14 24 -2 4 2 9 7 10 6 2 10 -9 11 -25 0 -15 3 -36 7 -47 3 -11 9 -47 12 -80 15 -154 26 -217 41 -240 17 -26 55 -42 73 -30 6 3 17 3 24 -2 14 -8 27 -11 77 -17 58 -6 134 -28 152 -43 9 -8 23 -16 32 -17 9 -1 30 -15 47 -32 29 -27 35 -29 113 -29 89 0 106 7 129 54 18 35 41 75 47 81 19 19 30 58 35 119 2 39 3 71 0 71 -2 0 -25 -13 -50 -29 -39 -25 -58 -30 -118 -31 -112 -3 -146 -1 -167 10 -28 15 -62 12 -101 -7 -25 -13 -60 -18 -136 -19 -95 -1 -104 1 -125 23 -21 22 -21 24 -3 37 17 12 17 14 2 37 -24 33 -21 46 10 63 18 10 22 15 12 16 -9 0 -23 7 -30 17 -13 15 -12 15 6 6 13 -7 36 -8 66 -3 25 5 78 11 117 13 81 5 84 3 97 -66 5 -27 15 -42 32 -50 35 -16 51 6 57 83 2 36 5 67 5 69 1 2 7 -2 15 -8 7 -6 22 -8 31 -4 13 4 16 3 11 -5 -5 -9 18 -12 86 -13 109 -2 99 -2 119 6 10 4 16 1 16 -8 0 -8 -7 -14 -15 -13 -8 0 -17 -5 -20 -12 -3 -10 4 -13 24 -10 15 1 29 -2 31 -9 5 -13 -68 -57 -111 -67 -15 -4 -26 -9 -23 -13 3 -3 27 0 54 6 26 6 61 13 76 16 21 4 27 10 23 22 -4 8 -1 22 5 30 7 7 9 16 6 20 -4 3 2 18 12 32 10 14 26 43 36 64 9 20 22 37 27 37 11 0 0 39 -17 60 -13 16 -45 132 -45 166 0 15 -3 14 -14 -7 -7 -15 -11 -39 -9 -53 3 -15 1 -26 -6 -26 -6 0 -11 6 -11 13 0 8 -3 8 -9 -2 -5 -8 -7 -20 -4 -27 5 -14 -82 -74 -142 -100 -26 -10 -32 -18 -28 -34 3 -11 1 -20 -5 -20 -5 0 -9 8 -8 17 1 14 -7 17 -41 14 -48 -3 -56 10 -17 28 49 22 22 36 -72 36 -115 1 -154 -4 -154 -21 0 -7 10 -20 22 -28 47 -33 -25 -39 -94 -7 -26 11 -51 21 -56 21 -5 0 -15 7 -22 15 -6 8 -17 13 -22 12 -14 -3 -46 52 -47 81 -1 12 5 22 12 22 9 0 9 2 -1 8 -10 7 -10 19 -2 57 6 27 16 55 22 62 6 7 7 13 3 13 -5 0 -1 8 7 18 18 20 55 125 64 181 4 23 10 41 15 41 5 0 6 7 3 15 -4 8 -2 21 3 28 5 6 10 29 12 50 2 45 -10 47 -62 12 l-37 -26 0 -94 c0 -112 -4 -125 -39 -125 -25 0 -78 42 -74 58 0 4 -3 6 -9 4 -5 -1 -7 2 -3 7 3 6 -2 22 -11 37 -15 22 -16 31 -6 56 6 17 9 35 6 40 -3 5 -33 32 -67 60 -34 28 -61 58 -59 66 2 7 -15 32 -37 55 -23 22 -41 47 -41 54 0 7 -4 13 -10 13 -5 0 -13 15 -19 33 -5 17 -19 57 -30 87 -12 30 -19 63 -17 74 3 10 0 30 -6 45 -8 22 -14 74 -17 156 -1 14 -4 16 -12 8 -7 -7 -11 -48 -11 -102 0 -52 -4 -91 -10 -91 -5 0 -6 -5 -2 -11 5 -8 1 -8 -14 0 -11 6 -24 20 -27 31 -3 11 -18 23 -31 26 -16 4 -24 12 -22 23 2 9 -6 24 -17 33 -14 12 -16 17 -6 18 9 0 7 6 -8 19 -16 14 -18 21 -9 24 9 4 6 12 -11 26 -25 22 -34 25 -44 14z m601 -1085 c-5 -18 -15 -60 -22 -93 -9 -44 -16 -59 -27 -56 -7 3 -26 5 -41 4 -25 0 -27 3 -22 26 11 44 32 71 52 64 15 -6 15 -5 4 10 -20 24 -11 60 15 62 13 1 26 5 30 8 16 16 21 5 11 -25z m-128 -211 c0 -26 -15 -12 -25 23 -7 22 -6 23 9 11 9 -7 16 -23 16 -34z m350 -2 c0 -8 -4 -15 -9 -15 -5 0 -14 7 -21 15 -10 13 -9 15 9 15 12 0 21 -6 21 -15z m-15 -25 c3 -5 17 -10 30 -10 12 0 25 -6 28 -14 5 -11 -1 -11 -36 -1 -22 6 -43 17 -45 23 -5 15 14 16 23 2z"/>
<path d="M1856 1210 c8 -43 14 -51 14 -19 0 13 -5 31 -10 39 -7 11 -8 5 -4 -20z"/>
<path d="M1983 1053 c-7 -2 -13 -16 -13 -31 l0 -25 -23 21 c-33 31 -40 27 -32 -15 8 -44 23 -66 40 -59 7 2 30 -15 51 -38 22 -24 44 -45 51 -47 7 -2 9 -15 6 -32 -4 -21 -8 -25 -19 -16 -15 13 -59 8 -58 -6 0 -5 13 -13 30 -16 22 -5 24 -7 7 -8 -28 -1 -38 -18 -22 -37 10 -13 10 -17 -1 -24 -7 -4 -10 -15 -7 -23 3 -9 1 -17 -6 -20 -8 -2 -12 -38 -13 -113 -2 -83 -7 -122 -23 -163 -11 -30 -18 -57 -16 -61 2 -4 -19 -24 -48 -46 -29 -21 -61 -47 -72 -58 -11 -10 -31 -25 -45 -34 -14 -9 -41 -28 -60 -42 -39 -29 -104 -55 -94 -38 7 11 -21 8 -61 -7 -16 -5 -15 -3 5 14 30 24 20 28 -15 5 -14 -9 -23 -20 -20 -24 3 -4 -17 -13 -43 -19 -26 -7 -62 -21 -80 -32 -37 -21 -46 -24 -37 -9 3 6 -1 7 -10 3 -14 -5 -14 -8 -3 -15 8 -6 -2 -8 -32 -4 -34 3 -41 2 -27 -6 23 -13 93 -1 137 22 29 15 80 16 89 1 6 -8 46 6 142 51 128 60 173 93 191 140 4 10 17 18 28 18 11 0 20 5 20 10 0 7 6 7 19 0 27 -14 31 -13 31 10 0 11 5 20 11 20 8 0 6 7 -3 22 -13 19 -12 24 9 46 13 14 23 31 23 38 0 8 4 14 8 14 5 0 6 20 2 45 -4 24 -4 49 0 55 4 7 6 37 5 68 -2 46 1 58 19 73 11 10 28 16 38 13 26 -8 32 16 9 40 -25 27 -26 36 -5 36 9 0 12 -5 8 -12 -5 -8 -1 -7 10 1 12 10 16 24 14 43 -3 21 -1 27 8 24 39 -15 10 36 -39 68 -15 10 -27 23 -27 28 0 5 -7 16 -15 24 -9 9 -15 11 -15 4 0 -6 -5 -8 -10 -5 -6 4 -8 10 -5 15 3 4 -2 11 -10 14 -13 5 -12 9 5 26 11 11 20 29 20 41 0 16 4 20 18 15 14 -5 14 -4 -2 9 -21 16 -24 16 -43 8z"/>
</g>
<g id="layer104" fill="#b38c73" stroke="none">
<path d="M1350 2497 c0 -65 -47 -166 -70 -152 -4 3 -13 -2 -20 -10 -7 -8 -18 -15 -25 -15 -7 0 -20 -10 -28 -22 -8 -13 -56 -65 -107 -116 -82 -83 -91 -96 -85 -120 4 -15 13 -30 20 -35 8 -4 12 -17 9 -32 -4 -23 -2 -24 27 -18 l32 6 -19 -33 c-10 -18 -25 -34 -31 -37 -7 -3 -13 -9 -13 -14 0 -5 26 3 58 18 208 95 623 -33 765 -236 l18 -26 -7 30 c-4 17 -16 45 -26 64 -20 36 -11 55 20 44 10 -4 13 -1 9 13 -24 92 -29 116 -24 133 3 12 -3 27 -14 37 -10 9 -19 29 -19 43 -1 31 -53 102 -175 239 -85 94 -91 100 -108 84 -25 -22 -77 -25 -78 -4 0 11 -2 12 -6 5 -2 -7 -11 -13 -19 -13 -17 0 -19 20 -1 20 6 0 4 5 -5 11 -13 7 -18 23 -18 53 0 78 -10 106 -36 106 -18 0 -24 -5 -24 -23z"/>
<path d="M1859 2498 c5 -13 16 -22 25 -22 9 1 16 -2 16 -7 0 -5 4 -9 9 -9 5 0 4 14 -2 30 -8 21 -18 30 -34 30 -19 0 -21 -3 -14 -22z"/>
<path d="M1956 2489 c35 -28 61 -38 50 -20 -3 5 22 12 55 15 40 5 59 11 56 19 -2 8 -36 13 -101 14 l-96 1 36 -29z m107 14 c-13 -2 -33 -2 -45 0 -13 2 -3 4 22 4 25 0 35 -2 23 -4z"/>
<path d="M2130 2510 c0 -5 22 -7 53 -3 71 8 72 13 4 13 -31 0 -57 -4 -57 -10z"/>
<path d="M2898 2493 c0 -10 0 -31 1 -46 2 -21 -3 -30 -18 -34 -11 -3 -18 -9 -15 -14 3 -5 10 -7 16 -3 5 3 3 -7 -6 -24 -9 -17 -25 -31 -41 -34 -24 -5 -34 5 -16 17 13 7 7 58 -8 63 -12 4 -14 -6 -11 -54 1 -17 -6 -36 -15 -44 -9 -7 -13 -21 -10 -31 4 -13 1 -19 -9 -19 -9 0 -22 -11 -31 -23 -17 -27 -61 -50 -76 -41 -5 3 -7 14 -4 25 4 10 2 19 -4 19 -5 0 -13 16 -17 35 -3 19 -10 35 -14 35 -5 0 -6 -9 -3 -20 3 -11 -5 -41 -17 -66 -13 -29 -18 -49 -12 -53 7 -4 5 -13 -3 -24 -11 -15 -17 -17 -32 -8 -16 9 -16 10 -1 11 11 0 15 5 12 14 -3 8 -12 12 -19 10 -7 -3 -16 -1 -20 5 -3 6 -21 10 -38 10 -21 -1 -25 -3 -12 -6 27 -7 43 -23 23 -23 -9 0 -20 -5 -23 -10 -4 -7 3 -8 22 -4 25 7 27 6 14 -10 -9 -10 -21 -14 -33 -10 -21 6 -78 -13 -78 -26 0 -5 -8 -11 -17 -13 -11 -3 -7 -5 10 -6 18 -1 26 -5 21 -12 -4 -7 -21 -9 -43 -6 -27 5 -32 4 -18 -4 9 -5 17 -15 17 -20 0 -6 -4 -8 -9 -4 -20 12 -20 -15 0 -29 21 -14 21 -15 -12 -18 -28 -2 -33 -7 -31 -23 2 -11 9 -23 14 -26 6 -4 2 -12 -9 -20 -11 -8 -22 -22 -26 -31 -5 -15 -9 -15 -46 3 -43 21 -66 25 -56 10 3 -5 -5 -20 -17 -34 -45 -47 -60 -71 -60 -93 0 -37 -23 -36 -96 4 -82 44 -114 69 -131 101 -7 12 -15 21 -17 18 -7 -6 34 -73 42 -69 3 2 17 -8 31 -22 23 -23 24 -26 7 -26 -15 0 -9 -10 24 -41 40 -38 45 -40 61 -25 44 40 41 4 -4 -60 -19 -27 -35 -55 -35 -61 0 -20 20 -15 20 5 1 13 4 11 15 -8 l15 -25 -6 27 c-9 42 57 124 106 132 32 5 94 40 221 127 14 9 80 44 147 78 107 54 125 66 165 118 60 79 140 204 140 219 0 7 3 11 6 9 12 -7 133 195 127 212 -6 14 -8 14 -21 -3 -13 -17 -14 -17 -15 -1 0 9 -4 17 -10 17 -5 0 -11 -8 -12 -17z m-611 -635 c-2 -7 -14 -12 -27 -10 -19 2 -21 0 -10 -13 10 -12 10 -15 0 -15 -8 0 -10 -3 -7 -6 8 -8 -27 -40 -66 -61 -40 -20 -45 -10 -8 17 17 12 31 28 31 36 0 8 5 14 10 14 6 0 9 3 9 8 -5 33 3 42 37 42 24 0 34 -4 31 -12z"/>
<path d="M1466 2460 c-3 -8 -4 -28 -2 -45 3 -16 5 -39 5 -49 1 -18 3 -18 26 4 31 29 31 42 1 77 -19 22 -26 25 -30 13z"/>
<path d="M579 2388 c-6 -24 -5 -58 2 -58 5 0 9 14 9 30 0 17 -2 30 -5 30 -3 0 -5 -1 -6 -2z"/>
<path d="M2096 2374 c-3 -9 -11 -12 -18 -8 -9 4 -8 2 1 -7 10 -11 15 -11 18 -1 3 6 11 12 19 12 9 0 12 5 9 10 -9 15 -22 12 -29 -6z"/>
<path d="M2110 2335 c-9 -10 -9 -15 -1 -15 6 0 11 4 11 10 0 5 6 7 14 4 8 -3 17 -1 21 5 10 17 -31 13 -45 -4z"/>
<path d="M377 2323 c-11 -11 -8 -20 9 -27 12 -5 15 -2 10 11 -6 14 -4 15 5 6 16 -16 3 -33 -25 -33 -21 0 -23 -4 -19 -36 3 -32 1 -35 -19 -32 -13 2 -24 11 -26 22 -3 11 -10 26 -18 34 -8 7 -14 20 -14 28 0 17 -26 19 -33 2 -3 -8 -6 -6 -6 4 -1 18 -31 14 -31 -4 0 -5 -7 -17 -16 -25 -13 -14 -17 -14 -25 -2 -5 8 -9 18 -9 23 0 5 -2 7 -5 4 -10 -10 47 -142 68 -158 25 -17 24 -17 159 -94 57 -33 121 -71 143 -86 22 -15 66 -41 99 -59 78 -41 142 -100 138 -127 -3 -20 61 -94 80 -94 4 0 8 -22 8 -48 0 -41 6 -57 38 -98 39 -52 61 -73 76 -74 5 0 -1 12 -15 26 -13 14 -23 29 -22 32 0 4 -3 6 -9 4 -5 -1 -7 2 -3 7 3 6 -2 22 -11 37 -15 22 -16 31 -6 56 6 17 9 35 6 40 -3 5 -33 32 -67 60 -34 28 -61 58 -59 66 2 7 -15 32 -37 55 -23 22 -41 47 -41 54 0 7 -4 13 -10 13 -5 0 -13 15 -19 33 -5 17 -19 57 -30 87 -12 30 -19 63 -17 74 3 10 0 30 -6 45 -8 22 -14 74 -17 156 -1 14 -4 16 -12 8 -7 -7 -11 -48 -11 -102 0 -52 -4 -91 -10 -91 -5 0 -6 -5 -2 -11 5 -8 1 -8 -14 0 -11 6 -24 20 -27 31 -3 11 -18 23 -31 26 -16 4 -24 12 -22 23 2 9 -6 24 -17 33 -14 12 -16 17 -6 18 9 0 7 6 -8 19 -16 14 -18 21 -9 24 9 4 6 12 -11 26 -25 22 -34 25 -44 14z"/>
<path d="M781 2292 c7 -12 17 -18 23 -15 5 3 6 1 3 -4 -7 -12 14 -23 41 -23 12 1 10 4 -7 14 -17 10 -20 15 -10 18 19 7 10 14 -29 23 -32 7 -33 6 -21 -13z"/>
<path d="M776 2247 c33 -13 36 -38 4 -30 -26 7 -26 -9 0 -25 17 -10 20 -9 26 13 3 14 14 25 23 25 11 1 8 5 -9 15 -14 8 -36 14 -50 14 -23 0 -23 -1 6 -12z"/>
<path d="M1976 2192 c-2 -4 9 -13 25 -19 23 -9 29 -9 26 0 -2 7 -8 12 -13 12 -5 0 -14 4 -21 8 -6 4 -14 4 -17 -1z"/>
<path d="M740 2183 c0 -3 7 -15 16 -24 22 -25 26 -66 7 -73 -12 -5 -14 -17 -9 -59 4 -28 6 -74 6 -101 -1 -48 15 -106 29 -106 4 0 23 28 43 62 27 45 34 65 25 70 -7 4 -8 8 -3 8 5 0 3 7 -4 15 -9 11 -8 18 9 36 14 15 18 26 11 34 -5 7 -7 15 -3 19 11 11 12 36 1 36 -7 0 -6 5 1 14 10 12 5 14 -25 13 -22 -1 -39 4 -42 12 -9 26 -62 64 -62 44z m110 -83 c0 -13 -11 -13 -30 0 -12 8 -11 10 8 10 12 0 22 -4 22 -10z"/>
<path d="M810 2150 c20 -13 43 -13 35 0 -3 6 -16 10 -28 10 -18 0 -19 -2 -7 -10z"/>
<path d="M890 2079 c0 -5 5 -9 10 -9 6 0 10 -9 10 -21 0 -11 5 -17 10 -14 17 11 11 42 -10 48 -11 3 -20 1 -20 -4z"/>
<path d="M2030 2047 c0 -13 5 -28 12 -35 7 -7 12 -31 13 -54 0 -32 4 -44 17 -46 14 -3 15 4 11 40 -3 24 -12 53 -20 66 -7 12 -11 26 -8 31 2 5 -2 11 -10 15 -11 4 -15 -1 -15 -17z"/>
<path d="M2056 1884 c-8 -21 -8 -24 4 -24 5 0 14 9 20 20 8 16 8 20 -4 20 -7 0 -17 -7 -20 -16z"/>
<path d="M1077 1705 l-37 -26 0 -94 c0 -112 -4 -125 -39 -126 l-26 0 24 -10 c22 -9 23 -13 17 -57 -3 -26 -11 -49 -17 -50 -5 -2 -22 -14 -37 -27 -20 -17 -32 -21 -44 -14 -18 10 -34 -4 -23 -21 3 -5 1 -10 -4 -10 -6 0 -10 -3 -9 -7 1 -5 -1 -27 -5 -50 -5 -28 -12 -43 -22 -43 -8 0 -15 -7 -15 -15 0 -8 -9 -24 -19 -34 -15 -15 -19 -32 -18 -80 1 -34 -1 -61 -5 -61 -5 0 -8 -7 -8 -15 0 -8 -4 -15 -10 -15 -5 0 -10 -7 -10 -15 0 -8 -8 -15 -17 -15 -12 0 -14 -3 -6 -8 8 -5 3 -11 -13 -19 -15 -7 -24 -7 -24 -1 0 5 -5 8 -12 6 -13 -5 -25 -39 -37 -111 -7 -41 -6 -49 10 -58 10 -5 16 -16 13 -24 -4 -8 -10 -12 -15 -9 -9 5 -13 -9 -10 -35 2 -7 -2 -10 -7 -7 -6 4 -6 -10 -1 -37 14 -64 30 -107 38 -107 5 0 7 -18 5 -41 -1 -23 0 -38 3 -35 7 7 33 -13 33 -24 0 -5 -8 -11 -17 -13 -16 -4 -16 -5 -1 -6 13 -1 15 -6 9 -29 -5 -16 -14 -38 -21 -49 -8 -13 -10 -28 -5 -39 5 -11 9 -23 9 -28 1 -5 7 -11 15 -14 8 -3 11 -1 8 4 -3 5 5 9 18 9 13 0 21 -3 18 -7 -2 -5 -11 -8 -19 -8 -23 0 -13 -33 14 -46 12 -6 20 -13 18 -15 -3 -2 11 -4 29 -3 24 1 43 -6 64 -25 17 -15 28 -31 23 -35 -4 -4 -2 -7 3 -5 19 4 75 -14 69 -22 -3 -5 2 -9 11 -9 10 0 14 5 9 13 -6 9 -4 9 7 -1 7 -6 37 -12 65 -12 29 0 56 -4 59 -10 3 -5 24 -10 45 -10 21 0 42 -4 45 -10 3 -5 12 -10 18 -10 7 0 6 4 -3 11 -11 8 -6 9 20 5 25 -4 31 -3 20 4 -8 5 -34 10 -57 10 -54 0 -83 11 -127 50 -26 23 -34 27 -29 14 6 -18 5 -18 -18 1 -13 11 -18 13 -11 5 17 -19 15 -40 -3 -40 -8 0 -15 5 -15 12 0 6 -3 9 -6 5 -4 -3 -19 0 -35 9 -23 11 -29 12 -29 2 -1 -7 -18 7 -39 31 -27 30 -46 43 -65 43 -19 0 -26 6 -26 21 0 19 -1 19 -19 3 -19 -17 -19 -17 -6 21 18 48 18 66 3 57 -10 -6 -10 -4 0 7 18 20 15 33 -5 19 -10 -7 -6 -1 10 13 15 14 27 29 27 32 0 12 -45 4 -63 -12 -19 -18 -20 -17 -8 5 7 13 23 27 37 32 24 10 34 22 12 17 -6 -1 -17 9 -24 21 -8 17 -13 20 -17 10 -3 -7 -6 1 -7 17 0 17 -7 39 -15 49 -8 11 -15 38 -15 60 0 23 -7 50 -15 60 -8 10 -12 23 -8 29 3 6 1 7 -5 3 -23 -14 -17 20 8 41 20 17 26 29 22 48 -2 14 -8 28 -13 31 -13 7 32 86 65 114 16 13 36 40 45 60 l15 35 4 -27 c8 -61 33 -20 41 67 1 6 5 4 10 -4 8 -12 12 -12 25 2 9 9 15 20 14 24 -2 4 2 8 7 8 6 0 10 -11 11 -25 0 -14 3 -34 7 -45 3 -11 9 -47 12 -80 15 -154 26 -217 41 -240 17 -26 55 -42 73 -30 6 3 17 3 24 -2 14 -8 27 -11 77 -17 58 -6 134 -28 152 -43 9 -8 23 -16 32 -17 9 -1 30 -15 47 -32 29 -27 35 -29 113 -29 89 0 106 7 129 54 18 35 41 75 47 81 19 19 30 58 35 119 2 39 3 71 0 71 -2 0 -25 -13 -50 -29 -39 -25 -58 -30 -118 -31 -112 -3 -146 -1 -167 10 -28 15 -62 12 -101 -7 -25 -13 -60 -18 -136 -19 -95 -1 -104 1 -125 23 -21 22 -21 24 -3 37 17 12 17 14 2 37 -24 33 -21 46 11 63 17 10 21 15 11 16 -9 0 -23 7 -30 17 -13 15 -12 15 6 6 13 -7 36 -8 66 -3 25 5 78 11 117 13 81 5 84 3 97 -66 5 -27 15 -42 32 -50 35 -16 51 6 57 83 2 36 5 67 5 69 1 2 7 -2 15 -8 7 -6 22 -8 31 -4 13 4 16 3 11 -5 -5 -9 18 -12 86 -13 109 -2 99 -2 119 6 10 4 16 1 16 -8 0 -8 -7 -14 -15 -13 -8 0 -17 -5 -20 -12 -3 -10 4 -13 24 -10 15 1 29 -2 31 -9 5 -13 -68 -57 -111 -67 -15 -4 -26 -9 -23 -13 3 -3 27 0 54 6 26 6 61 13 76 16 21 4 27 10 23 22 -4 8 -1 22 5 30 7 7 9 16 6 20 -4 3 2 18 12 32 10 14 26 43 36 64 9 20 22 37 27 37 11 0 0 39 -17 60 -13 16 -45 132 -45 166 0 15 -3 14 -14 -7 -7 -15 -11 -39 -9 -53 3 -15 1 -26 -6 -26 -6 0 -11 6 -11 13 0 8 -3 8 -9 -2 -5 -8 -7 -20 -4 -27 5 -14 -82 -74 -142 -100 -26 -10 -32 -18 -28 -34 3 -11 1 -20 -5 -20 -5 0 -9 8 -8 17 1 14 -7 17 -41 14 -48 -3 -56 10 -17 28 49 22 22 36 -72 36 -115 1 -154 -4 -154 -21 0 -7 10 -20 22 -28 47 -33 -25 -39 -94 -7 -26 11 -51 21 -55 21 -5 0 -15 6 -21 13 -7 6 -18 12 -24 12 -15 0 -46 55 -47 83 -1 12 5 22 12 22 9 0 9 2 -1 8 -10 7 -10 19 -2 57 6 27 16 55 22 62 6 7 7 13 3 13 -5 0 -1 8 7 18 18 20 55 125 64 181 4 23 10 41 15 41 5 0 6 7 3 15 -4 8 -2 21 3 28 5 6 10 29 12 50 2 45 -10 47 -62 12z m-99 -467 c-5 -18 -15 -60 -22 -93 -9 -44 -16 -59 -27 -56 -7 3 -26 5 -41 4 -25 0 -27 3 -22 26 11 44 32 71 52 64 15 -6 15 -5 4 10 -20 24 -11 60 15 62 13 1 26 5 30 8 16 16 21 5 11 -25z m-128 -211 c0 -26 -15 -12 -25 23 -7 22 -6 23 9 11 9 -7 16 -23 16 -34z m350 -2 c0 -8 -4 -15 -9 -15 -5 0 -14 7 -21 15 -10 13 -9 15 9 15 12 0 21 -6 21 -15z m-15 -25 c3 -5 17 -10 30 -10 12 0 25 -6 28 -14 5 -11 -1 -11 -36 -1 -22 6 -43 17 -45 23 -5 15 14 16 23 2z"/>
<path d="M1643 1673 c-16 -6 -17 -39 -3 -48 6 -4 7 -11 4 -17 -12 -18 -13 -81 -3 -100 5 -10 17 -18 25 -18 10 0 14 -6 10 -15 -3 -8 -1 -15 4 -15 6 0 10 -6 11 -12 0 -7 10 -39 22 -70 l22 -58 0 128 c0 70 -4 133 -8 140 -5 6 -5 12 -2 12 3 0 0 7 -7 15 -21 25 -59 65 -61 64 -1 0 -8 -3 -14 -6z m27 -23 c0 -5 -7 -10 -15 -10 -8 0 -15 5 -15 10 0 6 7 10 15 10 8 0 15 -4 15 -10z"/>
<path d="M1200 1655 c0 -8 -7 -15 -15 -15 -8 0 -15 -4 -15 -10 0 -13 16 -13 41 0 23 13 25 26 4 34 -9 3 -15 0 -15 -9z"/>
<path d="M1146 1506 c-21 -19 -35 -40 -31 -46 3 -6 1 -9 -5 -8 -7 2 -13 -12 -15 -32 -2 -28 -1 -32 8 -18 10 15 12 14 22 -5 6 -12 18 -21 27 -19 23 4 30 -26 13 -51 -22 -32 -19 -45 11 -39 16 3 23 9 20 18 -3 7 1 20 9 28 13 12 12 16 0 26 -16 13 -21 35 -7 26 5 -3 16 4 25 15 17 19 60 25 152 20 67 -3 85 -10 85 -31 0 -11 -4 -20 -8 -20 -10 0 -8 -42 2 -58 4 -7 15 -11 24 -10 9 2 16 -2 15 -9 -4 -21 21 -4 49 33 21 28 26 44 24 82 -2 48 -33 115 -48 106 -4 -3 -8 -1 -8 4 0 16 -56 22 -84 9 -14 -7 -28 -20 -31 -29 -5 -13 -16 -16 -48 -13 -56 4 -97 15 -97 26 0 5 -9 9 -19 9 -11 0 -23 5 -26 10 -10 16 -17 12 -59 -24z"/>
<path d="M1973 1488 c-41 -60 -76 -82 -141 -89 l-57 -6 58 -2 c84 -2 131 29 176 117 20 38 -6 24 -36 -20z"/>
<path d="M1208 1308 c8 -8 8 -15 2 -24 -7 -8 -6 -13 4 -17 10 -4 15 3 18 24 4 24 1 29 -16 29 -15 0 -17 -3 -8 -12z"/>
<path d="M1245 1280 c3 -5 13 -10 21 -10 8 0 12 5 9 10 -3 6 -13 10 -21 10 -8 0 -12 -4 -9 -10z"/>
<path d="M1824 1124 c-13 -11 -15 -17 -6 -20 6 -3 12 -10 12 -16 0 -5 6 -16 14 -23 12 -12 16 -12 26 0 7 8 16 12 21 9 16 -10 9 13 -12 40 -24 30 -29 31 -55 10z"/>
<path d="M1983 1053 c-7 -2 -13 -16 -13 -31 l0 -25 -23 21 c-33 31 -40 27 -32 -15 8 -44 23 -66 40 -59 7 2 30 -15 51 -38 22 -24 44 -45 51 -47 7 -2 9 -15 6 -32 -4 -21 -8 -25 -19 -16 -15 13 -59 8 -58 -6 0 -5 13 -13 30 -16 22 -5 24 -7 7 -8 -28 -1 -38 -18 -22 -37 10 -13 10 -17 -1 -24 -7 -4 -10 -15 -7 -23 3 -9 1 -17 -6 -20 -8 -2 -12 -38 -13 -113 -2 -83 -7 -122 -23 -163 -11 -30 -18 -57 -16 -61 2 -4 -19 -24 -48 -46 -29 -21 -61 -47 -72 -58 -11 -10 -31 -25 -45 -34 -14 -9 -41 -28 -60 -42 -39 -29 -104 -55 -94 -38 7 11 -21 8 -61 -7 -16 -5 -15 -3 5 14 30 24 20 28 -15 5 -14 -9 -23 -20 -20 -24 3 -4 -17 -13 -43 -19 -26 -7 -62 -21 -80 -32 -37 -21 -46 -24 -37 -9 3 6 -1 7 -10 3 -14 -5 -14 -8 -3 -15 8 -6 -2 -8 -32 -4 -34 3 -41 2 -27 -6 22 -12 92 -2 134 20 39 20 71 22 87 6 9 -8 16 -11 16 -5 0 6 9 11 20 11 31 0 231 97 263 128 16 15 33 37 38 50 5 13 17 22 29 22 12 0 19 4 16 9 -3 5 1 12 10 15 8 3 13 2 10 -3 -5 -8 23 -26 29 -19 9 11 13 68 5 73 -5 3 0 15 11 26 28 28 40 65 38 114 -2 23 1 46 4 52 4 7 3 33 -3 59 -10 44 -9 49 15 74 14 14 22 31 18 36 -5 5 1 1 12 -8 14 -11 25 -14 35 -8 12 7 11 13 -8 33 -28 30 -28 39 1 35 19 -3 22 2 22 30 0 21 4 31 12 28 39 -15 9 36 -39 67 -16 9 -28 22 -28 28 0 6 -7 17 -15 25 -12 12 -15 12 -15 2 0 -7 -9 -2 -20 12 -18 24 -18 25 1 43 10 10 19 27 19 37 0 11 6 20 13 20 8 0 7 4 -3 10 -16 11 -19 11 -37 3z"/>
<path d="M1677 166 c-3 -8 -16 -16 -29 -19 l-23 -4 23 -2 c13 0 35 8 49 19 24 18 24 20 5 20 -11 0 -22 -6 -25 -14z"/>
</g>
<g id="layer105" fill="#b6aca2" stroke="none">
<path d="M1867 2500 c3 -11 12 -20 19 -20 15 0 18 10 6 25 -13 19 -30 15 -25 -5z"/>
<path d="M1379 2497 c-9 -9 -20 -13 -24 -9 -4 4 -6 0 -4 -8 8 -47 -50 -156 -78 -146 -8 3 -11 1 -8 -4 3 -6 0 -10 -7 -10 -18 0 -230 -215 -221 -223 3 -4 1 -7 -5 -7 -7 0 -12 -10 -12 -23 0 -17 9 -25 35 -33 20 -6 38 -7 41 -3 11 18 359 -11 394 -33 11 -6 5 -8 -20 -4 -196 27 -249 29 -292 12 -39 -16 -97 -70 -86 -82 8 -7 38 7 33 16 -5 8 6 9 142 10 164 1 367 -63 488 -155 25 -19 45 -30 45 -24 0 5 5 7 10 4 20 -13 9 10 -15 31 -29 25 -25 59 6 51 23 -6 24 1 2 25 -9 10 -13 21 -10 25 9 8 47 -26 47 -43 0 -7 4 -15 9 -18 10 -6 9 -1 -15 89 -9 33 -19 75 -24 93 -11 43 -64 115 -170 227 -25 28 -54 62 -64 77 -17 26 -18 26 -37 7 -10 -10 -30 -19 -43 -19 -13 0 -30 -2 -38 -5 -27 -10 -38 14 -51 105 -11 87 -13 92 -28 77z m-124 -447 c-16 -4 -41 -8 -55 -9 -20 0 -22 1 -10 9 8 5 33 9 55 9 39 -1 39 -2 10 -9z"/>
<path d="M1470 2410 c0 -53 12 -62 34 -27 12 19 -2 68 -21 75 -9 2 -13 -11 -13 -48z"/>
<path d="M2791 2275 c-2 -24 -20 -49 -41 -58 -10 -4 -11 -6 -2 -6 7 -1 11 -5 7 -11 -3 -5 -11 -8 -18 -6 -7 1 -9 1 -4 -1 14 -9 7 -32 -8 -27 -10 4 -15 0 -15 -11 0 -13 -3 -15 -13 -6 -11 8 -16 5 -25 -14 -8 -17 -20 -25 -38 -25 -17 0 -28 -6 -31 -19 -3 -12 -11 -17 -19 -14 -8 3 -23 -2 -33 -11 -10 -9 -22 -16 -27 -15 -21 4 -34 -2 -34 -15 0 -23 22 -31 35 -13 15 21 29 21 44 3 9 -11 7 -15 -11 -21 -13 -4 -31 -6 -41 -5 -9 1 -20 -6 -23 -15 -5 -13 -9 -13 -22 -3 -13 11 -15 10 -10 -3 5 -11 -3 -20 -28 -29 -23 -10 -30 -16 -22 -22 8 -5 3 -8 -14 -8 -16 0 -28 -5 -28 -11 0 -6 -10 -8 -22 -5 -13 3 -18 3 -11 0 7 -3 -16 -33 -60 -76 -61 -61 -63 -81 -2 -28 29 25 125 80 250 144 l111 56 75 103 c92 124 98 135 88 167 -6 21 -7 22 -8 5z"/>
<path d="M160 2268 c0 -21 47 -116 63 -128 25 -17 24 -17 159 -94 57 -33 121 -71 143 -86 22 -15 66 -41 99 -59 78 -41 142 -100 138 -127 -3 -20 61 -94 80 -94 4 0 8 -22 8 -49 0 -38 6 -57 23 -77 18 -20 24 -23 24 -11 0 10 -3 17 -7 17 -4 0 -4 19 1 43 11 56 11 59 -1 52 -5 -3 -10 1 -10 9 0 9 -25 35 -55 59 -45 34 -55 46 -50 65 3 12 1 22 -4 22 -18 0 -83 76 -108 128 -14 29 -36 62 -49 74 -18 18 -20 26 -11 37 10 12 6 13 -29 9 -37 -5 -43 -3 -55 18 -11 21 -46 36 -37 17 13 -30 56 -84 71 -89 9 -3 17 -10 17 -15 0 -16 -69 35 -74 55 -2 10 -9 15 -14 12 -15 -9 -70 14 -77 32 -5 14 -7 14 -15 2 -7 -10 -10 -11 -10 -2 0 6 -9 12 -19 12 -11 0 -28 10 -38 23 -10 12 -31 29 -48 37 -32 16 -46 29 -87 79 -16 18 -28 31 -28 29z"/>
<path d="M777 1887 c-3 -8 -2 -27 2 -42 l7 -27 11 25 c9 19 9 29 -1 42 -11 16 -14 16 -19 2z"/>
<path d="M2165 1846 c-11 -13 -21 -30 -23 -37 -2 -8 -8 -15 -13 -17 -5 -2 -9 -10 -9 -17 0 -8 -9 -19 -21 -25 -11 -6 -18 -17 -16 -23 2 -7 -13 -34 -34 -61 -22 -27 -38 -56 -38 -65 1 -12 3 -11 6 3 5 18 6 18 19 -5 l14 -24 -6 27 c-5 22 2 38 31 78 20 27 43 50 51 50 8 0 14 4 14 9 0 5 6 16 14 23 21 21 30 58 14 58 -8 1 -6 6 6 15 10 7 16 18 15 24 -2 5 -13 0 -24 -13z"/>
<path d="M1989 1503 c-6 -16 -20 -39 -32 -52 -21 -22 -21 -23 -2 -13 24 12 72 92 55 92 -6 0 -15 -12 -21 -27z"/>
<path d="M910 1504 c13 -20 49 -49 54 -42 2 2 -13 16 -32 33 -26 22 -32 24 -22 9z"/>
<path d="M1020 1458 c-1 -2 -2 -28 -4 -58 -2 -30 -9 -56 -15 -58 -7 -2 -24 -14 -39 -27 -20 -17 -32 -21 -44 -14 -18 10 -34 -4 -23 -21 3 -5 1 -10 -4 -10 -6 0 -10 -3 -9 -7 1 -5 -1 -27 -5 -50 -5 -28 -12 -43 -22 -43 -8 0 -15 -7 -15 -16 0 -9 -8 -22 -17 -29 -11 -9 -18 -31 -20 -73 -4 -63 7 -83 32 -62 13 11 13 15 0 33 -28 39 -13 64 19 32 20 -21 27 -5 11 25 -10 18 -10 30 -2 49 15 36 38 62 48 55 5 -3 5 6 0 19 -16 40 -4 67 28 61 14 -2 31 -1 37 3 32 22 80 193 55 193 -6 0 -11 -1 -11 -2z"/>
<path d="M960 1150 c-1 -14 -3 -54 -5 -90 -4 -65 -3 -66 28 -80 18 -7 35 -18 39 -23 7 -12 78 19 78 34 0 5 -29 37 -64 72 -35 34 -66 73 -69 87 l-4 25 -3 -25z"/>
<path d="M1243 1113 c-22 -8 -14 -23 12 -23 29 0 45 -25 46 -77 1 -21 4 -49 8 -63 7 -21 9 -17 17 30 12 65 -4 111 -43 129 -13 6 -25 11 -26 10 -1 0 -8 -3 -14 -6z"/>
<path d="M1662 1072 c-26 -4 -45 -34 -36 -56 7 -17 34 -22 34 -6 0 6 -4 10 -10 10 -5 0 -10 5 -10 11 0 7 11 8 30 4 26 -6 30 -4 30 14 0 24 -7 28 -38 23z"/>
<path d="M1975 1030 c11 -34 -5 -43 -27 -15 -27 34 -35 32 -30 -10 3 -27 11 -38 35 -50 37 -18 43 -19 29 -2 -9 10 -6 17 8 30 11 9 20 25 20 36 0 11 6 22 13 24 6 3 -3 6 -21 6 -29 1 -32 -2 -27 -19z"/>
<path d="M790 965 c0 -8 -4 -15 -10 -15 -5 0 -10 -7 -10 -15 0 -8 -8 -15 -17 -15 -12 0 -14 -3 -6 -8 8 -5 3 -11 -13 -19 -15 -7 -24 -7 -24 -1 0 5 -5 8 -12 6 -13 -5 -25 -39 -37 -111 -7 -41 -6 -49 10 -58 10 -5 16 -16 13 -24 -4 -8 -10 -12 -15 -9 -9 5 -13 -9 -10 -35 2 -7 -2 -10 -7 -7 -6 4 -6 -10 -1 -37 14 -64 30 -107 38 -107 5 0 7 -18 5 -41 -1 -23 0 -38 3 -35 7 7 33 -13 33 -24 0 -5 -8 -11 -17 -13 -16 -4 -16 -5 -1 -6 13 -1 15 -6 9 -29 -5 -16 -14 -38 -21 -49 -8 -13 -10 -28 -5 -39 5 -11 9 -23 9 -28 1 -5 7 -11 15 -14 9 -3 11 0 6 8 -5 9 -4 11 4 6 17 -11 48 2 54 24 3 13 -1 21 -15 26 -19 6 -19 7 8 35 23 24 25 29 10 29 -9 0 -26 -5 -37 -10 -25 -14 -24 0 1 28 12 12 16 22 11 22 -6 0 -8 7 -4 15 3 10 0 15 -8 13 -8 -2 -14 5 -14 17 0 11 -4 23 -10 27 -6 5 -4 8 4 8 11 0 10 4 -3 19 -10 11 -20 38 -23 61 -3 23 -14 57 -24 77 l-18 35 30 28 31 28 -23 16 -23 15 29 56 c16 30 33 55 37 55 10 0 55 61 63 88 4 13 2 22 -4 22 -6 0 -11 -7 -11 -15z"/>
<path d="M838 974 c-5 -4 -8 -16 -8 -28 0 -14 3 -17 11 -9 6 6 9 19 7 28 -1 9 -6 13 -10 9z"/>
<path d="M2010 930 c0 -6 -5 -8 -11 -4 -6 3 -4 -5 5 -19 10 -14 30 -31 47 -37 23 -10 27 -15 18 -26 -6 -8 -9 -21 -5 -29 6 -18 2 -19 -25 -4 -12 6 -28 7 -37 4 -13 -6 -9 -10 18 -20 34 -13 34 -14 8 -14 -31 -1 -38 -24 -11 -39 14 -9 14 -11 -6 -21 -12 -7 -19 -16 -16 -22 4 -5 0 -16 -8 -23 -11 -11 -13 -36 -10 -109 3 -79 1 -102 -18 -148 -19 -47 -24 -66 -28 -101 -1 -5 -6 -8 -11 -8 -6 0 -46 -29 -89 -65 -43 -36 -82 -65 -86 -65 -4 0 -23 -14 -42 -30 -18 -17 -42 -30 -53 -30 -10 0 -22 -4 -25 -10 -3 -5 -11 -10 -17 -10 -7 0 -6 6 2 15 18 21 -7 20 -51 -2 -19 -10 -41 -19 -49 -21 -8 -1 -22 -4 -30 -7 -8 -2 -23 -4 -32 -4 -10 -1 -26 -9 -36 -19 -19 -18 -24 -19 -82 -33 l-35 -8 35 3 c44 5 73 12 97 24 39 20 71 22 87 6 9 -8 16 -11 16 -5 0 6 9 11 20 11 31 0 231 97 263 128 16 15 33 37 38 50 5 13 17 22 29 22 12 0 19 4 16 9 -3 5 1 12 10 15 8 3 13 2 10 -3 -5 -8 23 -26 29 -19 9 12 12 68 5 73 -13 8 -13 26 -1 23 5 -2 9 1 9 5 1 5 9 15 19 22 13 10 18 29 20 74 1 33 4 65 8 70 3 5 1 31 -5 57 -10 44 -9 49 15 74 14 14 22 31 18 36 -5 5 1 1 12 -8 14 -11 25 -14 35 -8 12 7 11 13 -8 33 -28 30 -28 39 1 35 19 -3 22 2 22 30 0 21 4 31 12 28 39 -15 9 36 -39 67 -16 9 -28 22 -28 28 0 6 -7 17 -15 25 -9 9 -15 11 -15 4z"/>
<path d="M1032 735 c9 -10 21 -16 28 -13 7 2 -1 10 -16 17 -27 12 -28 11 -12 -4z"/>
<path d="M1566 703 c-4 -5 -12 -9 -17 -9 -5 -1 -13 -2 -19 -3 -10 -1 -14 -31 -4 -31 13 0 42 21 48 35 6 16 3 19 -8 8z"/>
<path d="M747 233 c-24 -6 -18 -35 11 -49 12 -6 20 -13 18 -15 -3 -2 11 -4 29 -3 24 1 43 -6 64 -25 17 -15 28 -31 23 -35 -4 -4 -2 -7 3 -5 19 4 75 -14 69 -22 -3 -5 2 -9 11 -9 10 0 14 5 9 13 -6 10 -4 10 7 0 7 -7 37 -13 65 -13 29 0 56 -4 59 -10 3 -5 24 -10 45 -10 21 0 42 -4 45 -10 3 -5 12 -10 18 -10 8 0 7 3 -2 9 -11 7 -10 10 5 14 10 2 -3 5 -29 6 -26 0 -62 8 -79 17 -17 9 -44 14 -61 11 -17 -2 -47 2 -65 10 -19 8 -40 12 -48 9 -7 -3 -33 15 -58 40 -25 24 -54 44 -66 44 -14 0 -20 7 -20 23 -1 20 -2 20 -11 5 -14 -24 -28 -23 -22 2 3 11 4 19 2 19 -2 -1 -12 -3 -22 -6z"/>
</g>


</svg>