<!DOCTYPE svg PUBLIC "-//W3C//DTD SVG 20010904//EN" "http://www.w3.org/TR/2001/REC-SVG-20010904/DTD/svg10.dtd">
<svg version="1.0" xmlns="http://www.w3.org/2000/svg" width="299px" height="252px" viewBox="0 0 2990 2520" preserveAspectRatio="xMidYMid meet">
<g id="layer101" fill="#130c0a" stroke="none">
<path d="M70 2513 c1 -5 31 -88 68 -186 l67 -178 270 -167 270 -167 9 -51 c8 -47 12 -53 53 -75 l45 -24 -6 -50 -6 -51 68 -66 c37 -36 75 -68 85 -71 12 -5 17 -17 17 -45 0 -34 -4 -41 -29 -52 -16 -6 -32 -19 -35 -27 -5 -12 -9 -13 -21 -3 -17 14 -38 3 -31 -16 3 -8 1 -14 -4 -14 -6 0 -9 -3 -9 -7 4 -26 -2 -63 -10 -59 -5 4 -7 -3 -4 -14 4 -14 0 -20 -11 -20 -9 0 -16 -7 -16 -15 0 -8 -9 -24 -19 -34 -15 -15 -19 -32 -18 -80 1 -34 -1 -61 -5 -61 -5 0 -8 -7 -8 -15 0 -8 -4 -15 -10 -15 -5 0 -10 -7 -10 -15 0 -8 -6 -15 -13 -15 -7 0 -18 -10 -26 -21 -10 -16 -15 -19 -21 -9 -13 22 -26 3 -39 -57 -20 -92 -20 -94 -5 -100 11 -4 11 -9 0 -31 -7 -15 -11 -33 -8 -41 2 -8 0 -11 -6 -7 -14 8 17 -126 32 -139 7 -6 11 -29 9 -57 -1 -27 2 -48 7 -48 6 0 10 5 10 11 0 5 5 7 10 4 18 -11 11 -25 -12 -26 -16 -1 -18 -3 -6 -6 15 -4 17 -13 9 -66 0 -5 -5 -6 -9 -3 -4 2 -9 -11 -10 -30 -2 -19 2 -34 8 -34 6 0 9 -4 5 -9 -3 -6 1 -13 8 -18 7 -4 17 -16 20 -26 4 -11 16 -21 27 -24 11 -3 18 -9 15 -13 -2 -4 11 -6 29 -5 37 3 86 -33 86 -61 0 -8 4 -13 9 -10 12 8 72 -5 66 -14 -3 -4 28 -8 67 -9 40 -1 77 -6 82 -11 6 -6 27 -10 49 -10 21 0 36 -4 33 -8 -8 -13 28 -11 37 2 4 7 10 8 15 1 20 -27 128 -24 182 5 29 15 80 16 89 1 6 -8 46 6 142 51 128 60 173 93 191 140 4 10 17 18 28 18 11 0 20 5 20 10 0 7 6 7 19 0 27 -14 31 -13 31 10 0 11 5 20 10 20 7 0 7 7 0 20 -9 16 -7 26 10 49 11 16 20 34 20 40 0 6 4 11 8 11 5 0 6 20 2 45 -4 24 -4 49 0 55 4 7 6 37 5 68 -2 46 1 58 19 73 11 10 28 16 38 13 26 -8 32 16 9 40 -25 27 -26 36 -5 36 9 0 12 -5 8 -12 -5 -8 -1 -7 10 1 12 10 16 24 14 43 -3 21 -1 27 8 24 39 -15 10 36 -39 68 -15 10 -27 23 -27 28 0 5 -7 16 -15 24 -9 9 -15 11 -15 4 0 -6 -5 -8 -10 -5 -6 4 -8 10 -5 15 3 4 -2 11 -10 14 -13 5 -12 9 5 26 11 11 20 29 20 41 0 15 4 19 16 15 14 -5 15 -4 4 9 -7 8 -23 15 -35 15 -13 0 -25 7 -29 15 -3 8 0 15 6 15 7 0 0 12 -14 28 -14 15 -23 34 -21 42 3 11 2 11 -4 3 -17 -24 -83 64 -83 112 0 18 -7 28 -26 35 -34 13 -37 13 -31 -5 9 -21 -8 -28 -23 -9 -11 12 -15 12 -21 2 -5 -8 -9 8 -9 39 l0 51 89 4 c87 3 91 4 126 38 37 36 65 88 65 121 0 11 5 18 12 17 7 -2 14 10 17 26 5 27 37 49 291 203 157 96 292 181 301 191 9 9 91 133 182 275 l166 257 -1460 0 c-802 0 -1459 -3 -1459 -7z"/>
</g>
<g id="layer102" fill="#5f3f30" stroke="none">
<path d="M83 2483 c6 -21 36 -105 67 -186 l55 -148 270 -167 270 -167 9 -51 c8 -47 12 -53 53 -75 l45 -24 -6 -50 -6 -51 68 -66 c37 -36 75 -68 85 -71 12 -5 17 -17 17 -45 0 -34 -4 -41 -29 -52 -16 -6 -32 -19 -35 -27 -5 -12 -9 -13 -21 -3 -17 14 -38 3 -31 -16 3 -8 1 -14 -4 -14 -6 0 -9 -3 -9 -7 4 -26 -2 -63 -10 -59 -5 4 -7 -3 -4 -14 4 -14 0 -20 -11 -20 -9 0 -16 -7 -16 -15 0 -8 -9 -24 -19 -34 -15 -15 -19 -32 -18 -80 1 -34 -1 -61 -5 -61 -5 0 -8 -7 -8 -15 0 -8 -4 -15 -10 -15 -5 0 -10 -7 -10 -15 0 -8 -6 -15 -13 -15 -7 0 -18 -10 -26 -21 -10 -16 -15 -19 -21 -9 -13 22 -26 3 -39 -57 -20 -92 -20 -94 -5 -100 11 -4 11 -9 0 -31 -7 -15 -11 -33 -8 -41 2 -8 0 -11 -6 -7 -14 8 17 -126 32 -139 7 -6 11 -29 9 -57 -1 -27 2 -48 7 -48 6 0 10 5 10 11 0 5 5 7 10 4 18 -11 11 -25 -12 -26 -16 -1 -18 -3 -6 -6 15 -4 17 -13 9 -66 0 -5 -5 -6 -9 -3 -4 2 -9 -11 -10 -30 -2 -19 2 -34 8 -34 6 0 9 -4 5 -9 -3 -6 1 -13 8 -18 7 -4 17 -16 20 -26 4 -11 16 -21 27 -24 11 -3 18 -9 15 -13 -2 -4 11 -6 29 -5 37 3 86 -33 86 -61 0 -8 4 -13 9 -10 12 8 72 -5 66 -14 -3 -4 28 -8 67 -9 40 -1 77 -6 82 -11 6 -6 27 -10 49 -10 21 0 36 -4 33 -8 -8 -13 28 -11 37 2 4 7 10 8 15 1 20 -27 128 -24 182 5 29 15 80 16 89 1 6 -8 46 6 142 51 128 60 173 93 191 140 4 10 17 18 28 18 11 0 20 5 20 10 0 7 6 7 19 0 27 -14 31 -13 31 10 0 11 5 20 10 20 7 0 7 7 0 20 -9 16 -7 26 10 49 11 16 20 34 20 40 0 6 4 11 8 11 5 0 6 20 2 45 -4 24 -4 49 0 55 4 7 6 37 5 68 -2 46 1 58 19 73 11 10 28 16 38 13 26 -8 32 16 9 40 -25 27 -26 36 -5 36 9 0 12 -5 8 -12 -5 -8 -1 -7 10 1 12 10 16 24 14 43 -3 21 -1 27 8 24 39 -15 10 36 -39 68 -15 10 -27 23 -27 28 0 5 -7 16 -15 24 -9 9 -15 11 -15 4 0 -6 -5 -8 -10 -5 -6 4 -8 10 -5 15 3 4 -2 11 -10 14 -13 5 -12 9 5 26 11 11 20 29 20 41 0 15 4 19 16 15 14 -5 15 -4 4 9 -7 8 -23 15 -35 15 -13 0 -25 7 -29 15 -3 8 0 15 6 15 7 0 0 12 -14 28 -14 15 -23 34 -21 42 3 11 2 12 -4 2 -7 -9 -15 -5 -34 15 -13 15 -29 36 -35 47 -11 19 -12 19 -19 -3 -8 -27 10 -52 32 -44 13 5 15 2 10 -11 -7 -18 10 -62 21 -52 12 13 52 -38 52 -66 0 -28 -1 -28 -21 -14 -11 8 -31 36 -44 64 -25 53 -52 69 -82 46 -10 -7 -21 -14 -25 -14 -9 0 -48 175 -48 220 l0 38 89 4 c87 3 91 4 126 38 37 36 65 88 65 121 0 11 5 18 12 17 6 -2 15 13 18 32 9 50 58 119 89 126 14 3 39 10 55 15 15 5 32 6 37 3 5 -3 8 -1 7 4 -6 19 85 82 120 82 11 0 22 8 24 18 3 11 54 43 132 82 70 36 133 72 141 80 20 22 309 471 318 493 6 16 -32 17 -718 17 -399 0 -725 -4 -725 -8 0 -15 37 -118 55 -153 10 -18 43 -60 74 -93 57 -61 46 -59 -17 3 -42 41 -98 128 -109 167 -4 16 -8 31 -9 34 -1 3 -5 15 -9 28 -7 21 -13 22 -94 22 l-86 0 -19 -40 c-11 -22 -26 -46 -34 -53 -10 -8 -7 3 7 30 11 23 21 47 21 53 0 7 -197 10 -619 10 l-619 0 11 -37z m1167 -93 c-6 -11 -14 -20 -19 -20 -11 0 -119 -84 -165 -128 -38 -37 -86 -122 -86 -153 0 -9 -7 -22 -15 -29 -18 -15 -20 1 -3 18 7 7 9 12 5 12 -4 0 1 17 12 39 11 21 17 41 14 45 -4 3 -1 6 5 6 7 0 12 5 12 11 0 7 11 22 24 34 14 13 22 26 18 31 -4 4 -2 4 5 0 6 -3 14 1 18 11 7 20 101 99 149 125 39 22 39 22 26 -2z m483 -185 c-3 -9 -2 -15 3 -14 5 1 15 1 21 0 17 -1 73 -79 73 -100 0 -9 -8 -2 -16 16 -15 29 -24 38 -78 77 -11 7 -16 18 -12 24 10 17 16 15 9 -3z m126 -203 c23 -62 98 -156 131 -167 11 -4 20 -10 20 -15 0 -15 -68 29 -95 62 -30 36 -69 110 -79 151 -11 45 0 31 23 -31z m-865 -228 c-5 -38 -3 -51 15 -74 16 -23 21 -43 21 -92 -1 -48 -3 -59 -11 -45 -43 74 -67 257 -33 257 12 0 14 -8 8 -46z m1111 4 c7 -8 4 -9 -10 -4 -11 5 -25 9 -32 10 -7 1 -15 5 -19 9 -4 3 6 4 22 1 16 -3 34 -10 39 -16z m-211 -309 c-26 -28 -33 -23 -28 21 l4 40 -25 -16 c-14 -9 -25 -25 -25 -35 0 -11 -7 -19 -15 -19 -19 0 -19 15 1 44 8 13 14 37 12 53 -2 23 3 31 31 45 19 9 39 22 45 28 8 8 12 -10 14 -66 2 -61 -1 -80 -14 -95z m-864 21 c0 -13 -11 -13 -30 0 -12 8 -11 10 8 10 12 0 22 -4 22 -10z m760 -40 c0 -5 17 -12 38 -17 l37 -7 -45 -7 c-53 -9 -80 -3 -80 16 0 12 14 19 43 24 4 0 7 -3 7 -9z m-820 -212 c0 -7 -4 -19 -9 -26 -7 -11 -10 -10 -15 3 -3 9 -4 21 0 26 8 13 24 11 24 -3z m916 -271 l-6 -32 15 25 c14 24 14 24 15 4 0 -22 17 -34 50 -34 10 0 29 -15 41 -32 13 -18 27 -34 31 -36 21 -9 6 -32 -22 -32 -37 0 -48 -20 -40 -73 7 -53 2 -77 -16 -77 -16 0 -19 -36 -4 -45 6 -4 7 -11 4 -17 -5 -7 -9 -7 -13 0 -4 6 -7 -8 -8 -31 -2 -98 -7 -122 -24 -119 -19 3 -30 -28 -25 -73 5 -37 -13 -77 -31 -71 -7 3 -13 1 -13 -4 0 -6 -9 -10 -21 -10 -15 0 -19 -5 -15 -15 3 -8 1 -15 -4 -15 -6 0 -10 10 -10 23 0 17 -2 19 -9 8 -5 -8 -7 -21 -3 -30 3 -9 1 -13 -3 -9 -5 5 -14 -1 -22 -12 -8 -11 -21 -20 -30 -20 -9 0 -13 -6 -10 -14 4 -10 1 -13 -9 -9 -7 3 -14 0 -14 -6 0 -6 -4 -11 -10 -11 -5 0 -7 7 -3 16 4 12 -1 11 -28 -5 -19 -12 -44 -21 -57 -21 -13 0 -32 -5 -43 -11 -16 -8 -25 -7 -39 6 -12 11 -19 13 -22 4 -2 -6 -24 -13 -48 -16 -25 -2 -61 -5 -81 -7 -20 -2 -50 -11 -67 -21 -30 -18 -32 -18 -80 2 -29 12 -63 19 -84 17 -38 -4 -58 17 -39 40 7 8 5 21 -4 40 -15 27 -14 28 9 22 17 -4 26 -1 30 10 8 21 -1 34 -25 34 -10 0 -19 4 -19 9 0 10 -40 22 -52 15 -4 -3 -4 -13 2 -23 9 -17 7 -18 -32 -8 -30 7 -46 7 -59 -1 -28 -18 -44 -14 -59 13 -8 16 -16 21 -20 14 -7 -10 -16 8 -25 51 -5 21 -27 62 -45 84 -14 17 -14 18 8 12 18 -6 22 -4 22 13 0 12 6 21 13 22 9 0 9 2 0 6 -7 2 -13 11 -13 20 0 10 -6 12 -22 8 -17 -6 -20 -4 -15 9 6 14 3 15 -13 6 -25 -13 -28 5 -3 18 25 14 27 45 2 39 -31 -8 -21 20 16 42 19 11 19 12 -5 8 -14 -2 -33 -8 -42 -12 -15 -6 -18 -2 -16 18 1 14 5 24 9 21 4 -2 10 3 13 12 4 10 2 13 -7 8 -9 -6 -9 -5 0 7 10 12 10 22 1 47 -15 38 -5 51 20 29 26 -24 32 -21 26 12 -6 30 30 125 38 100 4 -12 7 -12 21 -1 9 8 22 12 29 10 7 -3 23 7 35 20 13 14 25 23 26 21 2 -2 9 -78 15 -169 11 -180 16 -200 41 -200 10 0 39 -7 66 -17 35 -12 50 -13 53 -5 8 25 23 11 17 -16 -9 -42 11 -54 70 -43 51 10 97 -5 179 -57 35 -22 44 -23 71 -13 17 6 60 11 94 11 83 0 123 20 140 68 8 20 29 62 47 92 23 38 34 68 34 95 0 22 5 58 10 80 5 22 10 74 11 115 1 85 5 96 25 79 8 -6 14 -8 14 -5 0 4 9 2 20 -4 21 -11 26 -2 22 43 -2 17 -1 17 14 2 11 -11 15 -26 10 -48z m-259 -82 c-25 -18 -158 -27 -176 -12 -11 10 0 13 60 17 124 9 134 9 116 -5z m-357 -5 c8 -5 12 -11 9 -14 -11 -11 -157 -22 -187 -14 -58 15 -33 27 61 31 50 1 94 4 97 5 3 1 12 -2 20 -8z m270 -75 c15 -9 19 -14 10 -15 -8 0 -24 -3 -35 -5 -25 -6 -50 9 -41 24 10 15 36 13 66 -4z m-290 -3 c0 -11 -40 -32 -65 -34 -40 -3 -78 2 -71 9 19 19 136 40 136 25z m-420 -480 c0 -11 -9 -30 -21 -43 l-21 -24 8 30 c6 25 23 53 32 55 1 0 2 -8 2 -18z m150 -43 c0 -5 -10 -9 -21 -9 -18 0 -19 2 -9 15 12 15 30 12 30 -6z m478 -149 c-8 -12 -23 -20 -38 -20 -23 1 -24 2 -7 14 14 11 15 15 5 19 -7 3 2 6 20 6 30 1 31 0 20 -19z"/>
<path d="M774 638 c-4 -7 -4 -10 1 -6 4 4 15 2 23 -5 11 -8 14 -8 9 0 -4 6 -1 14 5 16 7 3 3 6 -9 6 -12 1 -25 -5 -29 -11z"/>
<path d="M1832 1290 c14 -22 24 -19 15 5 -4 8 -11 15 -17 15 -6 0 -6 -7 2 -20z"/>
</g>
<g id="layer103" fill="#8d5039" stroke="none">
<path d="M86 2493 c8 -37 68 -214 96 -286 l23 -58 270 -167 270 -167 9 -51 c8 -47 12 -53 53 -75 l45 -24 -6 -50 -6 -51 68 -66 c37 -36 75 -68 85 -71 12 -5 17 -17 17 -45 0 -34 -4 -41 -29 -52 -16 -6 -32 -19 -35 -27 -5 -12 -9 -13 -21 -3 -17 14 -38 3 -31 -16 3 -8 1 -14 -4 -14 -6 0 -9 -3 -9 -7 4 -26 -2 -63 -10 -59 -5 4 -7 -3 -4 -14 4 -14 0 -20 -11 -20 -9 0 -16 -7 -16 -15 0 -8 -9 -24 -19 -34 -15 -15 -19 -32 -18 -80 1 -34 -1 -61 -5 -61 -5 0 -8 -7 -8 -15 0 -8 -4 -15 -10 -15 -5 0 -10 -7 -10 -15 0 -8 -6 -15 -13 -15 -7 0 -18 -10 -26 -21 -10 -16 -15 -19 -21 -9 -13 22 -26 3 -39 -57 -20 -92 -20 -94 -5 -100 11 -4 11 -9 0 -31 -7 -15 -11 -33 -8 -41 2 -8 0 -11 -6 -7 -14 8 17 -126 32 -139 7 -6 11 -29 9 -57 -1 -27 2 -48 7 -48 6 0 10 5 10 11 0 5 5 7 10 4 18 -11 11 -25 -12 -26 -16 -1 -18 -3 -6 -6 15 -4 17 -13 9 -66 0 -5 -5 -6 -9 -3 -4 2 -9 -11 -10 -30 -2 -19 2 -34 8 -34 6 0 9 -4 5 -9 -3 -6 1 -13 8 -18 7 -4 17 -16 20 -26 4 -11 16 -21 27 -24 11 -3 18 -9 15 -13 -2 -4 11 -6 29 -5 37 3 86 -33 86 -61 0 -8 4 -13 9 -10 12 8 72 -5 66 -14 -3 -4 28 -8 67 -9 40 -1 77 -6 82 -11 6 -6 27 -10 49 -10 21 0 36 -4 33 -8 -8 -13 28 -11 37 2 4 7 10 8 15 1 20 -27 128 -24 182 5 29 15 80 16 89 1 6 -8 46 6 142 51 128 60 173 93 191 140 4 10 17 18 28 18 11 0 20 5 20 10 0 7 6 7 19 0 27 -14 31 -13 31 10 0 11 5 20 10 20 7 0 7 7 0 20 -9 16 -7 26 10 49 11 16 20 34 20 40 0 6 4 11 8 11 5 0 6 20 2 45 -4 24 -4 49 0 55 4 7 6 37 5 68 -2 46 1 58 19 73 11 10 28 16 38 13 26 -8 32 16 9 40 -25 27 -26 36 -5 36 9 0 12 -5 8 -12 -5 -8 -1 -7 10 1 12 10 16 24 14 43 -3 21 -1 27 8 24 39 -15 10 36 -39 68 -15 10 -27 23 -27 28 0 5 -7 16 -15 24 -9 9 -15 11 -15 4 0 -6 -5 -8 -10 -5 -6 4 -8 10 -5 15 3 4 -2 11 -10 14 -13 5 -12 9 5 26 11 11 20 29 20 41 0 15 4 19 16 15 14 -5 15 -4 4 9 -7 8 -25 15 -41 15 -27 0 -29 -2 -23 -26 l7 -27 -31 23 c-17 13 -38 40 -47 62 -19 49 -57 69 -84 44 -19 -17 -20 -17 -31 4 -14 27 -40 161 -40 210 l0 38 89 4 c87 3 91 4 126 38 37 36 65 88 65 121 0 11 5 18 12 17 7 -2 15 14 18 38 7 49 62 124 91 124 29 0 86 26 127 58 21 16 53 37 72 48 19 10 42 24 50 30 8 7 65 37 126 69 61 31 125 71 142 88 39 41 312 463 312 482 0 12 -21 15 -116 15 -96 0 -115 -2 -105 -13 6 -8 7 -17 3 -21 -10 -11 -9 -80 2 -87 5 -4 5 -12 1 -19 -10 -16 -45 17 -38 37 5 13 3 13 -15 4 -12 -7 -22 -18 -22 -26 0 -8 -4 -15 -9 -15 -5 0 -7 -9 -4 -20 3 -12 -1 -22 -11 -26 -9 -3 -13 -11 -9 -17 3 -6 1 -7 -5 -3 -9 5 -9 13 -2 27 8 13 7 19 0 19 -8 0 -9 24 -4 80 l7 81 -69 -6 c-38 -4 -75 -8 -81 -11 -7 -2 -13 1 -13 6 0 6 -166 10 -450 10 l-450 0 -1 -22 0 -23 -9 23 c-9 22 -30 31 -30 12 0 -9 27 -95 36 -115 15 -35 43 -70 54 -70 7 0 19 -11 28 -25 l14 -25 -21 25 c-18 20 -20 21 -12 4 13 -26 39 -49 48 -40 3 3 2 6 -3 6 -5 0 -9 15 -8 33 0 17 -7 40 -15 50 -13 16 -13 19 -1 28 13 8 13 10 0 19 -12 8 -11 10 7 10 16 0 21 -4 17 -15 -4 -8 -1 -15 5 -15 6 0 17 -11 23 -25 6 -14 17 -25 24 -25 7 0 18 -9 24 -21 6 -11 16 -19 23 -16 15 5 44 -26 68 -73 12 -22 27 -40 35 -40 8 0 24 -12 37 -27 12 -14 29 -34 37 -43 33 -35 70 -141 68 -195 -1 -31 -4 -35 -22 -29 -41 13 -109 82 -109 110 0 8 -3 12 -5 9 -3 -3 -11 3 -19 13 -13 15 -13 15 -8 -8 12 -43 69 -131 82 -126 7 3 12 0 10 -6 -2 -12 88 -79 101 -76 17 4 52 -15 52 -28 0 -8 -4 -14 -8 -14 -21 0 -131 61 -164 91 -42 38 -102 140 -113 191 -10 47 -48 109 -82 133 -43 30 -156 145 -183 187 -14 21 -28 38 -32 38 -3 0 -9 14 -13 31 -4 17 -13 33 -21 36 -8 3 -11 9 -8 14 3 5 -2 6 -10 3 -9 -3 -16 -1 -16 5 0 6 7 11 15 11 8 0 15 4 15 10 0 5 -16 9 -34 8 -29 -1 -36 -5 -39 -27 l-4 -26 -2 28 c-1 24 -5 27 -36 27 -32 0 -35 -2 -35 -30 0 -19 -5 -30 -14 -30 -8 0 -20 -13 -27 -29 -7 -16 -17 -27 -21 -25 -4 3 -8 1 -8 -4 0 -5 -37 -36 -83 -70 -85 -63 -131 -107 -160 -154 -21 -34 -21 -39 -2 -31 13 5 14 2 4 -21 -7 -14 -17 -26 -23 -26 -7 0 -17 -12 -23 -27 -23 -52 -73 -136 -107 -178 -19 -23 -44 -60 -56 -83 -26 -50 -40 -61 -40 -32 0 11 19 47 43 78 86 116 146 235 134 267 -4 8 1 19 11 24 9 6 14 11 10 11 -5 0 1 9 13 21 11 11 18 26 16 32 -4 13 16 37 30 37 5 0 9 12 9 28 -1 21 4 27 22 28 12 1 26 5 30 9 4 5 0 6 -9 2 -12 -4 -17 1 -16 19 0 19 5 24 26 24 35 0 53 13 45 33 -3 10 -1 17 5 17 6 0 8 7 5 15 -9 22 5 38 22 24 11 -9 14 -8 14 2 1 9 4 8 11 -4 11 -19 31 -14 23 6 -2 7 2 21 11 32 14 20 15 20 21 -2 8 -30 22 -29 34 3 6 14 10 27 10 28 0 2 -170 4 -379 5 l-378 2 -5 -26 c-3 -14 -1 -28 3 -31 5 -3 9 -12 9 -20 0 -8 -4 -12 -10 -9 -17 11 -11 -7 8 -21 16 -13 16 -13 0 -14 -19 0 -14 -28 6 -42 7 -5 4 -8 -6 -8 -22 0 -23 -23 -3 -40 18 -15 19 -42 3 -58 -8 -8 -8 -15 2 -27 20 -24 4 -29 -35 -11 -22 11 -35 24 -35 36 0 11 -4 20 -10 20 -5 0 -10 6 -10 14 0 7 -7 19 -15 26 -22 18 -19 30 8 30 20 0 19 2 -8 15 -17 9 -36 25 -43 36 -12 18 -11 21 8 26 16 4 18 8 9 14 -7 4 -21 3 -32 -3 -16 -8 -18 -7 -13 10 5 14 1 21 -14 25 -14 4 -19 12 -18 28 2 14 -3 24 -12 26 -10 2 -24 -18 -42 -59 -22 -51 -27 -58 -28 -35 0 17 -4 26 -11 22 -7 -5 -8 6 -4 34 5 31 3 41 -8 41 -22 0 -38 -48 -44 -128 -3 -40 -10 -75 -14 -78 -5 -3 -9 2 -9 10 0 9 -4 16 -9 16 -15 0 -47 123 -42 163 2 11 -5 17 -19 17 -17 0 -19 -4 -14 -27z m551 -3 c-3 -13 0 -20 10 -20 9 0 13 -6 10 -14 -3 -8 3 -22 14 -32 28 -25 21 -58 -13 -62 -21 -2 -28 1 -28 13 0 9 4 14 9 11 5 -4 8 2 7 11 -2 9 -8 19 -14 21 -7 2 -9 8 -6 13 3 6 1 16 -6 24 -7 8 -7 15 -1 19 6 4 8 13 4 21 -3 8 0 15 7 15 7 0 10 -8 7 -20z m1739 -7 c3 -10 10 -26 14 -35 11 -20 -2 -25 -70 -30 -36 -2 -45 1 -48 15 -2 9 1 17 7 17 6 0 11 4 11 9 0 5 -9 7 -20 4 -15 -4 -18 -11 -14 -28 5 -19 1 -23 -33 -28 -63 -11 -73 -8 -84 20 -7 20 -6 28 3 35 20 12 25 10 32 -17 4 -14 14 -25 22 -25 12 0 15 6 10 24 -7 28 6 35 62 37 20 1 48 5 62 9 37 12 40 12 46 -7z m208 -23 c1 -16 -4 -30 -10 -30 -16 0 -25 38 -10 44 6 2 -5 5 -24 7 l-35 2 35 6 c43 8 43 8 44 -29z m-609 -36 c28 -18 47 -24 74 -21 35 4 35 4 -6 5 -36 2 -43 5 -43 22 0 18 7 20 59 20 52 0 59 -3 64 -22 9 -33 1 -38 -69 -38 -45 0 -77 6 -104 20 -42 21 -46 20 -30 -10 7 -14 5 -19 -10 -23 -15 -4 -24 2 -35 23 -20 38 -20 38 18 43 17 2 35 5 38 5 3 1 23 -9 44 -24z m-1297 -92 c9 9 12 8 12 -5 0 -9 -6 -17 -12 -17 -8 0 -9 -3 -3 -8 20 -15 32 -48 29 -81 -2 -19 1 -40 7 -47 9 -11 8 -14 0 -14 -8 0 -7 -5 3 -15 14 -14 16 -50 4 -70 -3 -6 0 -28 8 -50 8 -22 12 -45 10 -51 -5 -12 18 -116 30 -136 4 -7 -5 0 -19 15 -24 25 -51 76 -70 129 -3 9 -1 19 6 22 7 2 5 5 -4 5 -16 1 -35 57 -31 91 1 8 -3 25 -10 37 -6 12 -8 31 -5 42 3 12 2 23 -2 25 -3 3 -6 26 -5 53 3 86 2 85 22 74 13 -7 23 -6 30 1z m1457 -322 c28 0 22 -15 -6 -17 -22 -2 -29 2 -29 16 0 24 14 37 18 17 2 -9 10 -16 17 -16z m-1125 -32 c0 -19 -2 -20 -10 -8 -13 19 -13 30 0 30 6 0 10 -10 10 -22z m30 -35 c0 -6 -25 -48 -39 -65 -19 -25 -15 -23 82 22 74 35 155 55 133 33 -8 -8 -13 -10 -44 -12 -10 0 -27 -8 -38 -16 -15 -12 -16 -16 -6 -23 10 -7 7 -11 -12 -16 -15 -4 -24 -11 -21 -16 3 -6 1 -10 -4 -10 -6 0 -11 -13 -11 -29 0 -17 -10 -46 -21 -66 -18 -30 -22 -54 -24 -150 -1 -63 -4 -118 -8 -121 -13 -13 -63 18 -94 60 -36 47 -39 62 -21 101 10 23 8 28 -20 52 -18 14 -32 30 -32 36 0 6 8 3 18 -6 26 -23 40 -21 40 6 1 51 26 138 38 133 8 -3 15 7 20 27 10 48 20 63 43 63 12 0 21 -2 21 -3z m378 -14 c57 -11 68 -19 25 -17 -16 0 -44 -3 -63 -7 -29 -5 -41 -2 -70 20 l-35 26 45 -6 c25 -4 69 -11 98 -16z m737 -19 c3 -5 1 -10 -4 -10 -6 0 -11 -4 -11 -9 0 -5 -4 -21 -10 -35 -6 -18 -14 -24 -26 -19 -11 4 -12 8 -4 13 6 4 10 11 9 16 -6 35 30 70 46 44z m-805 -135 c0 -8 -7 -15 -15 -15 -16 0 -20 12 -8 23 11 12 23 8 23 -8z m468 -82 c-16 -15 -17 -15 -12 8 5 19 3 21 -5 9 -8 -11 -11 -12 -11 -2 0 8 -5 10 -12 6 -10 -6 -10 -4 0 7 12 13 18 38 5 26 -9 -10 -33 13 -33 32 0 10 14 2 42 -27 40 -39 41 -43 26 -59z m47 -30 c24 -36 26 -37 31 -15 7 23 22 31 21 10 -1 -33 4 -49 13 -43 6 3 10 0 10 -8 0 -17 27 -31 32 -17 2 5 9 6 17 1 11 -7 11 -17 -4 -57 -34 -92 -80 -124 -180 -124 l-65 0 0 45 c0 49 13 82 60 158 17 27 28 53 25 58 -6 9 2 29 10 29 2 0 16 -17 30 -37z m-483 -8 c20 -14 42 -25 47 -25 6 0 11 -4 11 -10 0 -5 -11 -10 -24 -10 -14 0 -27 -4 -30 -9 -3 -4 -25 -11 -48 -14 -24 -2 -50 -8 -58 -11 -9 -4 -24 0 -35 8 -18 13 -18 15 14 42 33 28 71 53 81 54 3 0 22 -11 42 -25z m-82 -393 c-23 -4 -24 -5 -5 -12 17 -7 15 -8 -10 -8 -16 0 -54 -3 -82 -7 -36 -5 -53 -4 -53 3 0 6 15 14 33 16 66 11 167 18 117 8z m223 -1 c4 -1 7 -5 7 -11 0 -14 -35 -12 -95 5 l-50 14 65 -4 c36 -1 68 -3 73 -4z m-557 -56 c-11 -28 -22 -43 -29 -39 -8 5 -8 2 1 -7 6 -7 12 -22 12 -34 0 -18 -6 -21 -40 -20 -22 0 -40 3 -40 8 0 4 4 7 8 7 4 0 8 12 7 28 0 21 5 28 22 30 20 3 21 6 12 23 -15 29 -5 47 28 51 15 2 30 2 32 1 2 -1 -4 -23 -13 -48z m644 13 c0 -24 -81 -109 -87 -91 -5 14 33 73 54 86 7 4 13 15 13 23 0 8 5 12 10 9 6 -3 10 -15 10 -27z m-516 7 c-7 -18 23 -68 35 -60 9 5 32 -26 44 -59 7 -18 6 -18 -20 -1 -69 44 -92 79 -73 115 12 23 22 27 14 5z m176 -85 c0 -5 -7 -10 -15 -10 -8 0 -15 5 -15 10 0 6 7 10 15 10 8 0 15 -4 15 -10z m619 -126 c12 -14 26 -36 31 -50 7 -17 17 -24 35 -24 19 0 31 -10 46 -35 12 -19 25 -35 29 -35 4 0 13 -13 19 -30 11 -33 9 -35 -19 -20 -22 12 -50 3 -50 -16 0 -8 4 -14 9 -14 4 0 5 -19 1 -42 -5 -24 -6 -47 -3 -52 3 -4 0 -12 -6 -16 -11 -6 -16 -100 -9 -171 3 -39 -26 -111 -49 -122 -12 -5 -23 -16 -23 -24 0 -17 17 -17 23 0 2 6 4 0 3 -15 -1 -20 -4 -24 -14 -15 -10 8 -12 7 -10 -3 3 -12 -33 -44 -135 -120 -22 -16 -45 -26 -56 -23 -10 3 -22 0 -25 -6 -4 -6 -18 -8 -32 -5 -18 5 -24 2 -24 -9 0 -23 -16 -29 -39 -15 -18 11 -25 9 -53 -19 -20 -18 -57 -37 -93 -48 -33 -9 -77 -24 -98 -33 -33 -14 -43 -14 -70 -2 -18 7 -58 15 -90 18 -48 3 -63 9 -93 37 -35 33 -78 65 -89 65 -10 0 -5 -36 7 -48 6 -6 9 -14 6 -17 -8 -8 -74 20 -82 34 -11 17 10 13 28 -5 14 -13 16 -13 16 -1 0 8 -9 17 -20 20 -12 3 -20 14 -21 29 -1 25 -4 19 -13 -25 -8 -32 -26 -27 -26 8 0 13 -5 27 -10 30 -6 3 -10 1 -10 -4 0 -18 -38 11 -45 34 -6 20 -6 20 -15 0 -8 -18 -9 -19 -9 -1 -1 12 -6 16 -16 12 -18 -6 -18 -2 -5 44 6 19 13 48 16 64 4 27 3 28 -25 24 -25 -4 -28 -2 -19 9 6 8 17 12 23 9 7 -2 17 -1 24 3 17 11 -25 61 -50 61 -11 0 -17 4 -14 10 3 5 -4 28 -15 50 -22 44 -24 97 -3 93 7 -2 13 7 13 18 0 18 -2 20 -16 8 -13 -10 -17 -10 -25 2 -5 8 -9 20 -9 27 0 7 -5 10 -11 6 -8 -5 -8 -1 0 14 6 12 19 25 28 31 14 7 15 15 7 43 -6 18 -7 40 -3 48 4 8 12 27 18 43 6 16 18 27 30 27 13 0 25 14 38 45 10 25 21 45 25 45 4 0 5 -6 2 -14 -3 -8 0 -17 7 -22 7 -4 15 -2 17 4 2 7 9 9 14 5 7 -4 9 1 6 14 -3 11 -1 28 4 37 12 21 38 21 38 0 0 -14 3 -14 15 -4 12 10 15 9 15 -6 1 -43 30 -301 38 -328 11 -41 112 -91 112 -56 0 6 8 10 18 10 22 0 65 -38 57 -51 -4 -5 10 -9 30 -9 43 0 134 -31 173 -58 23 -17 40 -20 107 -16 155 7 158 8 188 67 15 29 37 66 48 83 22 35 46 160 59 302 4 51 10 96 14 99 3 3 12 0 21 -7 18 -15 45 -6 45 15 0 22 13 18 39 -11z m-645 -90 c9 -3 13 -10 10 -15 -5 -8 9 -13 29 -10 11 2 8 -47 -4 -54 -6 -4 -8 -14 -5 -22 10 -24 -36 -60 -86 -67 -48 -7 -85 -1 -126 19 -25 14 -13 31 15 21 17 -7 131 22 139 35 3 5 -25 9 -61 9 -64 0 -125 21 -125 42 0 4 37 8 83 8 102 0 132 7 116 26 -13 15 -9 17 15 8z m241 -14 c4 -6 42 -8 96 -6 l90 5 -27 -22 c-15 -12 -56 -26 -93 -32 l-66 -11 40 -18 c21 -9 54 -17 72 -18 29 -1 31 -3 15 -13 -29 -21 -101 -28 -148 -15 -43 12 -62 40 -27 40 14 0 13 3 -5 23 -29 31 -28 51 6 64 36 14 40 15 47 3z"/>
<path d="M940 1660 c0 -11 4 -20 9 -20 6 0 9 9 8 20 -1 11 -5 20 -9 20 -4 0 -8 -9 -8 -20z"/>
</g>
<g id="layer104" fill="#6e635b" stroke="none">
<path d="M86 2493 c8 -37 68 -213 96 -286 l23 -58 270 -167 270 -167 9 -51 c8 -47 12 -53 53 -75 l45 -24 -6 -50 -6 -51 68 -66 c37 -36 75 -68 85 -71 12 -5 17 -17 17 -45 0 -34 -4 -41 -29 -52 -16 -6 -32 -19 -35 -27 -5 -12 -9 -13 -21 -3 -17 14 -38 3 -31 -16 3 -8 1 -14 -4 -14 -6 0 -9 -3 -9 -7 4 -26 -2 -63 -10 -59 -5 4 -7 -3 -4 -14 4 -14 0 -20 -11 -20 -9 0 -16 -7 -16 -15 0 -8 -9 -24 -19 -34 -15 -15 -19 -32 -18 -80 1 -34 -1 -61 -5 -61 -5 0 -8 -7 -8 -15 0 -8 -4 -15 -10 -15 -5 0 -10 -7 -10 -15 0 -8 -6 -15 -13 -15 -7 0 -18 -10 -26 -21 -10 -16 -15 -19 -21 -9 -13 22 -26 3 -39 -57 -20 -92 -20 -94 -5 -100 11 -4 11 -9 0 -31 -7 -15 -11 -33 -8 -41 2 -8 0 -11 -6 -7 -14 8 17 -126 32 -139 7 -6 11 -29 9 -57 -1 -27 2 -48 7 -48 6 0 10 5 10 11 0 5 5 7 10 4 18 -11 11 -25 -12 -26 -16 -1 -18 -3 -6 -6 15 -4 17 -13 9 -66 0 -5 -5 -6 -9 -3 -4 2 -9 -11 -10 -30 -2 -19 2 -34 8 -34 6 0 9 -4 5 -9 -3 -6 1 -13 8 -18 7 -4 17 -16 20 -26 4 -11 16 -21 27 -24 11 -3 18 -9 15 -13 -2 -4 11 -6 29 -5 37 3 86 -33 86 -61 0 -8 4 -13 9 -10 12 8 72 -5 66 -14 -3 -4 28 -8 67 -9 40 -1 77 -6 82 -11 6 -6 27 -10 49 -10 21 0 36 -4 33 -8 -8 -13 28 -11 37 2 4 7 10 8 15 1 20 -27 128 -24 182 5 29 15 80 16 89 1 6 -8 46 6 142 51 128 60 173 93 191 140 4 10 17 18 28 18 11 0 20 5 20 10 0 7 6 7 19 0 27 -14 31 -13 31 10 0 11 5 20 10 20 7 0 7 7 0 20 -9 16 -7 26 10 49 11 16 20 34 20 40 0 6 4 11 8 11 5 0 6 20 2 45 -4 24 -4 49 0 55 4 7 6 37 5 68 -2 46 1 58 19 73 11 10 28 16 38 13 26 -8 32 16 9 40 -25 27 -26 36 -5 36 9 0 12 -5 8 -12 -5 -8 -1 -7 10 1 12 10 16 24 14 43 -3 21 -1 27 8 24 39 -15 10 36 -39 68 -15 10 -27 23 -27 28 0 5 -7 16 -15 24 -9 9 -15 11 -15 4 0 -6 -5 -8 -10 -5 -6 4 -8 10 -5 15 3 4 -2 11 -10 14 -13 5 -12 9 5 26 11 11 20 29 20 41 0 15 4 19 16 15 14 -5 15 -4 4 9 -7 8 -25 15 -41 15 -27 0 -29 -2 -23 -26 l7 -27 -31 23 c-16 12 -38 40 -48 62 -22 49 -58 67 -85 42 -11 -10 -21 -15 -23 -13 -12 13 -37 123 -42 189 l-7 78 91 3 c88 4 92 5 127 39 37 36 65 88 65 121 0 11 5 18 12 17 7 -2 15 14 18 38 7 49 62 124 91 124 29 0 86 26 127 58 21 16 53 37 72 48 19 10 42 24 50 30 8 7 65 37 126 69 61 31 125 71 142 88 39 41 312 463 312 482 0 12 -21 15 -116 15 -96 0 -115 -2 -105 -13 6 -8 7 -17 3 -21 -10 -11 -9 -80 2 -87 5 -4 5 -12 1 -19 -10 -16 -45 17 -38 37 5 13 3 13 -15 4 -12 -7 -22 -18 -22 -26 0 -8 -4 -15 -9 -15 -5 0 -7 -9 -4 -20 3 -12 -1 -22 -11 -26 -9 -3 -13 -11 -9 -17 3 -6 1 -7 -5 -3 -9 5 -9 13 -2 27 8 13 7 19 0 19 -8 0 -9 24 -4 80 l7 81 -69 -6 c-38 -4 -75 -8 -81 -11 -7 -2 -13 1 -13 6 0 6 -166 10 -450 10 l-450 0 -1 -22 0 -23 -9 23 c-9 22 -30 31 -30 12 0 -9 27 -95 36 -115 15 -35 43 -70 54 -70 7 0 19 -11 28 -25 l14 -25 -21 25 c-18 20 -20 21 -12 4 13 -26 39 -49 48 -40 3 3 2 6 -3 6 -5 0 -9 15 -8 33 0 17 -7 40 -15 50 -13 16 -13 19 -1 28 13 8 13 10 0 19 -12 8 -11 10 7 10 16 0 21 -4 17 -15 -4 -8 -1 -15 5 -15 6 0 17 -11 23 -25 6 -14 17 -25 24 -25 7 0 18 -9 24 -21 6 -11 16 -19 23 -16 15 5 44 -26 68 -73 12 -22 27 -40 35 -40 8 0 24 -12 37 -27 12 -14 29 -34 37 -43 33 -35 70 -141 68 -195 -1 -31 -4 -35 -22 -29 -41 13 -109 82 -109 110 0 8 -3 12 -5 9 -3 -3 -11 3 -19 13 -13 15 -13 15 -8 -8 12 -43 69 -131 82 -126 7 3 12 0 10 -6 -2 -12 88 -79 101 -76 17 4 52 -15 52 -28 0 -8 -4 -14 -8 -14 -21 0 -131 61 -164 91 -42 38 -102 140 -113 191 -10 47 -48 109 -82 133 -43 30 -156 145 -183 187 -14 21 -28 38 -32 38 -3 0 -9 14 -13 31 -4 17 -13 33 -21 36 -8 3 -11 9 -8 14 3 5 -2 6 -10 3 -9 -4 -16 -22 -18 -47 -2 -34 -7 -42 -23 -42 -18 0 -20 8 -23 63 l-3 62 -34 0 c-32 0 -35 -2 -35 -30 0 -19 -5 -30 -14 -30 -8 0 -20 -13 -27 -29 -7 -16 -17 -27 -21 -25 -4 3 -8 1 -8 -4 0 -5 -37 -36 -83 -70 -85 -63 -131 -107 -160 -154 -21 -34 -21 -39 -2 -31 13 5 14 2 4 -21 -7 -14 -17 -26 -23 -26 -7 0 -17 -12 -23 -27 -23 -52 -73 -136 -107 -178 -19 -23 -44 -60 -56 -83 -26 -50 -40 -61 -40 -32 0 11 19 47 43 78 86 116 146 235 134 267 -4 8 1 19 11 24 9 6 14 11 10 11 -5 0 1 9 13 21 11 11 18 26 16 32 -4 13 16 37 30 37 5 0 9 12 9 28 -1 21 4 27 22 28 12 1 26 5 30 9 4 5 0 6 -9 2 -12 -4 -17 1 -16 19 0 19 5 24 26 24 35 0 53 13 45 33 -3 10 -1 17 5 17 6 0 8 7 5 15 -9 22 5 38 22 24 11 -9 14 -8 14 2 1 9 4 8 11 -4 11 -19 31 -14 23 6 -2 7 2 21 11 32 14 20 15 20 21 -2 8 -30 22 -29 34 3 6 14 10 27 10 28 0 2 -170 4 -379 5 l-378 2 -5 -26 c-3 -14 -1 -28 3 -31 5 -3 9 -12 9 -20 0 -8 -4 -12 -10 -9 -17 11 -11 -7 8 -21 16 -13 16 -13 0 -14 -19 0 -14 -28 6 -42 7 -5 4 -8 -6 -8 -22 0 -23 -23 -3 -40 18 -15 19 -42 3 -58 -8 -8 -8 -15 2 -27 20 -24 4 -29 -35 -11 -22 11 -35 24 -35 36 0 11 -4 20 -10 20 -5 0 -10 6 -10 14 0 7 -7 19 -15 26 -20 17 -19 30 2 30 14 0 12 4 -7 17 -43 29 -52 46 -32 62 15 12 14 13 -11 8 -22 -3 -26 -1 -22 12 3 10 -3 20 -18 26 -12 6 -22 19 -22 29 0 39 -22 25 -39 -26 -23 -66 -32 -76 -50 -58 -20 21 -26 97 -6 85 6 -3 10 1 10 9 0 9 -6 16 -14 16 -18 0 -40 -63 -31 -89 3 -11 1 -22 -5 -26 -5 -3 -10 -26 -10 -51 0 -24 -4 -44 -10 -44 -5 0 -10 7 -10 15 0 8 -4 15 -9 15 -13 0 -42 102 -45 160 -1 8 -9 16 -19 18 -15 3 -17 -1 -11 -25z m551 -3 c-3 -13 0 -20 10 -20 9 0 13 -6 10 -14 -3 -8 3 -22 14 -32 28 -25 21 -58 -13 -62 -21 -2 -28 1 -28 13 0 9 4 14 9 11 5 -4 8 2 7 11 -2 9 -8 19 -14 21 -7 2 -9 8 -6 13 3 6 1 16 -6 24 -7 8 -7 15 -1 19 6 4 8 13 4 21 -3 8 0 15 7 15 7 0 10 -8 7 -20z m1739 -7 c3 -10 10 -26 14 -35 11 -20 -2 -25 -70 -30 -36 -2 -45 1 -48 15 -2 9 1 17 7 17 6 0 11 4 11 9 0 5 -9 7 -20 4 -15 -4 -18 -11 -14 -28 5 -19 1 -23 -33 -28 -63 -11 -73 -8 -84 20 -7 20 -6 28 3 35 20 12 25 10 32 -17 4 -14 14 -25 22 -25 12 0 15 6 10 24 -7 28 6 35 62 37 20 1 48 5 62 9 37 12 40 12 46 -7z m208 -23 c1 -16 -4 -30 -10 -30 -16 0 -25 38 -10 44 6 2 -5 5 -24 7 l-35 2 35 6 c43 8 43 8 44 -29z m-609 -36 c28 -18 47 -24 74 -21 35 4 35 4 -6 5 -36 2 -43 5 -43 22 0 18 7 20 59 20 52 0 59 -3 64 -22 9 -33 1 -38 -69 -38 -45 0 -77 6 -104 20 -42 21 -46 20 -30 -10 7 -14 5 -19 -10 -23 -15 -4 -24 2 -35 23 -20 38 -20 38 18 43 17 2 35 5 38 5 3 1 23 -9 44 -24z m-1297 -92 c9 9 12 8 12 -5 0 -9 -6 -17 -12 -17 -8 0 -9 -3 -3 -8 20 -15 32 -48 29 -81 -2 -19 1 -40 7 -47 9 -11 8 -14 0 -14 -8 0 -7 -5 3 -15 14 -14 16 -50 4 -70 -3 -6 0 -28 8 -50 8 -22 12 -45 10 -51 -5 -12 18 -116 30 -136 4 -7 -5 0 -19 15 -24 25 -51 76 -70 129 -3 9 -1 19 6 22 7 2 5 5 -4 5 -16 1 -35 57 -31 91 1 8 -3 25 -10 37 -6 12 -8 31 -5 42 3 12 2 23 -2 25 -3 3 -6 26 -5 53 3 86 2 85 22 74 13 -7 23 -6 30 1z m1457 -322 c28 0 22 -15 -6 -17 -22 -2 -29 2 -29 16 0 24 14 37 18 17 2 -9 10 -16 17 -16z m-1125 -32 c0 -19 -2 -20 -10 -8 -13 19 -13 30 0 30 6 0 10 -10 10 -22z m30 -35 c0 -6 -25 -48 -39 -65 -20 -25 -13 -23 78 21 95 46 164 57 271 41 103 -14 143 -28 136 -47 -4 -11 -2 -13 9 -9 20 7 116 -15 109 -26 -3 -4 2 -5 10 -2 9 3 16 2 16 -4 0 -10 60 -38 73 -34 5 1 6 -2 2 -8 -3 -6 -10 -8 -14 -6 -4 3 -7 -6 -7 -19 0 -20 3 -22 18 -14 23 12 23 20 1 13 -16 -5 -16 -4 1 10 16 13 21 13 42 -1 13 -8 21 -20 17 -26 -3 -5 -2 -7 4 -4 11 7 46 -28 92 -93 29 -40 32 -42 38 -22 6 23 21 30 20 10 -1 -33 4 -49 13 -43 6 3 10 0 10 -8 0 -17 27 -31 32 -17 2 5 9 6 17 1 11 -7 11 -17 -4 -57 -21 -55 -48 -89 -87 -110 -34 -18 -154 -19 -160 -1 -3 6 -1 39 4 72 23 150 23 148 -15 201 -40 56 -88 85 -132 81 -21 -1 -30 3 -30 13 -1 28 -17 41 -48 38 -23 -2 -32 1 -32 12 0 9 -11 16 -25 17 -20 2 -22 1 -6 -5 17 -7 16 -10 -8 -26 -19 -12 -25 -23 -21 -35 3 -10 6 -35 7 -55 1 -20 5 -39 10 -42 4 -3 6 -10 3 -15 -4 -5 -1 -9 4 -9 6 0 11 -7 11 -15 0 -8 13 -21 30 -30 16 -8 46 -30 66 -47 40 -36 107 -134 101 -151 -2 -6 -13 5 -25 24 -21 35 -56 69 -70 69 -5 0 -18 9 -30 20 -42 39 -64 41 -123 9 -30 -17 -62 -28 -73 -25 -10 3 -29 1 -42 -4 -14 -6 -26 -6 -29 0 -6 10 -64 40 -77 40 -6 0 -23 -9 -39 -21 -16 -11 -29 -17 -29 -12 1 15 27 43 42 43 7 0 34 20 58 45 24 25 49 45 56 45 12 0 24 22 24 42 0 6 -13 8 -29 6 -24 -3 -27 -1 -23 15 3 10 -1 23 -9 28 -10 6 -10 9 -1 9 6 0 12 11 12 25 0 20 -5 25 -25 25 -26 0 -34 15 -13 22 8 3 6 7 -5 11 -9 3 -16 2 -14 -2 3 -11 -50 -61 -64 -61 -6 0 -29 -19 -52 -43 l-42 -42 -1 -108 c0 -59 -3 -110 -7 -113 -13 -13 -63 18 -94 60 -36 47 -39 62 -21 101 10 23 8 28 -20 52 -18 14 -32 30 -32 36 0 6 9 2 20 -8 21 -19 32 -16 37 13 13 85 28 132 39 128 8 -3 15 7 20 27 10 48 20 63 43 63 12 0 21 -2 21 -3z m1115 -33 c3 -5 1 -10 -4 -10 -6 0 -11 -4 -11 -9 0 -5 -4 -21 -10 -35 -6 -18 -14 -24 -26 -19 -11 4 -12 8 -4 13 6 4 10 11 9 16 -6 35 30 70 46 44z m-613 -162 c-11 -11 -32 -3 -32 12 0 4 9 6 21 3 13 -4 17 -9 11 -15z m-194 -379 c2 -5 11 -9 19 -9 12 0 13 -3 4 -14 -9 -11 -5 -15 19 -19 45 -9 37 -27 -11 -24 -22 2 -42 1 -44 -3 -2 -3 -16 -6 -32 -5 -22 0 -28 5 -26 20 1 11 -3 23 -9 26 -6 4 -8 14 -5 24 4 9 11 13 17 10 5 -3 10 -1 10 5 0 14 53 4 58 -11z m-258 -36 c0 -5 -5 -15 -10 -23 -8 -12 -10 -11 -10 8 0 12 5 22 10 22 6 0 10 -3 10 -7z m36 -38 c-3 -9 1 -18 9 -21 8 -4 12 -10 9 -15 -5 -9 2 -8 119 12 58 10 191 7 259 -6 10 -2 20 1 23 6 4 5 11 7 16 4 5 -4 9 1 9 11 0 11 10 4 31 -22 17 -21 35 -41 40 -45 11 -7 1 -39 -12 -39 -5 0 -9 -7 -9 -15 0 -25 -120 -95 -163 -95 -6 0 0 10 12 21 22 21 22 22 5 32 -10 6 -55 11 -99 13 -111 2 -185 -20 -157 -48 38 -38 -23 -31 -103 12 -55 30 -90 78 -80 110 4 11 11 18 16 15 5 -3 23 14 41 40 33 46 45 57 34 30z m-158 -89 c-9 -35 -16 -45 -28 -41 -12 5 -13 4 -2 -6 12 -13 16 -51 6 -62 -3 -3 -16 -2 -28 3 -13 4 -29 4 -39 -1 -18 -11 -23 1 -8 17 5 5 11 20 13 34 2 17 10 26 25 28 20 3 21 6 12 23 -15 29 -5 47 28 51 15 2 29 3 31 2 1 -1 -3 -22 -10 -48z m911 -177 c22 -22 41 -50 43 -62 2 -16 11 -23 31 -25 20 -3 35 -14 49 -38 11 -19 24 -34 28 -34 4 0 13 -13 19 -30 11 -33 9 -35 -19 -20 -22 12 -50 3 -50 -16 0 -8 4 -14 9 -14 4 0 5 -19 1 -42 -5 -24 -6 -47 -3 -52 3 -4 0 -12 -6 -16 -11 -6 -16 -100 -9 -171 3 -39 -26 -111 -49 -122 -12 -5 -23 -16 -23 -24 0 -17 17 -17 23 0 2 6 4 0 3 -15 -1 -20 -4 -24 -14 -15 -10 8 -12 7 -10 -3 3 -12 -33 -44 -135 -120 -22 -16 -45 -26 -56 -23 -10 3 -22 0 -25 -6 -4 -6 -18 -8 -32 -5 -18 5 -24 2 -24 -9 0 -23 -16 -29 -39 -15 -18 11 -25 9 -53 -19 -20 -18 -57 -37 -93 -48 -33 -9 -77 -24 -98 -33 -33 -14 -43 -14 -70 -2 -18 7 -58 15 -89 17 -49 4 -63 10 -102 45 -25 21 -50 37 -56 33 -5 -3 -10 -1 -10 4 0 6 -4 11 -9 11 -10 0 -9 -26 2 -36 4 -4 7 -11 7 -16 0 -13 -40 0 -72 23 -18 13 -28 15 -28 7 0 -18 -17 3 -22 26 -1 11 -12 20 -23 22 -11 2 -27 12 -37 24 -11 14 -18 16 -21 8 -3 -8 -6 -5 -6 6 -1 12 -6 16 -16 12 -18 -6 -18 -2 -5 44 6 19 13 48 16 64 4 27 3 28 -25 24 -25 -4 -28 -2 -19 9 6 8 17 12 23 9 7 -2 17 -1 24 3 17 11 -25 61 -50 61 -11 0 -17 4 -14 10 3 5 -4 28 -15 50 -22 44 -24 97 -3 93 7 -2 13 7 13 18 0 18 -2 20 -16 8 -13 -10 -17 -10 -25 2 -5 8 -9 20 -9 27 0 7 -5 10 -11 6 -8 -5 -8 -1 0 14 6 12 19 25 28 31 14 7 15 15 7 43 -6 18 -7 40 -3 48 4 8 12 27 18 43 6 16 18 27 30 27 13 0 25 14 38 45 10 25 21 45 25 45 4 0 5 -6 2 -14 -3 -8 0 -17 7 -22 7 -4 15 -2 17 4 2 7 9 9 15 5 6 -4 8 0 4 10 -4 10 -4 31 0 47 4 24 8 28 19 19 11 -9 14 -8 14 5 0 9 5 16 11 16 7 0 9 -10 4 -27 -5 -23 -4 -25 9 -14 18 15 22 -5 32 -159 3 -62 13 -124 24 -152 10 -26 15 -49 13 -52 -3 -3 6 -8 21 -12 14 -3 26 -10 26 -15 0 -5 7 -9 16 -9 8 0 12 5 8 11 -5 8 11 9 57 4 65 -7 99 -19 99 -34 0 -5 12 -11 28 -14 15 -3 44 -13 64 -21 21 -9 41 -16 44 -15 3 0 18 -10 32 -23 25 -23 33 -25 119 -22 101 3 128 12 139 46 4 13 10 25 14 28 4 3 21 30 38 60 28 52 43 110 48 190 6 97 16 176 25 185 5 5 9 19 9 32 0 27 6 29 26 8 17 -17 34 -20 34 -6 0 5 -7 14 -15 21 -15 12 -12 30 6 30 5 0 27 -18 48 -41z m-640 -90 c54 -11 61 -22 61 -94 -1 -54 -16 -70 -78 -84 -88 -18 -166 -15 -188 10 -16 17 -16 22 -4 29 8 6 34 10 56 10 49 0 104 10 104 19 0 3 -25 7 -55 8 -51 2 -115 27 -115 45 0 8 22 12 53 10 10 -1 26 2 35 8 15 8 14 9 -6 10 -33 0 -22 23 14 31 45 10 69 10 123 -2z m364 -1 c3 -10 8 -10 23 2 17 13 17 13 -1 -9 -19 -23 -19 -24 -1 -17 10 3 27 4 37 1 17 -6 17 -8 4 -21 -20 -20 -79 -44 -110 -44 -26 0 -34 -14 -12 -23 7 -3 44 -1 82 3 39 4 72 5 75 3 3 -3 -10 -18 -28 -34 -33 -30 -34 -30 -148 -28 -95 1 -116 4 -123 18 -10 19 -2 143 9 136 4 -3 13 2 20 10 16 20 166 22 173 3z"/>
<path d="M753 834 c-3 -8 -2 -19 3 -24 5 -5 10 1 10 16 2 27 -4 31 -13 8z"/>
<path d="M1866 319 c-23 -27 -15 -35 9 -9 10 11 16 22 14 25 -3 2 -13 -5 -23 -16z"/>
<path d="M1460 2510 c0 -5 7 -10 15 -10 8 0 15 5 15 10 0 6 -7 10 -15 10 -8 0 -15 -4 -15 -10z"/>
<path d="M1894 2096 c-10 -8 -15 -18 -11 -22 4 -4 15 0 24 9 22 21 12 31 -13 13z"/>
<path d="M1914 2065 c-4 -9 -13 -14 -20 -11 -24 9 -15 -20 10 -34 14 -7 30 -27 36 -44 18 -47 26 -61 36 -58 11 4 6 53 -7 67 -5 5 -9 17 -9 27 0 10 -4 18 -10 18 -5 0 -10 9 -10 19 0 26 -18 37 -26 16z"/>
<path d="M1847 1221 c-3 -12 -1 -21 3 -21 5 0 11 -8 13 -17 3 -12 5 -10 6 7 1 36 -15 58 -22 31z"/>
<path d="M1927 1156 c-3 -8 4 -22 16 -33 22 -18 22 -18 6 2 -9 11 -14 26 -12 33 6 17 -4 15 -10 -2z"/>
</g>
<g id="layer105" fill="#a07b64" stroke="none">
<path d="M85 2501 c3 -11 14 -50 25 -88 11 -37 36 -112 57 -166 l38 -98 270 -167 270 -167 9 -51 c8 -47 12 -53 53 -75 l45 -24 -6 -50 -6 -51 68 -66 c37 -36 75 -68 85 -71 12 -5 17 -17 17 -45 0 -34 -4 -41 -29 -52 -16 -6 -32 -19 -35 -27 -5 -12 -9 -13 -21 -3 -17 14 -38 3 -31 -16 3 -8 1 -14 -4 -14 -6 0 -9 -3 -9 -7 4 -26 -2 -63 -10 -59 -5 4 -7 -3 -4 -14 4 -14 0 -20 -11 -20 -9 0 -16 -7 -16 -15 0 -8 -9 -24 -19 -34 -15 -15 -19 -32 -18 -80 1 -34 -1 -61 -5 -61 -5 0 -8 -7 -8 -15 0 -8 -4 -15 -10 -15 -5 0 -10 -7 -10 -15 0 -8 -6 -15 -13 -15 -7 0 -18 -10 -26 -21 -10 -16 -15 -19 -21 -9 -13 22 -26 3 -39 -57 -20 -92 -20 -94 -5 -100 11 -4 11 -9 0 -31 -7 -15 -11 -33 -8 -41 2 -8 0 -11 -6 -7 -14 8 17 -126 32 -139 7 -6 11 -29 9 -57 -1 -27 2 -48 7 -48 6 0 10 5 10 11 0 5 5 7 10 4 18 -11 11 -25 -12 -26 -16 -1 -18 -3 -6 -6 15 -4 17 -13 9 -66 0 -5 -5 -6 -9 -3 -4 2 -9 -11 -10 -30 -2 -19 2 -34 8 -34 6 0 9 -4 5 -9 -3 -6 1 -13 8 -18 7 -4 17 -16 20 -26 4 -11 16 -21 27 -24 11 -3 18 -9 15 -13 -2 -4 11 -6 29 -5 37 3 86 -33 86 -61 0 -8 4 -13 9 -10 12 8 72 -5 66 -14 -3 -4 28 -8 67 -9 40 -1 77 -6 82 -11 6 -6 27 -10 49 -10 21 0 36 -4 33 -8 -8 -13 28 -11 37 2 5 8 10 7 16 -3 5 -8 11 -9 15 -3 8 13 -17 22 -64 22 -54 0 -81 12 -121 54 -18 20 -39 34 -46 32 -6 -3 -14 0 -16 7 -2 7 -7 10 -10 7 -4 -3 0 -18 8 -34 l15 -27 -33 6 c-17 4 -41 15 -51 24 -13 11 -20 12 -23 4 -3 -8 -10 -7 -23 5 -13 11 -16 18 -9 23 7 4 8 12 4 19 -6 9 -9 9 -16 -1 -6 -10 -9 -10 -9 -2 0 7 -16 15 -35 19 -19 3 -34 9 -33 13 3 28 -3 33 -18 15 -15 -19 -15 -19 -10 1 19 75 19 78 5 70 -9 -6 -9 -2 2 11 9 10 20 29 23 42 6 18 4 22 -16 22 -13 0 -30 -6 -37 -12 -10 -11 -11 -10 -6 4 8 19 32 31 47 21 7 -3 8 -1 4 5 -4 7 -2 12 3 12 7 0 7 7 -1 20 -7 11 -19 18 -25 15 -7 -2 -13 0 -13 6 0 6 -5 7 -11 3 -7 -4 -9 1 -7 12 3 11 -4 34 -15 52 -12 21 -18 45 -15 67 2 19 1 35 -2 35 -4 0 -12 17 -18 37 -10 33 -9 40 9 59 19 20 20 25 7 51 -12 24 -11 32 4 62 10 19 36 52 58 73 22 22 40 48 40 60 0 12 3 18 8 14 4 -4 7 -13 7 -19 0 -5 6 -12 13 -15 6 -2 12 2 12 10 0 10 3 9 11 -2 9 -13 10 -12 5 3 -3 9 -3 31 1 47 4 24 8 28 19 19 11 -9 14 -8 14 5 0 9 5 16 11 16 7 0 9 -10 4 -27 -5 -23 -4 -25 9 -14 18 15 22 -5 32 -159 3 -62 13 -124 24 -152 10 -26 15 -49 13 -52 -3 -3 6 -8 21 -12 14 -3 26 -10 26 -15 0 -5 7 -9 16 -9 8 0 12 5 8 11 -5 8 11 9 57 4 65 -7 99 -19 99 -34 0 -5 12 -11 28 -14 15 -3 44 -13 64 -21 21 -9 41 -16 44 -15 3 0 18 -10 32 -23 25 -23 33 -25 119 -22 101 3 128 12 139 46 4 13 10 25 14 28 4 3 21 30 38 60 28 52 43 110 48 190 6 97 16 176 25 185 5 5 9 19 9 32 0 13 5 23 10 23 6 0 10 -4 10 -9 0 -11 31 -24 38 -16 3 3 -3 13 -12 24 -23 26 -4 37 28 16 28 -18 58 -60 66 -90 4 -12 15 -20 28 -20 31 -1 112 -91 112 -124 0 -19 -3 -22 -12 -13 -7 7 -22 12 -34 12 -25 0 -40 -15 -25 -24 5 -3 7 -15 4 -26 -3 -11 0 -27 7 -35 9 -10 9 -15 1 -15 -6 0 -11 -9 -11 -19 0 -11 -4 -22 -9 -25 -5 -3 -9 -54 -8 -113 0 -96 -3 -115 -27 -167 -14 -33 -24 -61 -22 -63 7 -7 66 58 66 73 0 8 4 14 8 14 5 0 6 20 2 45 -4 24 -4 49 0 55 4 7 6 37 5 68 -2 46 1 58 19 73 11 10 28 16 38 13 26 -8 32 16 9 40 -25 27 -26 36 -5 36 9 0 12 -5 8 -12 -5 -8 -1 -7 10 1 12 10 16 24 14 43 -3 21 -1 27 8 24 39 -15 10 36 -39 68 -15 10 -27 23 -27 28 0 5 -7 16 -15 24 -9 9 -15 11 -15 4 0 -6 -5 -8 -10 -5 -6 4 -8 10 -5 15 3 4 -2 11 -10 14 -13 5 -12 9 5 26 11 11 20 29 20 41 0 15 4 19 16 15 14 -5 15 -4 4 9 -7 8 -23 15 -36 15 -20 0 -24 -5 -24 -32 l0 -31 -23 21 c-27 25 -34 27 -40 10 -2 -7 -2 -3 0 10 5 30 -31 98 -56 105 -11 2 -29 -2 -41 -10 -12 -8 -24 -13 -26 -10 -12 11 -34 117 -40 188 l-7 77 91 3 c88 4 92 5 127 39 38 36 65 88 65 122 0 10 4 17 9 14 11 -7 21 17 21 50 0 34 59 114 84 114 27 1 105 36 131 60 31 28 108 73 247 144 113 58 131 72 171 123 65 85 268 404 278 435 7 26 6 27 -27 26 -38 -1 -51 -25 -40 -70 3 -13 3 -17 0 -10 -8 16 -24 15 -24 -2 0 -23 -29 -41 -43 -27 -9 9 -9 14 3 21 10 6 11 10 3 10 -9 0 -10 7 -3 26 13 33 13 34 -4 34 -15 0 -42 -122 -31 -140 3 -5 0 -20 -7 -32 -7 -13 -13 -29 -13 -37 0 -9 -11 -15 -28 -15 -28 -2 -37 9 -14 17 6 2 8 8 4 13 -5 5 -15 1 -22 -10 -8 -11 -21 -16 -30 -13 -19 8 -20 -16 -1 -32 10 -8 16 -9 21 -1 8 13 25 13 25 0 0 -5 -6 -10 -14 -10 -8 0 -16 -7 -20 -15 -3 -8 -12 -15 -21 -15 -11 0 -14 6 -9 25 5 19 2 25 -9 25 -17 0 -32 49 -28 88 3 26 -16 30 -21 5 -2 -10 -1 -34 3 -53 5 -21 4 -37 -2 -41 -6 -3 -12 -12 -13 -20 -2 -8 -7 -22 -11 -33 -5 -12 -3 -21 6 -27 11 -6 8 -9 -8 -9 -13 0 -23 3 -23 8 0 11 -53 32 -74 28 -11 -1 -22 -8 -24 -14 -2 -7 2 -10 11 -6 8 3 18 0 23 -7 4 -7 3 -10 -4 -5 -6 3 -14 1 -17 -5 -4 -5 -13 -8 -21 -5 -8 3 -11 0 -8 -8 5 -13 -23 -26 -56 -26 -13 0 -13 1 0 10 13 8 13 10 -1 10 -20 0 -33 -27 -17 -36 7 -4 6 -9 -3 -15 -10 -6 -5 -9 14 -9 16 0 26 -4 23 -9 -3 -5 -26 -6 -51 -3 -28 3 -45 1 -45 -6 0 -5 9 -8 20 -5 16 4 19 2 14 -11 -6 -16 -17 -20 -42 -17 -6 1 -20 -3 -30 -9 -14 -10 -15 -11 0 -6 9 2 24 -2 35 -11 15 -12 15 -14 1 -10 -27 9 -27 -3 -1 -31 17 -19 21 -28 11 -31 -7 -2 -17 -10 -21 -17 -4 -8 -19 -14 -32 -14 -26 0 -34 15 -12 23 6 3 0 6 -15 6 -16 1 -28 -3 -28 -9 0 -5 -7 -10 -16 -10 -10 0 -14 -6 -11 -14 3 -8 -1 -17 -9 -20 -8 -3 -14 -12 -14 -21 0 -8 -4 -15 -10 -15 -12 0 -42 -58 -36 -69 3 -5 0 -13 -7 -19 -9 -8 -31 -1 -82 24 -86 43 -115 70 -155 145 -17 32 -35 61 -40 64 -6 4 -10 15 -10 26 0 11 -15 41 -32 67 -18 26 -33 54 -33 62 0 8 -7 15 -15 15 -8 1 -14 6 -12 13 1 7 -4 12 -12 12 -8 0 -47 38 -87 85 -66 75 -75 83 -89 70 -17 -15 -61 -20 -73 -8 -4 3 3 11 15 17 37 19 44 41 25 80 -23 49 -51 49 -45 1 3 -29 1 -35 -11 -30 -13 5 -14 4 -3 -6 6 -7 12 -20 12 -28 -1 -13 -3 -13 -15 3 -7 10 -18 15 -24 12 -6 -4 -11 18 -13 61 -3 66 -4 68 -30 71 -23 3 -28 -1 -28 -19 0 -44 -33 -140 -51 -150 -11 -5 -19 -7 -19 -3 0 3 -7 0 -16 -7 -9 -7 -23 -14 -32 -16 -9 -1 -18 -8 -21 -15 -2 -7 -38 -47 -79 -88 -41 -41 -85 -88 -98 -103 -26 -31 -32 -84 -10 -93 8 -3 11 -15 8 -30 -4 -22 -1 -24 29 -24 28 -1 31 -2 17 -11 -10 -5 -18 -17 -18 -25 0 -8 -6 -17 -14 -20 -8 -3 -17 -12 -20 -20 -4 -12 1 -11 32 2 115 50 145 56 237 51 50 -3 116 -13 148 -22 48 -14 56 -19 46 -31 -11 -14 1 -20 15 -7 11 11 48 14 41 3 -3 -5 0 -7 8 -4 16 6 138 -52 203 -97 22 -15 60 -53 83 -84 24 -31 45 -54 48 -52 6 7 -39 111 -49 115 -5 2 -4 10 3 18 9 11 15 11 25 3 20 -16 19 30 -1 78 -23 55 -19 86 5 38 11 -22 20 -45 20 -53 0 -8 9 -16 21 -19 11 -3 18 -11 15 -18 -2 -7 16 -33 41 -59 39 -41 43 -49 31 -64 -7 -9 2 -4 20 11 31 25 52 34 52 22 0 -9 -32 -58 -53 -82 -14 -16 -18 -29 -13 -48 8 -31 -32 -120 -68 -154 -27 -25 -121 -46 -170 -37 l-36 7 7 62 c3 34 10 70 14 79 5 9 9 35 9 57 0 78 -94 174 -165 168 -21 -1 -30 3 -30 13 -1 28 -17 41 -48 38 -23 -2 -32 1 -32 12 0 9 -11 16 -25 17 -20 2 -22 1 -6 -5 17 -7 16 -10 -8 -26 -19 -12 -25 -23 -21 -35 3 -10 6 -35 7 -55 1 -20 5 -39 10 -42 4 -3 6 -10 3 -15 -4 -5 -1 -9 4 -9 6 0 11 -7 11 -15 0 -8 13 -21 30 -30 16 -8 46 -30 66 -47 40 -36 107 -134 101 -151 -2 -6 -13 5 -25 24 -21 35 -56 69 -70 69 -5 0 -18 9 -30 20 -42 39 -64 41 -123 9 -30 -17 -62 -28 -73 -25 -10 3 -29 1 -42 -4 -14 -6 -26 -6 -29 0 -6 10 -64 40 -77 40 -6 0 -23 -9 -39 -21 -16 -11 -29 -17 -29 -12 1 15 27 43 42 43 7 0 34 20 58 45 24 25 49 45 56 45 12 0 24 22 24 42 0 6 -13 8 -29 6 -24 -3 -27 -1 -23 15 3 10 -1 23 -9 28 -10 6 -10 9 -1 9 6 0 12 11 12 25 0 20 -5 25 -25 25 -26 0 -34 15 -13 22 8 3 6 7 -5 11 -9 3 -16 2 -14 -2 3 -11 -50 -61 -65 -61 -6 0 -28 -19 -49 -41 -39 -41 -39 -42 -40 -130 -1 -49 -3 -93 -4 -99 -1 -5 -3 -19 -4 -30 -1 -26 -41 -27 -68 -2 -10 9 -12 13 -4 7 9 -5 -1 10 -20 35 -46 57 -50 72 -36 109 10 28 9 31 -43 78 -29 26 -61 51 -71 55 -12 5 -16 13 -13 23 4 9 -8 30 -29 55 -43 47 -67 92 -95 180 -18 54 -39 179 -41 240 0 8 -3 40 -6 70 -11 124 -12 149 -3 152 19 7 -5 38 -29 38 -21 0 -23 -3 -17 -22 4 -13 8 -56 9 -95 1 -40 4 -76 8 -79 3 -3 1 -18 -4 -32 -6 -15 -8 -41 -4 -59 3 -17 1 -34 -4 -38 -7 -4 -7 -12 1 -24 6 -10 8 -26 4 -36 -6 -15 -9 -14 -27 9 -11 14 -27 26 -35 26 -8 0 -13 4 -9 9 3 5 1 12 -5 16 -6 4 -8 11 -5 16 4 5 1 9 -4 9 -6 0 -11 6 -11 13 0 21 -27 71 -53 98 -12 14 -22 30 -23 37 -3 32 -5 34 -33 29 -15 -3 -33 -1 -40 6 -17 17 -13 29 9 22 24 -7 25 2 5 29 -8 11 -13 28 -10 37 3 10 0 21 -6 25 -9 5 -11 -2 -6 -29 4 -28 2 -35 -8 -31 -9 4 -16 -5 -20 -30 -4 -21 -17 -41 -32 -51 -14 -9 -26 -15 -27 -13 -2 2 -8 12 -14 23 -10 18 -12 16 -13 -15 -1 -19 -1 -45 0 -57 3 -38 -26 -26 -48 20 -11 23 -25 65 -31 92 -19 90 -20 95 -31 95 -6 0 -8 -9 -4 -19z m2190 -641 c3 -5 -3 -10 -14 -10 -11 0 -23 -5 -26 -10 -4 -6 -3 -10 2 -9 24 4 21 -5 -17 -40 -38 -36 -88 -62 -74 -40 3 5 11 9 19 9 7 0 19 14 27 30 7 17 16 30 20 30 5 0 8 9 8 19 0 27 42 42 55 21z m-733 -112 c-11 -11 -32 -3 -32 12 0 4 9 6 21 3 13 -4 17 -9 11 -15z m-194 -379 c2 -5 11 -9 19 -9 12 0 13 -3 4 -14 -9 -11 -5 -15 19 -19 45 -9 37 -27 -11 -24 -22 2 -42 1 -44 -3 -2 -3 -16 -6 -32 -5 -22 0 -28 5 -26 20 1 11 -3 23 -9 26 -6 4 -8 14 -5 24 4 9 11 13 17 10 5 -3 10 -1 10 5 0 14 53 4 58 -11z m-258 -36 c0 -5 -5 -15 -10 -23 -8 -12 -10 -11 -10 8 0 12 5 22 10 22 6 0 10 -3 10 -7z m36 -38 c-3 -9 1 -18 9 -21 8 -4 12 -10 9 -15 -5 -9 2 -8 119 12 58 10 191 7 259 -6 10 -2 20 1 23 6 4 5 11 7 16 4 5 -4 9 1 9 11 0 11 10 4 31 -22 17 -21 35 -41 40 -45 11 -7 1 -39 -12 -39 -5 0 -9 -7 -9 -15 0 -25 -120 -95 -163 -95 -6 0 0 10 12 21 22 21 22 22 5 32 -10 6 -55 11 -99 13 -111 2 -185 -20 -157 -48 38 -38 -23 -31 -103 12 -55 30 -90 78 -80 110 4 11 11 18 16 15 5 -3 23 14 41 40 33 46 45 57 34 30z m-150 -59 c-4 -12 -11 -43 -17 -71 -17 -78 -16 -76 -42 -66 -14 5 -30 5 -40 0 -18 -11 -23 1 -8 17 5 5 11 20 13 34 2 16 11 26 28 30 17 4 21 8 12 14 -11 7 -17 48 -8 57 3 2 19 4 36 5 28 1 31 -1 26 -20z m263 -297 c54 -11 61 -22 61 -94 -1 -54 -16 -70 -78 -84 -88 -18 -166 -15 -188 10 -16 17 -16 22 -4 29 8 6 34 10 56 10 49 0 104 10 104 19 0 3 -25 7 -55 8 -51 2 -115 27 -115 45 0 8 22 12 53 10 10 -1 26 2 35 8 15 8 14 9 -6 10 -33 0 -22 23 14 31 45 10 69 10 123 -2z m364 -1 c3 -10 8 -10 23 2 17 13 17 13 -1 -9 -19 -23 -19 -24 -1 -17 10 3 27 4 37 1 17 -6 17 -8 4 -21 -20 -20 -79 -44 -110 -44 -26 0 -34 -14 -12 -23 7 -3 44 -1 82 3 39 4 72 5 75 3 3 -3 -10 -18 -28 -34 -33 -30 -34 -30 -148 -28 -95 1 -116 4 -123 18 -10 19 -2 143 9 136 4 -3 13 2 20 10 16 20 166 22 173 3z"/>
<path d="M1309 1236 c-2 -3 -36 -8 -74 -11 -39 -4 -72 -9 -74 -11 -5 -4 51 -54 60 -54 3 0 23 14 45 30 33 27 45 31 88 28 28 -2 50 -7 48 -12 -3 -9 46 -35 76 -42 7 -1 17 8 22 21 5 13 18 26 30 30 12 4 19 9 16 12 -7 7 -230 15 -237 9z"/>
<path d="M702 2493 c-23 -15 -28 -22 -14 -18 12 4 22 2 22 -4 0 -5 10 -13 23 -17 25 -8 33 -6 29 8 -4 14 38 -1 67 -23 l24 -19 -27 0 c-14 0 -26 5 -26 12 0 9 -3 9 -11 1 -7 -7 -25 -9 -43 -6 -28 6 -30 5 -17 -10 11 -14 11 -17 1 -17 -8 0 -10 -3 -7 -7 4 -3 0 -15 -10 -25 -16 -17 -15 -18 8 -16 16 2 24 -2 24 -12 0 -8 -8 -14 -17 -14 -22 2 -22 0 -2 -20 14 -15 14 -16 -1 -16 -9 0 -13 -5 -9 -11 3 -6 17 -8 30 -5 l25 7 -21 -21 c-11 -11 -18 -25 -15 -30 4 -6 1 -10 -5 -10 -14 0 -3 -38 18 -62 9 -11 10 -18 4 -18 -11 0 -12 -165 -1 -185 3 -5 6 -26 7 -45 2 -38 20 -90 31 -90 4 0 15 15 26 33 10 17 33 52 52 76 18 24 33 49 33 55 0 6 -4 5 -9 -3 -5 -7 -11 -9 -14 -4 -7 11 -2 47 7 62 4 5 2 11 -3 13 -4 1 -5 12 -1 23 7 17 9 16 15 -13 10 -41 21 -48 36 -21 10 19 8 25 -12 40 -13 10 -30 19 -36 19 -7 0 -13 5 -13 11 0 5 5 7 12 3 8 -5 9 -2 5 10 -5 14 -3 17 8 12 18 -6 21 19 3 30 -7 5 -8 2 -3 -7 5 -8 1 -7 -10 3 -14 13 -16 20 -7 31 12 14 5 57 -12 70 -7 6 -4 7 7 3 12 -4 17 0 17 14 0 14 -5 18 -17 13 -10 -4 -14 -2 -9 5 3 6 -2 15 -11 21 -14 8 -9 9 20 6 37 -5 51 7 22 19 -27 10 -17 29 13 22 22 -5 24 -4 9 5 -12 7 -16 17 -12 30 4 11 2 19 -5 19 -12 0 -59 50 -60 63 0 4 11 0 25 -9 30 -20 43 -13 20 10 -9 9 -13 20 -10 26 10 16 -27 12 -45 -5 -27 -24 -60 -27 -60 -6 0 24 -23 22 -68 -6z m88 -129 c0 -16 -16 -19 -25 -4 -8 13 4 32 16 25 5 -4 9 -13 9 -21z"/>
<path d="M1857 2499 c3 -11 13 -23 22 -27 9 -3 19 -10 23 -16 14 -21 20 4 8 34 -9 21 -19 30 -35 30 -19 0 -22 -4 -18 -21z"/>
<path d="M1936 2503 c10 -8 18 -19 16 -24 -1 -6 2 -8 7 -5 5 4 12 2 16 -4 3 -5 13 -10 21 -10 8 0 12 5 9 10 -5 9 31 14 98 13 10 0 17 8 17 19 0 16 -9 18 -102 17 -91 -2 -99 -3 -82 -16z m112 0 c-10 -2 -26 -2 -35 0 -10 3 -2 5 17 5 19 0 27 -2 18 -5z"/>
<path d="M2134 2495 c1 -18 7 -25 21 -25 14 0 16 3 7 9 -19 12 4 28 48 34 25 3 19 4 -21 5 -55 2 -57 1 -55 -23z"/>
<path d="M210 2450 c0 -19 3 -21 12 -12 9 9 9 15 0 24 -9 9 -12 7 -12 -12z"/>
<path d="M223 2406 c2 -23 24 -33 24 -12 0 8 -4 13 -8 10 -4 -2 -10 2 -13 8 -3 7 -5 4 -3 -6z"/>
<path d="M960 2395 c0 -8 4 -15 9 -15 5 0 14 7 21 15 10 13 9 15 -9 15 -12 0 -21 -6 -21 -15z"/>
<path d="M2091 2373 c-6 -10 -11 -12 -11 -5 0 14 -20 17 -20 3 0 -15 43 -26 48 -12 2 6 11 11 20 11 15 0 15 2 2 10 -21 14 -28 12 -39 -7z"/>
<path d="M2390 2375 c0 -9 6 -12 15 -9 8 4 15 10 15 15 0 5 -7 9 -15 9 -8 0 -15 -7 -15 -15z"/>
<path d="M2112 2339 c-7 -11 -18 -17 -24 -13 -7 4 -8 3 -4 -4 5 -9 13 -9 27 -2 15 8 23 7 35 -5 8 -8 23 -15 32 -14 12 0 10 3 -6 10 -16 6 -22 14 -18 27 8 25 -27 26 -42 1z"/>
<path d="M1930 2302 c0 -11 37 -32 44 -25 8 9 -14 33 -30 33 -8 0 -14 -3 -14 -8z"/>
<path d="M2097 2286 c-4 -10 -5 -21 -2 -24 9 -9 17 6 13 25 -3 17 -4 17 -11 -1z"/>
<path d="M2220 2289 c0 -5 -15 -10 -32 -10 -28 -2 -29 -2 -8 -6 14 -3 33 -12 43 -21 9 -8 20 -12 24 -9 3 4 1 7 -5 7 -22 0 -12 29 11 32 20 3 20 4 -5 9 -16 4 -28 2 -28 -2z"/>
<path d="M2392 2238 c-8 -8 -7 -15 4 -26 8 -8 13 -21 10 -28 -6 -16 3 -18 22 -6 9 7 8 13 -8 27 -14 13 -17 21 -9 26 7 4 7 9 2 12 -6 4 -15 1 -21 -5z"/>
<path d="M2515 2241 c-6 -11 9 -23 19 -14 9 9 7 23 -3 23 -6 0 -12 -4 -16 -9z"/>
<path d="M1955 2190 c-17 -7 -15 -9 11 -9 42 -1 49 -12 22 -32 -12 -10 -20 -20 -17 -24 4 -3 14 2 24 11 13 13 19 14 25 5 5 -9 10 -10 14 -2 4 6 4 11 -1 12 -4 0 1 4 12 9 17 7 17 9 3 9 -10 1 -18 7 -18 14 0 16 -44 19 -75 7z"/>
<path d="M2005 2100 c-3 -5 3 -10 15 -10 12 0 18 5 15 10 -3 6 -10 10 -15 10 -5 0 -12 -4 -15 -10z"/>
<path d="M2018 2051 c3 -14 11 -36 19 -48 9 -13 15 -49 15 -87 2 -71 7 -80 27 -43 14 27 7 133 -11 154 -8 10 -6 18 6 32 16 17 15 18 -22 18 -36 0 -38 -1 -34 -26z"/>
<path d="M973 2038 c-6 -7 -25 -41 -43 -75 -18 -35 -37 -63 -41 -63 -5 0 -14 -10 -20 -22 -12 -22 -11 -22 7 -8 17 14 18 13 7 -1 -7 -9 -10 -18 -7 -21 3 -3 -3 -5 -13 -4 -12 1 -17 -5 -15 -18 2 -10 -1 -15 -7 -12 -5 4 -15 -2 -21 -13 -9 -18 -5 -25 31 -51 46 -33 59 -33 37 -1 -8 12 -18 18 -21 14 -4 -3 -7 7 -7 23 0 22 3 26 10 14 6 -10 10 -11 10 -2 0 6 9 12 19 12 15 0 22 11 31 52 11 52 35 92 51 82 5 -2 8 20 7 51 -1 30 -2 55 -4 55 -1 0 -6 -6 -11 -12z"/>
<path d="M1684 1785 c0 -20 3 -22 18 -14 23 12 24 21 1 12 -10 -4 -14 -2 -9 5 3 6 3 13 -2 16 -4 2 -8 -6 -8 -19z"/>
<path d="M1936 333 c-4 -4 -11 -8 -14 -8 -4 -1 -18 -11 -32 -23 -74 -64 -135 -112 -144 -113 -6 -1 -22 -3 -35 -4 -13 -1 -28 -10 -33 -19 -5 -9 -14 -16 -19 -16 -6 0 -7 5 -3 11 4 7 -3 6 -17 -2 l-24 -13 25 -6 c22 -5 23 -7 6 -13 -10 -4 -24 -2 -32 4 -9 7 -19 7 -36 -1 -21 -10 -21 -10 -5 3 14 11 15 17 6 23 -8 4 -23 -5 -39 -23 -25 -28 -108 -65 -151 -69 -9 -1 -31 -8 -48 -17 -18 -9 -40 -14 -49 -11 -14 5 -14 3 1 -6 23 -15 92 -4 137 20 29 15 80 16 89 1 6 -8 46 6 142 51 128 60 173 93 191 140 4 10 17 18 28 18 11 0 20 5 20 10 0 7 6 7 19 0 27 -14 31 -13 31 9 0 11 5 21 10 23 7 2 6 10 -2 21 -8 10 -17 14 -22 10z"/>
</g>
<g id="layer106" fill="#5c78b9" stroke="none">
<path d="M160 2266 c0 -1 10 -28 23 -59 l22 -58 270 -167 270 -167 9 -51 c8 -47 12 -53 53 -75 l45 -24 -6 -50 -6 -51 68 -66 c37 -36 75 -68 85 -71 12 -5 17 -17 17 -45 0 -34 -4 -41 -29 -52 -16 -6 -32 -19 -35 -27 -5 -12 -9 -13 -21 -3 -17 14 -38 3 -31 -16 3 -8 1 -14 -4 -14 -6 0 -9 -3 -9 -7 4 -26 -2 -63 -10 -59 -5 4 -7 -3 -4 -14 4 -14 0 -20 -11 -20 -9 0 -16 -7 -16 -16 0 -9 -8 -22 -17 -29 -11 -9 -18 -31 -20 -73 -4 -63 7 -83 32 -62 11 9 11 16 -3 40 -24 41 -10 46 29 9 27 -26 35 -29 37 -15 2 9 8 13 14 9 7 -4 9 0 5 9 -3 9 0 21 6 27 13 13 10 16 -21 26 -21 6 -23 4 -17 -17 6 -22 5 -22 -9 -4 -9 11 -14 30 -11 44 6 33 34 74 45 67 13 -8 13 1 1 24 -12 21 -3 63 11 55 5 -3 24 -3 42 0 29 6 34 12 50 62 10 31 28 76 41 101 31 56 42 128 24 149 -7 9 -9 18 -3 22 8 6 9 15 5 46 0 6 -10 0 -21 -12 -16 -17 -20 -35 -20 -96 0 -58 -3 -75 -16 -80 -23 -9 -76 17 -105 53 -23 28 -26 40 -24 92 l2 60 -64 56 c-38 34 -62 62 -59 70 3 8 -12 29 -34 49 -36 33 -100 141 -100 170 0 6 -7 14 -15 18 -8 3 -15 15 -15 27 0 19 -4 21 -40 16 -38 -5 -40 -3 -52 29 -6 19 -17 34 -23 34 -21 0 -38 -18 -32 -34 4 -9 2 -16 -3 -16 -6 0 -10 5 -10 11 0 8 -5 7 -16 -2 -13 -11 -17 -10 -25 4 -6 9 -21 17 -34 17 -14 0 -34 8 -44 18 -39 34 -50 42 -65 42 -10 0 -13 6 -10 15 4 9 0 15 -9 15 -9 0 -32 15 -51 34 -20 18 -36 33 -36 32z"/>
<path d="M2170 1855 c0 -9 -6 -18 -13 -21 -8 -3 -20 -21 -27 -40 -8 -20 -23 -37 -35 -40 -16 -4 -21 -11 -18 -27 3 -15 -8 -36 -31 -64 -24 -28 -36 -51 -36 -72 0 -44 -28 -111 -61 -146 -42 -45 -35 -49 9 -6 40 38 62 78 62 112 0 11 4 18 9 15 11 -7 21 17 21 51 0 26 54 113 71 113 15 0 58 52 59 71 0 8 5 20 12 27 7 7 8 12 4 12 -5 0 -3 7 4 15 10 13 9 15 -9 15 -12 0 -21 -6 -21 -15z"/>
<path d="M1856 1210 c8 -43 14 -51 14 -19 0 13 -5 31 -10 39 -7 11 -8 5 -4 -20z"/>
<path d="M1981 1050 c-7 -3 -9 -14 -5 -23 12 -31 -7 -37 -31 -9 -28 33 -38 26 -30 -22 5 -26 12 -36 26 -36 10 0 21 -4 24 -10 3 -5 14 -10 23 -10 16 1 16 1 0 11 -16 9 -16 11 2 29 11 11 20 29 20 41 0 15 5 19 16 15 8 -3 13 -2 10 3 -8 13 -42 20 -55 11z"/>
<path d="M790 965 c0 -8 -4 -15 -10 -15 -5 0 -10 -7 -10 -15 0 -8 -6 -15 -13 -15 -7 0 -18 -10 -26 -21 -10 -16 -15 -19 -21 -9 -13 22 -26 3 -39 -57 -20 -92 -20 -94 -5 -100 11 -4 11 -9 0 -31 -7 -15 -11 -33 -8 -41 2 -8 0 -11 -6 -7 -14 8 17 -126 32 -139 7 -6 11 -29 9 -57 -1 -27 2 -48 7 -48 6 0 10 5 10 11 0 5 5 7 10 4 18 -11 11 -25 -12 -26 -16 -1 -18 -3 -6 -6 15 -4 17 -13 9 -66 0 -5 -5 -6 -9 -3 -4 2 -9 -11 -10 -30 -2 -19 2 -34 8 -34 6 0 8 -5 5 -10 -3 -6 0 -13 8 -16 8 -3 17 -14 20 -25 3 -11 15 -23 26 -26 11 -3 19 -9 16 -13 -2 -4 11 -6 29 -5 37 3 86 -33 86 -61 0 -8 4 -13 9 -10 12 8 72 -5 66 -14 -3 -4 28 -8 67 -9 40 -1 77 -6 82 -11 6 -6 27 -10 49 -10 21 0 36 -4 33 -8 -2 -4 4 -8 14 -9 10 -1 21 5 24 13 4 11 -5 14 -39 14 -43 0 -113 25 -127 45 -4 6 -13 2 -21 -9 -13 -18 -15 -18 -65 6 -28 14 -49 21 -46 16 14 -22 -18 -3 -54 32 -22 22 -49 40 -61 40 -15 0 -21 6 -21 23 -1 20 -2 20 -11 5 -19 -34 -27 -18 -13 27 14 49 11 54 -18 28 -18 -16 -18 -16 -12 0 3 9 11 17 16 17 6 0 8 6 5 14 -3 8 3 22 13 31 28 25 14 38 -21 20 -16 -9 -29 -12 -29 -8 1 14 27 43 39 43 8 0 8 6 -1 20 -7 11 -19 20 -26 20 -8 0 -11 10 -9 27 2 16 -5 41 -15 58 -10 16 -18 44 -18 61 0 16 -7 39 -15 50 -21 27 -18 48 8 75 21 21 22 27 10 49 -7 14 -13 19 -13 11 0 -8 -3 -12 -6 -9 -8 9 46 111 67 125 20 15 59 75 59 92 0 6 -4 11 -10 11 -5 0 -10 -7 -10 -15z"/>
<path d="M2010 930 c0 -6 -5 -8 -11 -4 -6 3 -4 -5 5 -19 10 -14 30 -31 47 -37 23 -10 27 -15 18 -26 -6 -8 -9 -21 -5 -29 7 -18 4 -18 -29 -3 -19 8 -29 8 -37 0 -8 -8 -2 -13 23 -20 32 -10 32 -10 7 -11 -36 -1 -43 -16 -17 -34 l21 -15 -21 -12 c-12 -6 -19 -15 -16 -21 4 -5 0 -16 -8 -23 -11 -11 -13 -37 -11 -110 4 -80 1 -104 -17 -148 -19 -46 -24 -65 -28 -101 -1 -4 -4 -6 -9 -5 -4 2 -43 -26 -86 -62 -43 -36 -82 -65 -85 -65 -3 0 -24 -13 -45 -30 -44 -34 -115 -63 -95 -39 17 21 -10 18 -62 -6 -24 -11 -53 -20 -65 -20 -12 0 -43 -12 -70 -27 -27 -14 -65 -30 -84 -34 l-35 -8 35 3 c46 5 74 12 100 26 29 15 80 16 89 1 6 -8 46 6 142 51 128 60 173 93 191 140 4 10 17 18 28 18 11 0 20 5 20 10 0 7 6 7 19 0 27 -14 31 -13 31 10 0 11 5 20 11 20 7 0 5 10 -5 25 -19 28 -20 36 -6 33 6 -2 18 11 28 27 9 17 20 31 23 33 3 1 3 23 -1 47 -4 24 -4 49 0 55 4 7 6 37 5 68 -2 46 1 58 19 73 11 10 28 16 38 13 26 -8 32 16 9 40 -25 27 -26 36 -5 36 9 0 12 -5 8 -12 -5 -8 -1 -7 10 1 12 10 16 24 14 43 -3 21 -1 27 8 24 39 -15 10 36 -39 68 -15 10 -27 23 -27 28 0 5 -7 16 -15 24 -9 9 -15 11 -15 4z"/>
</g>
<g id="layer107" fill="#c89477" stroke="none">
<path d="M1391 2513 c0 -6 -9 -14 -19 -17 -11 -4 -22 -24 -30 -58 -14 -60 -42 -104 -66 -102 -9 1 -13 -2 -10 -7 3 -5 -1 -9 -9 -9 -13 0 -208 -189 -228 -222 -13 -20 -11 -58 4 -58 7 0 22 -7 33 -15 16 -13 17 -16 4 -25 -20 -13 -1 -13 39 1 18 6 34 9 36 7 3 -3 -11 -22 -30 -44 -44 -49 -44 -59 -2 -37 48 25 205 30 304 9 136 -29 319 -112 368 -167 10 -10 24 -19 32 -19 8 0 11 -4 8 -10 -3 -5 -1 -10 4 -10 23 0 10 36 -26 72 -31 31 -34 38 -20 44 10 3 24 1 32 -6 12 -10 15 -9 15 6 0 16 2 16 10 4 17 -27 19 -4 5 50 -8 29 -12 57 -9 62 3 4 -2 16 -11 25 -9 9 -14 24 -12 34 3 11 -8 37 -26 61 -31 45 -137 168 -173 203 -11 11 -29 32 -39 48 -16 25 -19 26 -30 11 -16 -23 -97 -35 -114 -16 -7 7 -17 48 -22 90 -10 82 -16 114 -18 95z m-128 -460 c-13 -2 -33 -2 -45 0 -13 2 -3 4 22 4 25 0 35 -2 23 -4z m133 -33 c88 -16 107 -20 101 -26 -3 -3 -49 2 -104 10 -54 9 -114 17 -133 19 -23 3 -15 4 21 5 30 1 82 -3 115 -8z"/>
<path d="M160 2266 c0 -20 48 -114 63 -126 25 -17 24 -17 159 -94 57 -33 121 -71 143 -86 22 -15 66 -41 99 -59 78 -41 142 -100 138 -127 -3 -20 61 -94 80 -94 4 0 8 -22 8 -49 0 -37 6 -57 23 -76 l22 -26 0 67 -1 66 -63 57 c-38 34 -61 62 -57 69 4 7 -10 27 -33 48 -37 33 -101 141 -101 170 0 6 -7 14 -15 18 -8 3 -15 15 -15 27 0 19 -4 21 -40 16 -38 -5 -40 -3 -52 29 -6 19 -17 34 -23 34 -21 0 -38 -18 -32 -34 4 -9 2 -16 -3 -16 -6 0 -10 5 -10 11 0 8 -5 7 -16 -2 -13 -11 -17 -10 -25 4 -6 9 -21 17 -34 17 -14 0 -34 8 -44 18 -39 34 -50 42 -65 42 -10 0 -13 6 -10 15 4 9 0 15 -9 15 -9 0 -32 15 -51 34 -20 18 -36 33 -36 32z"/>
<path d="M1057 1630 c-13 -15 -17 -39 -17 -94 0 -44 -4 -76 -11 -78 -6 -2 -12 -28 -14 -58 -1 -30 -8 -56 -14 -58 -7 -2 -24 -14 -39 -27 -20 -17 -32 -21 -44 -14 -18 10 -34 -4 -23 -21 3 -5 1 -10 -4 -10 -6 0 -10 -3 -9 -7 1 -5 -1 -27 -5 -50 -5 -28 -12 -43 -22 -43 -8 0 -15 -7 -15 -16 0 -9 -8 -22 -17 -29 -11 -9 -18 -31 -20 -73 -4 -63 7 -83 32 -62 11 9 11 16 -3 40 -24 41 -10 46 29 9 27 -26 35 -29 37 -15 2 9 8 13 14 9 7 -4 9 0 5 9 -3 9 0 21 6 27 13 13 10 16 -21 26 -21 6 -23 4 -17 -17 6 -22 5 -22 -9 -4 -9 11 -14 30 -11 44 6 33 34 74 45 67 13 -8 13 1 1 24 -12 21 -3 63 11 55 5 -3 24 -3 42 0 29 6 34 12 50 62 10 31 28 76 41 101 31 56 42 128 24 149 -7 9 -9 18 -3 22 10 8 12 37 3 46 -3 3 -13 -4 -22 -14z"/>
<path d="M1151 1481 c-33 -41 -30 -51 17 -65 17 -6 22 -3 22 11 0 13 3 14 8 5 6 -9 21 -10 62 -2 29 5 54 10 56 10 2 0 1 7 -2 15 -4 10 -16 14 -33 13 -20 -2 -25 1 -23 15 2 11 -6 21 -23 27 -42 16 -51 12 -84 -29z"/>
<path d="M1434 1485 c-14 -44 -3 -55 57 -55 l47 0 -19 39 c-15 32 -39 50 -69 51 -3 0 -10 -16 -16 -35z"/>
<path d="M1473 1353 c4 -3 7 -11 7 -19 0 -8 2 -14 4 -14 2 0 11 -3 19 -6 12 -4 14 0 10 15 -3 12 -9 21 -13 21 -5 0 -14 2 -22 3 -7 2 -10 2 -5 0z"/>
<path d="M1741 1198 c-1 -18 -7 -28 -16 -28 -8 0 -15 -7 -15 -16 0 -10 -5 -14 -15 -10 -9 3 -18 -1 -21 -9 -4 -8 -14 -15 -23 -15 -18 0 -83 -31 -106 -50 -8 -7 -15 -21 -15 -30 0 -10 -6 -21 -12 -23 -10 -4 -10 -6 0 -6 21 -1 3 -21 -19 -21 -10 0 -19 -7 -19 -15 0 -17 31 -20 46 -5 7 7 21 7 43 -1 18 -6 50 -9 72 -6 36 5 39 4 28 -11 -7 -10 -1 -6 14 8 44 42 56 50 69 48 10 -2 12 13 10 61 -3 50 -1 62 10 56 7 -3 5 0 -6 9 -10 8 -15 19 -12 24 3 5 1 22 -4 38 l-8 29 -1 -27z"/>
<path d="M959 1153 c-17 -82 -20 -133 -9 -173 15 -55 22 -120 21 -180 -2 -56 17 -118 41 -136 19 -14 115 -37 127 -30 5 4 13 2 16 -4 4 -7 11 -7 18 -2 7 5 30 7 52 6 103 -9 129 -13 203 -36 l33 -10 -22 -19 c-18 -15 -20 -21 -9 -34 7 -8 21 -15 31 -15 10 0 30 -5 43 -12 35 -15 103 5 117 35 6 12 21 40 34 62 13 22 24 48 24 58 1 9 6 17 11 17 6 0 10 10 10 23 0 16 3 18 9 9 5 -9 8 0 7 25 -1 36 -3 38 -31 36 -87 -7 -173 -22 -198 -34 -17 -8 -31 -9 -35 -3 -4 5 -41 9 -82 8 -115 0 -132 -3 -124 -16 5 -7 3 -8 -6 -3 -8 5 -50 10 -94 11 -45 2 -83 3 -86 3 -10 2 -60 52 -60 61 0 6 7 10 15 10 18 0 19 12 4 27 -14 14 -7 69 9 66 19 -4 14 7 -10 27 -23 18 -23 18 34 15 32 -2 60 1 63 6 4 5 14 9 24 9 15 0 18 7 16 42 -2 42 -30 78 -61 78 -25 0 -84 44 -84 63 0 9 -4 17 -10 17 -5 0 -10 9 -10 19 0 44 -19 27 -31 -26z"/>
<path d="M1251 1121 c-36 -10 -36 -27 -2 -47 17 -10 31 -25 31 -34 0 -12 -2 -12 -9 -2 -6 11 -11 10 -25 -3 -18 -19 -13 -35 12 -35 18 0 52 -78 52 -118 0 -14 8 -21 28 -25 15 -3 30 -2 34 2 4 3 10 49 13 101 7 104 15 127 47 132 12 2 23 8 25 14 5 15 -33 24 -77 18 -54 -7 -74 -8 -90 -2 -8 3 -26 3 -39 -1z"/>
<path d="M1855 1120 c-5 -9 -4 -11 3 -6 15 9 15 -9 2 -35 -7 -13 -7 -19 0 -19 5 0 10 7 10 15 0 18 16 20 23 3 4 -9 6 -9 6 -2 1 7 -7 22 -17 35 -15 17 -21 19 -27 9z"/>
<path d="M1773 1096 c4 -10 7 -22 7 -27 0 -5 5 -9 11 -9 15 0 7 43 -10 48 -10 3 -12 0 -8 -12z"/>
<path d="M1981 1050 c-7 -3 -9 -14 -5 -23 12 -31 -7 -37 -31 -9 -28 33 -38 26 -30 -22 5 -26 12 -36 26 -36 10 0 21 -4 24 -10 3 -5 11 -10 17 -10 7 0 7 4 0 13 -9 10 -6 17 8 30 11 9 20 25 20 36 0 11 6 21 12 23 7 3 3 7 -9 10 -11 3 -26 2 -32 -2z"/>
<path d="M1420 1035 c0 -17 2 -18 24 -9 23 9 20 24 -4 24 -11 0 -20 -7 -20 -15z"/>
<path d="M841 976 c-7 -8 -11 -23 -8 -33 3 -14 6 -12 16 11 13 33 9 43 -8 22z"/>
<path d="M747 233 c-24 -6 -18 -35 11 -49 12 -6 20 -13 18 -15 -3 -2 11 -4 29 -3 24 1 43 -6 64 -25 17 -15 28 -31 23 -35 -4 -4 -2 -7 3 -5 19 4 75 -14 69 -22 -3 -5 2 -9 11 -9 10 0 14 5 9 13 -6 10 -4 10 7 0 7 -7 37 -13 65 -13 29 0 56 -4 59 -10 3 -5 24 -10 45 -10 21 0 42 -4 45 -10 3 -5 12 -10 18 -10 8 0 7 3 -2 9 -11 7 -10 10 5 14 10 2 -2 5 -28 6 -46 1 -116 26 -130 46 -4 6 -13 2 -21 -9 -13 -18 -15 -18 -65 6 -28 14 -49 21 -46 16 14 -22 -18 -3 -54 32 -22 22 -49 40 -61 40 -15 0 -21 6 -21 23 -1 20 -2 20 -11 5 -14 -24 -28 -23 -22 2 3 11 4 19 2 19 -2 -1 -12 -3 -22 -6z"/>
</g>
<g id="layer108" fill="#bcb0a5" stroke="none">
<path d="M1391 2513 c0 -6 -9 -14 -19 -17 -11 -4 -22 -24 -30 -58 -14 -60 -42 -104 -66 -102 -9 1 -13 -2 -10 -7 3 -5 -1 -9 -9 -9 -13 0 -208 -189 -228 -222 -13 -20 -11 -58 4 -58 7 0 22 -7 33 -15 16 -13 17 -16 4 -25 -20 -13 -1 -13 39 1 18 6 34 9 36 7 3 -3 -11 -22 -30 -43 -19 -22 -33 -41 -31 -43 2 -2 25 4 50 12 100 34 298 13 450 -49 79 -32 176 -87 201 -116 10 -10 24 -19 32 -19 8 0 11 -4 8 -10 -3 -5 -1 -10 4 -10 23 0 10 36 -26 72 -31 31 -34 38 -20 44 10 3 24 1 32 -6 12 -10 15 -9 15 6 0 16 2 16 10 4 17 -27 19 -4 5 50 -8 29 -12 57 -9 62 3 4 -2 16 -11 25 -9 9 -14 24 -12 34 3 11 -8 37 -26 61 -31 45 -137 168 -173 203 -11 11 -29 32 -39 48 -16 25 -19 26 -30 11 -16 -23 -97 -35 -114 -16 -7 7 -17 48 -22 90 -10 82 -16 114 -18 95z m-128 -460 c-13 -2 -33 -2 -45 0 -13 2 -3 4 22 4 25 0 35 -2 23 -4z m133 -33 c88 -16 107 -20 101 -26 -3 -3 -49 2 -104 10 -54 9 -114 17 -133 19 -23 3 -15 4 21 5 30 1 82 -3 115 -8z"/>
<path d="M1864 2504 c3 -9 6 -18 6 -20 0 -2 9 -4 20 -4 18 0 19 3 10 20 -13 24 -45 28 -36 4z"/>
<path d="M1953 2500 c26 -20 47 -26 47 -12 0 8 -48 32 -63 32 -5 0 2 -9 16 -20z"/>
<path d="M2084 2511 c-5 -5 -18 -11 -29 -14 l-20 -5 20 -1 c22 -1 52 15 44 23 -3 3 -10 2 -15 -3z"/>
<path d="M1470 2410 c0 -53 12 -62 34 -27 12 19 -2 68 -21 75 -9 2 -13 -11 -13 -48z"/>
<path d="M2877 2365 c-9 -19 -15 -35 -12 -35 7 0 37 61 33 66 -3 2 -12 -12 -21 -31z"/>
<path d="M2794 2293 c-15 -49 -25 -63 -44 -63 -11 0 -20 -6 -20 -14 0 -8 -5 -16 -10 -18 -6 -2 -12 -13 -12 -24 -1 -12 -9 -21 -17 -20 -8 1 -20 -9 -26 -21 -13 -26 -25 -20 -26 11 0 19 -1 19 -10 -3 -14 -35 -39 -50 -84 -52 -34 -1 -36 -2 -15 -8 23 -7 22 -9 -17 -20 -24 -6 -43 -16 -43 -21 0 -6 -7 -10 -15 -10 -8 0 -15 -5 -15 -11 0 -7 10 -9 25 -7 21 4 25 1 25 -19 0 -23 -1 -24 -17 -7 -17 16 -18 16 -21 1 -2 -9 -10 -17 -18 -17 -9 0 -12 -5 -8 -12 5 -8 -3 -9 -30 -5 -27 4 -36 3 -33 -6 2 -7 11 -12 20 -12 34 0 26 -13 -13 -19 -22 -3 -40 -12 -40 -19 0 -14 -71 -90 -116 -125 l-29 -22 35 16 c19 9 44 24 55 33 31 26 129 83 250 145 101 51 114 61 161 123 103 136 124 173 121 209 -2 38 -5 42 -13 17z"/>
<path d="M160 2270 c0 -23 46 -117 63 -130 25 -17 24 -17 159 -94 57 -33 121 -71 143 -86 22 -15 66 -41 99 -59 78 -41 142 -100 138 -127 -3 -20 61 -94 80 -94 4 0 8 -22 8 -49 0 -37 6 -57 23 -76 l22 -26 0 67 -1 66 -63 57 c-38 34 -61 62 -57 69 4 7 -10 27 -33 48 -37 33 -101 141 -101 170 0 6 -7 14 -15 18 -8 3 -15 15 -15 27 0 19 -4 21 -40 16 -38 -5 -40 -3 -52 29 -6 19 -17 34 -23 34 -21 0 -38 -18 -32 -34 4 -9 2 -16 -3 -16 -6 0 -10 5 -10 11 0 8 -5 7 -16 -2 -13 -11 -17 -10 -25 4 -6 9 -21 17 -34 17 -14 0 -34 8 -44 18 -39 35 -50 42 -66 42 -9 0 -14 4 -11 9 4 5 -10 19 -29 31 -19 12 -42 31 -50 43 -8 12 -15 19 -15 17z"/>
<path d="M450 2145 c0 -8 5 -15 10 -15 6 0 10 7 10 15 0 8 -4 15 -10 15 -5 0 -10 -7 -10 -15z"/>
<path d="M785 2031 c-6 -11 15 -61 27 -61 4 0 8 -8 8 -17 0 -13 3 -14 12 -5 9 9 9 18 0 37 -8 18 -8 25 -1 25 8 0 7 5 -1 15 -14 17 -36 20 -45 6z"/>
<path d="M775 1899 c-4 -5 -4 -27 0 -47 7 -35 7 -36 19 -14 7 12 16 19 20 15 5 -4 3 3 -4 17 -13 24 -12 24 5 10 11 -9 16 -10 11 -3 -12 21 -44 35 -51 22z"/>
<path d="M2170 1855 c0 -9 -6 -18 -13 -21 -8 -3 -20 -21 -27 -40 -8 -20 -23 -37 -35 -40 -16 -4 -21 -11 -18 -27 3 -15 -8 -36 -32 -64 -22 -26 -35 -50 -32 -60 4 -15 5 -15 6 2 2 18 3 18 16 -5 l15 -25 -6 26 c-4 21 3 39 31 78 20 28 41 51 46 51 15 0 58 53 59 71 0 8 5 20 12 27 7 7 8 12 4 12 -5 0 -3 7 4 15 10 13 9 15 -9 15 -12 0 -21 -6 -21 -15z"/>
<path d="M1988 1503 c-6 -16 -26 -43 -42 -62 l-31 -34 31 22 c34 24 82 101 64 101 -6 0 -16 -12 -22 -27z"/>
<path d="M911 1503 c17 -22 42 -42 51 -43 3 0 -7 14 -24 30 -32 33 -48 40 -27 13z"/>
<path d="M1020 1458 c-1 -2 -2 -28 -4 -58 -2 -30 -9 -56 -15 -58 -7 -2 -24 -14 -39 -27 -20 -17 -32 -21 -44 -14 -18 10 -34 -4 -23 -21 3 -5 1 -10 -4 -10 -6 0 -10 -3 -9 -7 1 -5 -1 -27 -5 -50 -5 -28 -12 -43 -22 -43 -8 0 -15 -7 -15 -15 0 -8 -8 -23 -19 -34 -24 -24 -25 -136 -1 -136 16 0 17 22 4 64 -6 21 -4 23 10 18 25 -10 40 2 26 19 -9 10 -6 23 12 56 14 24 30 42 36 41 14 -4 15 3 3 26 -13 24 -3 61 15 54 34 -13 60 6 83 62 27 66 39 135 22 135 -6 0 -11 -1 -11 -2z"/>
<path d="M1298 1066 c9 -20 17 -34 19 -33 6 7 -14 61 -24 64 -7 3 -4 -10 5 -31z"/>
<path d="M977 1050 c-8 -29 13 -66 44 -77 22 -9 29 -8 33 4 11 27 6 49 -14 71 -26 27 -56 28 -63 2z"/>
<path d="M1981 1050 c-7 -3 -9 -14 -5 -23 12 -31 -7 -37 -31 -9 l-24 27 -1 -42 c0 -36 3 -43 19 -43 11 0 23 -4 26 -10 3 -5 11 -10 17 -10 7 0 7 4 0 13 -9 10 -6 17 8 30 11 9 20 25 20 36 0 11 6 21 12 23 7 3 3 7 -9 10 -11 3 -26 2 -32 -2z"/>
<path d="M790 965 c0 -8 -4 -15 -10 -15 -5 0 -10 -7 -10 -15 0 -8 -8 -15 -17 -15 -12 0 -14 -3 -6 -8 8 -5 3 -11 -13 -19 -15 -7 -24 -7 -24 -1 0 5 -5 8 -12 6 -13 -5 -25 -39 -37 -111 -7 -41 -6 -49 10 -58 10 -5 16 -16 13 -24 -4 -8 -10 -12 -15 -9 -9 5 -13 -9 -10 -35 2 -7 -2 -10 -7 -7 -6 4 -6 -10 -1 -37 14 -64 30 -107 38 -107 5 0 7 -18 5 -41 -1 -23 0 -38 3 -35 7 7 33 -13 33 -24 0 -5 -8 -11 -17 -13 -16 -4 -16 -5 -1 -6 13 -1 15 -6 9 -29 -5 -16 -14 -38 -21 -49 -8 -13 -10 -28 -5 -39 5 -11 9 -23 9 -28 1 -5 7 -11 15 -14 8 -3 11 0 8 5 -3 5 7 8 23 7 22 -1 29 3 33 22 5 28 0 30 -25 7 -18 -16 -18 -16 -12 0 3 9 11 17 16 17 6 0 8 6 5 14 -3 8 3 22 13 31 28 25 14 38 -21 20 -16 -9 -29 -12 -29 -8 1 14 27 43 39 43 8 0 8 6 -1 20 -7 11 -19 20 -26 20 -8 0 -11 10 -9 27 2 16 -5 41 -15 58 -10 16 -18 42 -18 58 0 15 -9 43 -19 63 l-20 36 28 27 c25 24 27 28 15 51 -8 14 -14 19 -14 11 0 -8 -3 -12 -6 -9 -8 9 46 111 67 125 20 15 59 75 59 92 0 6 -4 11 -10 11 -5 0 -10 -7 -10 -15z"/>
<path d="M838 974 c-5 -4 -8 -16 -8 -28 0 -14 3 -17 11 -9 6 6 9 19 7 28 -1 9 -6 13 -10 9z"/>
<path d="M2010 930 c0 -6 -5 -8 -11 -4 -6 3 -4 -5 5 -19 10 -14 30 -31 47 -37 23 -10 27 -15 18 -26 -6 -8 -9 -21 -5 -29 7 -18 4 -18 -29 -3 -19 8 -29 8 -37 0 -8 -8 -2 -13 23 -20 32 -10 32 -10 7 -11 -36 -1 -43 -16 -17 -34 l21 -15 -21 -12 c-12 -6 -19 -15 -16 -21 4 -5 0 -16 -8 -23 -11 -11 -13 -37 -11 -110 4 -80 1 -104 -17 -148 -19 -46 -24 -65 -28 -101 -1 -4 -4 -6 -9 -5 -4 2 -43 -26 -86 -62 -43 -36 -82 -65 -85 -65 -3 0 -24 -13 -45 -30 -44 -34 -115 -63 -95 -39 16 19 -13 19 -51 -1 -16 -8 -52 -20 -81 -26 -28 -6 -59 -19 -68 -28 -18 -17 -23 -19 -81 -32 l-35 -8 35 3 c44 5 73 12 97 24 39 20 71 22 87 6 9 -8 16 -11 16 -5 0 6 9 11 20 11 31 0 231 97 263 128 16 15 33 37 38 50 5 13 17 22 29 22 12 0 19 4 16 9 -3 5 1 12 10 15 8 3 13 2 10 -3 -5 -8 23 -26 29 -19 9 12 12 68 5 73 -14 8 -13 26 1 23 20 -5 50 65 48 113 -2 25 1 50 4 57 4 6 3 32 -3 58 -10 44 -9 49 15 74 14 14 22 31 18 36 -5 5 1 1 12 -8 14 -11 25 -14 35 -8 12 7 11 13 -8 33 -28 30 -28 39 1 35 19 -3 22 2 22 30 0 21 4 31 12 28 39 -15 9 36 -39 67 -16 9 -28 22 -28 28 0 6 -7 17 -15 25 -9 9 -15 11 -15 4z"/>
<path d="M747 233 c-24 -6 -18 -35 11 -49 12 -6 20 -13 18 -15 -3 -2 11 -4 29 -3 24 1 43 -6 64 -25 17 -15 28 -31 23 -35 -4 -4 -2 -7 3 -5 19 4 75 -14 69 -22 -3 -5 2 -9 11 -9 10 0 14 5 9 13 -6 10 -4 10 7 0 7 -7 37 -13 65 -13 29 0 56 -4 59 -10 3 -5 24 -10 45 -10 21 0 42 -4 45 -10 3 -5 12 -10 18 -10 8 0 7 3 -2 9 -11 7 -10 10 5 14 10 2 -2 5 -28 6 -45 1 -119 27 -127 44 -1 5 -11 1 -21 -8 -17 -15 -22 -15 -69 8 -27 13 -48 20 -45 15 14 -22 -18 -3 -54 32 -22 22 -49 40 -61 40 -15 0 -21 6 -21 23 -1 20 -2 20 -11 5 -14 -24 -28 -23 -22 2 3 11 4 19 2 19 -2 -1 -12 -3 -22 -6z"/>
<path d="M1680 165 c-7 -8 -8 -15 -2 -15 5 0 15 7 22 15 7 8 8 15 2 15 -5 0 -15 -7 -22 -15z"/>
</g>


</svg>