<?xml version="1.0" encoding="UTF-8" standalone="no"?>
<!DOCTYPE svg PUBLIC "-//W3C//DTD SVG 1.1//EN" "http://www.w3.org/Graphics/SVG/1.1/DTD/svg11.dtd">
<svg version="1.1" xmlns="http://www.w3.org/2000/svg" xmlns:xlink="http://www.w3.org/1999/xlink" preserveAspectRatio="xMidYMid meet" viewBox="0 0 640 640" width="640" height="640"><defs><path d="M105.49 396.13C105.49 396.13 105.49 396.13 105.49 396.13C105.49 425.44 105.49 441.73 105.49 444.98C105.49 444.98 105.49 444.98 105.49 444.98C95.83 444.98 90.46 444.98 89.39 444.98C89.39 444.98 89.39 444.98 89.39 444.98C89.39 415.67 89.39 399.39 89.39 396.13C89.39 396.13 89.39 396.13 89.39 396.13C99.05 396.13 104.42 396.13 105.49 396.13Z" id="hrXy25PDa"></path><path d="M538.74 393.59C538.74 393.59 538.74 393.59 538.74 393.59C538.74 424.6 538.74 441.83 538.74 445.27C538.74 445.27 538.74 445.27 538.74 445.27C529.08 445.27 523.72 445.27 522.64 445.27C522.64 445.27 522.64 445.27 522.64 445.27C522.64 414.26 522.64 397.03 522.64 393.59C522.64 393.59 522.64 393.59 522.64 393.59C532.3 393.59 537.67 393.59 538.74 393.59Z" id="a1dB2BmmyB"></path><path d="M641.41 634.07L512.69 635.26L511.31 635.28L462.39 635.73L461.22 635.75L446.35 635.87L445.91 635.87L355.27 636.71L206.47 638.09L206.34 638.09L168.51 638.45L168.11 638.46L0 640L0 627.29L39.53 603.57L118.83 602.91L120.53 602.9L121.09 602.89L122.78 602.86L160.86 602.55L162.56 602.54L163.11 602.53L164.8 602.52L177.01 602.42L177.33 602.41L207.45 602.16L207.7 602.16L442.74 600.18L448.49 600.13L449.07 600.13L453.46 600.09L485.36 599.83L487.06 599.8L488.62 599.79L489.44 599.79L499.36 599.71L501.32 599.69L503.96 599.67L512.22 599.59L525.33 599.48L527.02 599.46L529.97 599.45L530.52 599.45L593.82 598.91L641.41 623.05L641.41 623.05L641.41 634.07Z" id="b3Tw1Xxpkt"></path><path d="M641.41 634.07L512.69 635.26L511.31 635.28L462.39 635.73L461.22 635.75L446.35 635.87L445.91 635.87L355.27 636.71L206.47 638.09L206.34 638.09L168.51 638.45L168.11 638.46L0 640L0 627.29L39.53 603.57L118.83 602.91L120.53 602.9L121.09 602.89L122.78 602.86L160.86 602.55L162.56 602.54L163.11 602.53L164.8 602.52L177.01 602.42L177.33 602.41L207.45 602.16L207.7 602.16L442.74 600.18L448.49 600.13L449.07 600.13L453.46 600.09L485.36 599.83L487.06 599.8L488.62 599.79L489.44 599.79L499.36 599.71L501.32 599.69L503.96 599.67L512.22 599.59L525.33 599.48L527.02 599.46L529.97 599.45L530.52 599.45L593.82 598.91L641.41 623.05L641.41 623.05L641.41 634.07Z" id="d2MJ5KNzBh"></path><path d="M160.99 580.7C160.99 593.15 160.99 600.06 160.99 601.45C160.99 603.45 159.83 605.28 158.02 606.14C157.36 606.46 156.64 606.64 155.9 606.65C152.95 606.71 129.29 607.21 126.33 607.28C125.54 607.3 124.76 607.13 124.05 606.79C122.2 605.95 121.02 604.1 121.02 602.07C121.02 600.65 121.02 593.52 121.02 580.7L160.99 580.7Z" id="g1khOKmypU"></path><path d="M160.99 580.7C160.99 593.15 160.99 600.06 160.99 601.45C160.99 603.45 159.83 605.28 158.02 606.14C157.36 606.46 156.64 606.64 155.9 606.65C152.95 606.71 129.29 607.21 126.33 607.28C125.54 607.3 124.76 607.13 124.05 606.79C122.2 605.95 121.02 604.1 121.02 602.07C121.02 600.65 121.02 593.52 121.02 580.7L160.99 580.7Z" id="akAsbb1HL"></path><path d="M162.68 580.7C162.68 593.15 162.68 600.06 162.68 601.45C162.68 603.45 161.53 605.28 159.72 606.14C159.06 606.46 158.33 606.64 157.6 606.65C154.64 606.71 130.98 607.21 128.03 607.28C127.24 607.3 126.45 607.13 125.74 606.79C123.89 605.95 122.71 604.1 122.71 602.07C122.71 600.65 122.71 593.52 122.71 580.7L162.68 580.7Z" id="cJlY6rzyi"></path><path d="M527.02 580.7C527.02 580.7 527.02 580.7 527.02 580.7C527.02 596.71 527.02 605.61 527.02 607.39C527.02 607.39 527.02 607.39 527.02 607.39C503.04 607.39 489.72 607.39 487.06 607.39C487.06 607.39 487.06 607.39 487.06 607.39C487.06 591.37 487.06 582.48 487.06 580.7C487.06 580.7 487.06 580.7 487.06 580.7C511.04 580.7 524.36 580.7 527.02 580.7Z" id="b2qKpu3HD4"></path><path d="M527.02 580.7C527.02 580.7 527.02 580.7 527.02 580.7C527.02 596.71 527.02 605.61 527.02 607.39C527.02 607.39 527.02 607.39 527.02 607.39C503.04 607.39 489.72 607.39 487.06 607.39C487.06 607.39 487.06 607.39 487.06 607.39C487.06 591.37 487.06 582.48 487.06 580.7C487.06 580.7 487.06 580.7 487.06 580.7C511.04 580.7 524.36 580.7 527.02 580.7Z" id="c2LQAE0GLd"></path><path d="M525.33 580.7C525.33 580.7 525.33 580.7 525.33 580.7C525.33 596.71 525.33 605.61 525.33 607.39C525.33 607.39 525.33 607.39 525.33 607.39C501.35 607.39 488.03 607.39 485.36 607.39C485.36 607.39 485.36 607.39 485.36 607.39C485.36 591.37 485.36 582.48 485.36 580.7C485.36 580.7 485.36 580.7 485.36 580.7C509.34 580.7 522.66 580.7 525.33 580.7Z" id="c1wWRX2BML"></path><path d="M105.49 400.98L89.39 400.56L89.39 396.12L105.49 396.12L105.49 396.12L105.49 400.98Z" id="c2NOOHdDuS"></path><path d="M192.11 398.31C191.86 400.14 190.26 401.5 188.41 401.45C178.08 401.18 126.45 399.84 33.52 397.43C31.76 397.39 30.78 397.36 30.58 397.36C28.57 397.31 26.98 395.64 27.02 393.63C27.03 393.5 27.04 393.36 27.05 393.23C29.23 378.68 46.6 262.31 48.77 247.77C49.06 245.9 50.73 244.56 52.62 244.69C68.16 245.74 192.52 254.16 208.06 255.21C210.07 255.33 211.6 257.05 211.48 259.05C211.48 259.15 211.47 259.25 211.45 259.35C207.58 287.14 194.04 384.41 192.11 398.31Z" id="b4Gsyba63H"></path><path d="M42.79 383.13L185.14 387.65L202.64 263.94L59.17 254.91L59.17 254.91L42.79 383.13Z" id="h6prOuLpK"></path><path d="M404.88 252.93C407.89 252.93 409.39 254.43 409.39 257.44C409.39 340.14 409.39 386.08 409.39 395.27C409.39 398.28 407.89 399.79 404.88 399.79C306.24 399.79 251.45 399.79 240.49 399.79C237.48 399.79 235.97 398.28 235.97 395.27C235.97 312.57 235.97 266.63 235.97 257.44C235.97 254.43 237.48 252.93 240.49 252.93C339.12 252.93 393.92 252.93 404.88 252.93Z" id="anJzR3Srq"></path><path d="M401.76 262.81C401.76 262.81 401.76 262.81 401.76 262.81C401.76 336.19 401.76 376.95 401.76 385.11C401.76 385.11 401.76 385.11 401.76 385.11C307.2 385.11 254.67 385.11 244.16 385.11C244.16 385.11 244.16 385.11 244.16 385.11C244.16 311.73 244.16 270.97 244.16 262.81C244.16 262.81 244.16 262.81 244.16 262.81C338.72 262.81 391.25 262.81 401.76 262.81Z" id="b1YuoNMbMD"></path><path d="M538.74 396.79L522.64 397.12L522.64 393.58L538.74 393.58L538.74 393.58L538.74 396.79Z" id="h5mEPxksmc"></path><path d="M611.38 390.87C611.47 392.31 610.38 393.55 608.95 393.64C608.91 393.64 608.87 393.65 608.84 393.65C592.98 393.97 466.08 396.6 450.22 396.93C448.86 396.95 447.7 395.92 447.57 394.56C446.21 380.39 435.3 267 433.94 252.82C433.8 251.39 434.85 250.12 436.29 249.98C436.33 249.97 436.37 249.97 436.41 249.97C446.91 249.45 499.38 246.84 593.82 242.14C594.84 242.09 595.41 242.06 595.52 242.06C596.92 241.98 598.13 243.03 598.25 244.43C600.87 273.72 608.75 361.58 611.38 390.87Z" id="adYsEF54L"></path><path d="M586.76 251.23L598.9 380.02L456.27 383.41L443 258.3L443 258.3L586.76 251.23Z" id="asXVMvfYZ"></path><path d="M611.38 390.87C611.47 392.31 610.38 393.55 608.95 393.64C608.91 393.64 608.87 393.65 608.84 393.65C607.84 383.55 602.83 333.04 593.82 242.14C594.84 242.09 595.41 242.06 595.52 242.06C596.92 241.98 598.13 243.03 598.25 244.43C600.87 273.72 608.75 361.58 611.38 390.87Z" id="cfV5OfrGI"></path><path d="M33.52 397.43C31.76 397.39 30.78 397.36 30.58 397.36C28.57 397.31 26.98 395.64 27.02 393.63C27.03 393.5 27.04 393.36 27.05 393.23C29.23 378.68 46.6 262.31 48.77 247.77C49.06 245.88 50.74 244.54 52.64 244.68C52.64 244.68 46.27 295.6 33.52 397.43Z" id="ci9eLrer"></path><path d="M105.49 430.51C105.49 430.51 105.49 430.51 105.49 430.51C105.49 439.2 105.49 444.02 105.49 444.98C105.49 444.98 105.49 444.98 105.49 444.98C95.83 444.98 90.46 444.98 89.39 444.98C89.39 444.98 89.39 444.98 89.39 444.98C89.39 436.3 89.39 431.48 89.39 430.51C89.39 430.51 89.39 430.51 89.39 430.51C99.05 430.51 104.42 430.51 105.49 430.51Z" id="awChIld8P"></path><path d="M162.68 584.9L122.71 585.97L122.71 580.69L162.68 580.69L162.68 580.69L162.68 584.9Z" id="f4Zfy3v5fT"></path><path d="M233.22 578.07C233.2 579.88 231.76 581.35 229.96 581.42C219.13 581.71 165 583.15 67.57 585.74C67.55 585.74 67.53 585.74 67.53 585.74C65.69 585.72 64.21 584.23 64.18 582.39C64.18 567.71 64.18 450.24 64.18 435.55C64.21 433.72 65.69 432.23 67.53 432.21C83.76 432.21 213.64 432.21 229.87 432.21C231.71 432.23 233.2 433.72 233.22 435.55C233.22 464.06 233.22 563.82 233.22 578.07Z" id="bwLF9SrwI"></path><path d="M67.57 585.74C67.55 585.74 67.53 585.74 67.53 585.74C65.69 585.72 64.21 584.23 64.18 582.39C64.18 567.71 64.18 450.24 64.18 435.55C64.21 433.72 65.69 432.23 67.53 432.21C67.54 432.21 67.55 483.38 67.57 585.74Z" id="b1DR9qhjnp"></path><path d="M225.38 441.31L225.38 566.92L74.99 570.31L74.99 441.31L74.99 441.31L225.38 441.31Z" id="b1JX8Fv1J2"></path><path d="M538.74 430.51C538.74 430.51 538.74 430.51 538.74 430.51C538.74 439.37 538.74 444.29 538.74 445.27C538.74 445.27 538.74 445.27 538.74 445.27C529.08 445.27 523.72 445.27 522.64 445.27C522.64 445.27 522.64 445.27 522.64 445.27C522.64 436.42 522.64 431.5 522.64 430.51C522.64 430.51 522.64 430.51 522.64 430.51C532.3 430.51 537.67 430.51 538.74 430.51Z" id="c2oNGoMEa"></path><path d="M525.33 586.12L485.36 585.05L485.36 580.69L525.33 580.69L525.33 580.69L525.33 586.12Z" id="a4H40sIF2"></path><path d="M578.07 582.39C578.05 584.25 576.54 585.74 574.68 585.74C574.68 585.74 574.68 585.74 574.68 585.74C477.23 583.15 423.09 581.71 412.26 581.42C410.46 581.35 409.02 579.88 409 578.07C409 563.82 409 449.81 409 435.55C409.02 433.72 410.51 432.23 412.35 432.21C428.58 432.21 558.46 432.21 574.69 432.21C576.54 432.21 578.05 433.7 578.07 435.55C578.07 464.92 578.07 567.71 578.07 582.39Z" id="b3Xi5AmJHS"></path><path d="M578.07 582.39C578.05 584.25 576.54 585.74 574.68 585.74C574.68 585.74 574.68 585.74 574.68 585.74L574.68 432.21C574.68 432.21 574.68 432.21 574.68 432.21C576.54 432.21 578.05 433.7 578.07 435.55C578.07 464.92 578.07 567.71 578.07 582.39Z" id="a2tqB25aAm"></path><path d="M416.87 441.31L416.87 566.92L567.27 570.31L567.27 441.31L567.27 441.31L416.87 441.31Z" id="apCQLpt8O"></path><path d="M404.8 578.07C404.78 579.88 403.34 581.35 401.54 581.42C390.71 581.71 336.58 583.15 239.15 585.74C239.15 585.74 239.15 585.74 239.15 585.74C237.3 585.74 235.79 584.25 235.76 582.39C235.76 567.71 235.76 450.24 235.76 435.55C235.79 433.72 237.27 432.23 239.11 432.21C255.34 432.21 385.22 432.21 401.45 432.21C403.29 432.23 404.78 433.72 404.8 435.55C404.8 464.06 404.8 563.82 404.8 578.07Z" id="bJWJ2lxPH"></path><path d="M396.96 441.31L396.96 566.92L246.57 570.31L246.57 441.31L246.57 441.31L396.96 441.31Z" id="bXlC7ia9F"></path><path d="M641.41 634.07L512.69 635.26L511.31 635.28L462.39 635.73L461.22 635.75L446.35 635.87L445.91 635.87L355.27 636.71L206.47 638.09L206.34 638.09L168.51 638.45L168.11 638.46L0 640L0 627.29L171.59 626.16L171.99 626.16L206.73 625.93L206.89 625.93L446.74 624.34L446.99 624.34L447.13 624.33L447.53 624.33L451.59 624.31L452.82 624.31L515.94 623.88L519.67 623.87L520.5 623.86L641.41 623.05L641.41 623.05L641.41 634.07Z" id="aHy5JgfEy"></path><path d="M322.96 358C298.94 358 279.47 377.47 279.47 401.49C279.47 425.51 298.94 444.98 322.96 444.98C346.98 444.98 366.45 425.51 366.45 401.49C366.45 377.47 346.98 358 322.96 358Z" id="b2bMGZtbq4"></path><path d="M168.02 638.75C168.02 638.66 168.07 638.56 168.11 638.46C168.95 635.42 170.46 630.27 171.59 626.16C171.73 625.66 171.87 625.16 171.99 624.68C173.24 620.05 175.66 609.19 177.01 602.42C177.48 600.04 177.86 598.19 177.93 597.25C178.1 595.82 180.65 589.7 183.54 582.65C185.57 577.71 187.78 572.3 189.4 567.74C190.46 565.03 191.29 562.24 191.88 559.4C192.01 558.8 192.01 558.19 191.88 557.59C191.63 556.62 191.49 555.63 191.47 554.63C191.47 554.63 191.47 554.63 191.47 554.63C191.28 549.37 192.85 541.07 195.27 537.59C198.24 533.35 200.35 517.54 200.35 517.54C200.35 517.54 204.74 518.17 205.44 514.55C205.51 514.16 205.54 513.76 205.52 513.36C205.52 513.05 205.49 512.73 205.45 512.42C204.69 507.13 217.92 501.51 225.36 500.3C226.2 500.15 227.05 500.07 227.9 500.06C229.71 499.86 231.48 499.45 233.19 498.84C234.38 498.47 235.48 498.08 235.74 497.99C238.85 496.94 242.58 495.55 246.54 494.03C261.42 488.26 279.43 480.47 279.43 480.47C279.56 479.87 279.7 479.29 279.86 478.72C281.67 471.48 286.81 465.52 293.72 462.68C293.72 462.68 293.72 462.68 293.72 462.68C293.72 462.13 293.72 461.56 293.72 460.99C293.72 458.07 293.59 455.06 293.46 452.06C293.46 451.47 293.41 450.89 293.38 450.31C293.38 450.14 293.38 449.96 293.38 449.79C293.38 449.62 293.38 449.49 293.38 449.35C293.38 448.76 293.32 448.16 293.29 447.58C293.27 447.57 293.15 447.47 293.13 447.46C291.83 446.48 290.71 445.27 289.83 443.9C289.34 443.1 288.93 442.25 288.63 441.36C287.57 438.49 287.32 435.28 286.61 432.25C286.59 432.19 286.47 431.69 286.46 431.62C285.53 428.56 284.4 425.57 283.07 422.66C281.19 418.07 279.75 413.34 278.32 408.55C277.45 405.65 276.57 402.75 275.69 399.84C274.88 397.18 274.44 395.7 274.35 395.4C274.09 394.55 273.84 393.71 273.65 392.86C273.65 392.86 273.65 392.86 273.65 392.86C273.55 392.47 273.48 392.07 273.42 391.67C273.19 390.37 273.26 389.03 273.63 387.77C273.96 386.9 274.33 386.05 274.75 385.22C274.92 384.85 275.07 384.46 275.17 384.05C275.17 384.05 275.17 384.05 275.17 384.05C275.2 383.97 275.22 383.88 275.24 383.78C275.3 383.48 275.33 383.18 275.33 382.87C275.3 381.76 275.15 380.65 274.89 379.57C274.89 379.56 274.89 379.54 274.89 379.53C274.88 379.45 274.87 379.38 274.85 379.3C274.7 378.46 274.59 377.61 274.54 376.76C274.25 372.17 275.27 367.59 277.48 363.57C277.5 363.54 277.63 363.29 277.64 363.26C278.11 362.44 278.63 361.66 279.2 360.91C279.2 360.91 279.2 360.91 279.2 360.91C279.47 360.55 279.74 360.21 280.05 359.87C278.86 361.01 276.92 360.51 275.81 359.29C275.63 359.1 275.48 358.88 275.35 358.65C275.27 358.53 275.21 358.4 275.15 358.27C275.11 358.17 275.08 358.06 275.04 357.95C274.45 355.87 275.48 353.66 276.84 351.98C278.17 350.33 279.83 348.98 281.7 347.99C281.7 347.99 281.7 347.99 281.7 347.99C281.81 347.93 281.93 347.87 282.04 347.82C282.76 347.45 283.51 347.15 284.28 346.92C284.28 346.92 284.28 346.92 284.28 346.92C284.73 346.77 285.19 346.64 285.66 346.54C285.45 346.53 284.4 346.43 282.52 346.26C281.75 346.19 281.33 346.15 281.25 346.14C282.54 341 286.98 337.28 292.26 336.89C292.35 336.89 293.08 336.89 293.18 336.89C293.62 336.9 294.07 336.94 294.51 337C293.06 336.37 292.17 334.91 292.26 333.34C294.48 335.07 297.23 335.99 300.05 335.93C300.08 335.93 300.34 335.93 300.37 335.93C300.22 335.01 300.13 334.09 300.08 333.16C300.08 333.16 300.08 333.16 300.08 333.16C300 331.9 300 330.64 300.08 329.38C301.62 330.84 303.72 331.54 305.83 331.29C305.65 331.05 304.24 329.08 304.06 328.84C305.63 330.09 307.62 330.71 309.62 330.57C309.66 330.57 309.99 330.54 310.03 330.53C310.37 330.5 310.71 330.43 311.04 330.34C311.04 330.34 311.11 330.34 311.11 330.34C310.95 330.13 310.81 329.92 310.66 329.7C310.66 329.69 310.62 329.61 310.61 329.6C310.26 329.04 309.98 328.45 309.77 327.83C309.68 327.59 309.61 327.34 309.56 327.09C309.56 327.09 309.56 327.09 309.56 327.09C309.19 325.55 309.33 323.93 309.94 322.47C312.68 324.76 315.68 327.89 319.26 325.52C322.85 323.16 322.97 318.82 328.58 319.26C331.73 319.56 334.46 321.55 335.71 324.45C337.33 322.61 339.95 322.01 342.21 322.96C344.43 324.02 345.75 326.36 345.5 328.8C347.83 328.22 350.33 327.64 352.57 328.52C354.81 329.4 356.25 332.26 354.98 334.17C354.94 334.23 354.9 334.28 354.86 334.34C353.82 335.68 351.51 336.42 351.76 338.11C351.78 338.13 351.9 338.22 352.11 338.37C352.77 338.85 353.14 339.11 353.22 339.16C359.7 343.84 364.58 348.01 365.84 348.99C367.94 350.76 370.18 352.87 370.32 355.63C370.35 356.3 370.28 356.98 370.12 357.64C370.12 357.64 370.12 357.64 370.12 357.64C369.98 358.3 369.8 358.96 369.65 359.62C369.29 361.3 369.19 363.03 369.37 364.74C369.37 364.74 369.37 364.74 369.37 364.74C369.42 365.24 369.5 365.74 369.59 366.24C370.89 372.79 376.13 378.19 376.64 384.88C376.64 384.92 376.64 385.3 376.64 385.35C376.67 386.07 376.65 386.78 376.58 387.5C376.19 391.56 374.31 395.47 372.79 399.36C372.69 399.59 372.6 399.83 372.52 400.07C369.58 407.69 367.88 415.82 366.59 423.93C366.17 426.81 365.6 429.66 364.89 432.48C364.12 435.7 362.65 438.72 360.58 441.32C359.75 442.29 358.79 443.15 357.73 443.86C357.02 444.32 356.27 444.72 355.49 445.05C355.49 445.05 355.49 445.05 355.49 445.1C355.58 445.62 355.66 446.14 355.75 446.65C355.8 446.92 355.84 447.2 355.89 447.5C355.89 447.5 355.89 447.5 355.89 447.5C355.89 447.52 355.89 447.54 355.89 447.55C356.6 451.56 357.42 455.48 358.27 459.21C358.32 459.4 358.66 460.88 358.71 461.07C369.38 464.92 370.64 472.82 370.72 475.84C370.75 476.25 370.75 476.65 370.72 477.06C370.72 477.06 386.82 477.48 393.17 482.14C394.36 482.95 395.65 483.6 397 484.09C399.56 485.06 402.18 485.87 404.83 486.54C406.2 486.89 407.62 487.24 409.07 487.58C411.61 488.16 414.31 488.73 416.91 489.27C423.85 490.67 430.38 491.82 433.69 492.66C441.6 494.66 459.68 512 459.68 512C459.68 512 461.8 529.49 463.92 532.04C466.03 534.59 469.85 543.55 469.85 543.55C470.78 545.21 475.45 553.52 483.86 568.47L489.79 578.95C492.08 578.95 493.35 578.95 493.61 578.95C494.13 578.95 495.16 579.7 496.33 580.73C497.33 581.63 498.45 582.75 499.43 583.76C499.54 583.88 500.09 584.46 501.06 585.5C501.67 586.18 502.01 586.55 502.08 586.63C502.08 586.63 508.24 586.78 509.91 591.65C514.92 591.51 521.08 591.84 525.4 593.77C525.98 594.03 526.55 594.34 527.09 594.69C528.88 595.72 530.15 597.46 530.59 599.48C530.68 599.88 530.73 600.29 530.74 600.7C530.74 601.19 530.74 601.67 530.74 602.14C530.44 608.56 526.26 613.89 522.42 617.49C522.45 617.54 522.67 617.92 522.69 617.97C522.69 617.97 522.57 618.28 522.32 618.82C522.25 618.98 522.17 619.16 522.07 619.36C522.07 619.36 522.07 619.36 522.07 619.36C521.57 620.43 520.78 622.03 519.74 623.9C517.52 627.95 514.8 631.71 511.63 635.06C511.61 635.08 511.53 635.16 511.38 635.31L462.46 635.76L462.31 635.59L452.82 624.27L448.1 618.65L447.96 618.47L447.83 619.82L447.37 624.31L446.27 635.16L446.21 635.7L446.21 635.85L446.08 637.1L446.17 635.85L445.93 635.85L355.27 636.7L206.46 638.34L206.46 639.05L206.34 639.05L206.34 638.34L168.43 638.75C168.21 638.75 168.07 638.75 168.02 638.75Z" id="bLRDPjret"></path><linearGradient id="gradientgJRsAoqUv" gradientUnits="userSpaceOnUse" x1="349.35" y1="639.05" x2="349.35" y2="318.98"><stop style="stop-color: #808080;stop-opacity: 0.25" offset="0%"></stop><stop style="stop-color: #808080;stop-opacity: 0.12" offset="54%"></stop><stop style="stop-color: #808080;stop-opacity: 0.1" offset="100%"></stop></linearGradient><path d="M290.2 490.46C293.12 486.78 293.92 475.89 293.76 463.47C293.71 459.7 293.57 455.8 293.38 451.91C292.45 433.27 290.2 415.05 290.2 415.05C290.2 415.05 363.92 380.31 355.44 407.85C352.05 418.97 353.16 434.6 355.74 449.26C356.49 453.54 357.37 457.74 358.28 461.72C360.52 471.43 363.24 481.03 366.46 490.46C366.46 490.46 282.15 500.63 290.2 490.46Z" id="b2eCW0Dlq"></path><path d="M290.2 490.46C293.12 486.78 293.92 475.89 293.76 463.47C306.61 457.98 322.97 462.07 322.97 462.07C340.18 458.64 351.22 459.31 358.28 461.72C360.52 471.43 363.24 481.03 366.46 490.46C366.46 490.46 282.15 500.63 290.2 490.46Z" id="ccig589FHH"></path><path d="M206.44 638.34L355.24 636.72L445.9 635.87L446.16 635.87L446.06 637.13L446.19 635.87L446.35 635.87L446.35 635.73L447.51 624.33L447.95 620.02L448.09 618.67L448.21 617.55L453.44 600.08L458.68 582.65L463.09 567.96C467.12 554.5 469.36 547.02 469.81 545.53C469.81 545.53 466 536.63 463.88 534.09C463.88 534.09 459.65 514.18 459.65 514.18C459.65 514.18 441.56 496.95 433.66 494.97C430.35 494.12 423.8 492.99 416.86 491.58C414.26 491.05 411.59 490.49 409.02 489.88C407.57 489.55 406.15 489.21 404.78 488.86C402.13 488.19 399.51 487.39 396.94 486.43C395.6 485.95 394.32 485.29 393.13 484.49C386.9 479.93 371.3 479.41 370.7 479.41C370.7 479.41 370.7 479.41 370.7 479.41C370.69 479.39 370.69 479.37 370.7 479.35C370.7 479.34 370.7 479.28 370.7 479.27C370.72 478.92 370.72 478.56 370.7 478.21C370.7 477.87 370.7 477.47 370.62 477.02C370.62 476.89 370.62 476.74 370.56 476.6C370.52 476.29 370.47 475.97 370.39 475.63C370.36 475.48 370.33 475.33 370.29 475.18C370.04 474.16 369.69 473.17 369.23 472.23C369.17 472.09 369.09 471.95 369.03 471.81C368.61 471.03 368.13 470.28 367.59 469.58C367.48 469.44 367.36 469.29 367.23 469.14C366.54 468.32 365.76 467.57 364.93 466.9C364.7 466.73 364.46 466.54 364.21 466.37C364.08 466.26 363.93 466.16 363.78 466.07C363.73 466.03 363.48 465.87 363.03 465.57C362.61 465.33 362.37 465.19 362.32 465.17C361.71 464.83 361.05 464.5 360.34 464.18C360.12 464.08 359.88 463.99 359.65 463.9C359.41 463.8 359.04 463.66 358.72 463.54C358.72 463.54 358.7 463.54 358.67 463.54C358.29 463.39 358.08 463.3 358.04 463.29C357.55 463.13 357.06 462.98 356.55 462.84C356.49 462.82 356.23 462.76 355.76 462.63L354.91 462.44C354.4 462.33 354.12 462.27 354.06 462.26C353.22 462.09 352.31 461.94 351.36 461.82C351.3 461.81 350.97 461.77 350.39 461.7L349.4 461.6L348.38 461.52L346.92 461.43C345.9 461.4 345.34 461.38 345.23 461.37C337.75 461.37 330.3 462.16 322.99 463.74C317.92 462.61 312.72 462.13 307.52 462.31C307.47 462.31 307.23 462.31 306.78 462.31L305.94 462.36L305.39 462.36C304.74 462.42 304.37 462.46 304.3 462.46C303.94 462.46 303.56 462.54 303.2 462.59C302.83 462.64 302.45 462.68 302.09 462.74C302.03 462.75 301.59 462.83 301.53 462.84C300.98 462.93 300.42 463.03 299.84 463.15C299.56 463.2 299.33 463.27 299.28 463.28C298.54 463.44 297.8 463.63 297.07 463.85C296.71 463.96 296.34 464.07 295.98 464.2C295.79 464.25 295.62 464.32 295.44 464.39C295.4 464.4 295.22 464.47 294.9 464.58L294.36 464.79C293.98 464.95 293.77 465.03 293.73 465.05C293.4 465.18 293.09 465.33 292.78 465.48C292.6 465.56 292.42 465.64 292.25 465.74C292.08 465.83 291.9 465.9 291.74 466C289.83 466.99 288.06 468.24 286.48 469.71C286.45 469.74 286.31 469.87 286.05 470.12C285.8 470.38 285.65 470.53 285.63 470.56C285.48 470.7 285.35 470.85 285.21 471.01C284.66 471.61 284.14 472.25 283.67 472.91C283.53 473.09 283.41 473.27 283.28 473.45C282.74 474.25 282.25 475.07 281.82 475.93C281.71 476.13 281.61 476.34 281.51 476.55C280.82 477.98 280.25 479.47 279.81 481C279.58 481.84 279.42 482.52 279.38 482.69C279.19 483.54 261.44 490.6 246.57 496.33C242.61 497.86 238.88 499.24 235.76 500.28C234.86 500.58 234.01 500.86 233.22 501.13C231.51 501.74 229.73 502.15 227.92 502.35C227.07 502.36 226.22 502.44 225.38 502.58C218.55 503.69 206.83 508.52 205.55 513.35C205.44 513.74 205.41 514.14 205.46 514.54C205.46 514.54 205.46 514.6 205.46 514.63C206.31 520.56 200.38 519.72 200.38 519.72C200.38 519.72 198.26 535.39 195.3 539.63C193.15 542.68 191.69 549.48 191.5 554.62C191.5 554.62 191.5 554.62 191.5 554.62C191.39 556.22 191.52 557.82 191.87 559.39C191.87 559.43 191.87 559.47 191.87 559.51C192.21 560.64 191.4 563.74 190.02 567.72C188.52 572.08 186.33 577.5 184.23 582.62C181.06 590.35 178.08 597.36 177.89 598.91C177.82 599.59 177.59 600.82 177.29 602.41C176.05 608.86 173.31 621.16 171.95 626.13C170.94 629.84 169.48 634.92 168.47 638.42C168.47 638.52 168.41 638.62 168.38 638.71C170.92 638.69 183.58 638.56 206.37 638.34L206.37 639.05L206.49 639.05L206.44 638.34Z" id="csADXxf"></path><path d="M220.3 539.18C220.3 539.18 268.6 564.17 285.96 561.21C285.96 561.21 220.3 539.18 220.3 539.18Z" id="aTeDCV7NV"></path><path d="M381.29 546.38C396.96 548.5 318.59 529.01 318.59 529.01C331.13 532.49 365.61 544.26 381.29 546.38Z" id="a1ytStpgt"></path><path d="M279.92 482.8C287.24 456.53 322.98 465.46 322.98 465.46C367.22 456.64 370.61 474.95 370.75 479.94C346.17 484.46 299.91 483.49 279.92 482.8Z" id="b2eVFdTISK"></path><path d="M279.92 481.11C287.24 454.84 322.98 463.77 322.98 463.77C367.22 454.94 370.61 473.26 370.75 478.24C346.17 482.77 299.91 481.79 279.92 481.11Z" id="b1p7UGKMnJ"></path><path d="M501.18 594.04C501.18 594.04 530.12 589.59 530.69 602.3C530.69 602.3 515.93 623.89 515.93 623.89C512.98 617.92 504.13 600.01 501.18 594.04Z" id="dplUtao1d"></path><path d="M351.93 450.74C342.79 453.89 333.58 457.07 323.97 458.22C314.35 459.37 304.26 458.36 295.87 453.56C294.99 453.06 294.14 452.51 293.33 451.91C292.4 433.27 290.15 415.05 290.15 415.05C290.15 415.05 363.87 380.31 355.39 407.85C352.02 418.97 353.16 434.6 355.74 449.26C354.5 449.82 353.22 450.31 351.93 450.74Z" id="a2Xfr8RrqF"></path><path d="M303.98 332.03C304.15 332.28 305.56 334.23 305.74 334.48C303.64 334.72 301.54 334.02 300 332.57C299.84 334.76 299.93 336.97 300.27 339.14C297.35 339.28 294.48 338.38 292.17 336.6C292.07 338.16 292.97 339.62 294.4 340.25C288.34 339.53 282.69 343.41 281.19 349.32C281.63 349.36 285.17 349.69 285.61 349.73C282.13 350.47 279.01 352.38 276.76 355.13C275.41 356.82 274.37 358.99 274.97 361.06C275.56 363.13 278.42 364.45 279.98 362.97C275.49 368.33 273.6 375.4 274.81 382.28C275.22 383.73 275.35 385.24 275.2 386.74C274.92 388.14 274.04 389.35 273.6 390.71C272.76 393.19 273.56 395.87 274.31 398.34C274.71 399.65 277.89 410.1 278.29 411.41C279.73 416.13 281.16 420.85 283.04 425.42C284.37 428.31 285.51 431.28 286.43 434.33C287.5 438.43 287.54 442.92 289.82 446.5C291.38 448.76 293.47 450.6 295.9 451.86C304.28 456.66 314.41 457.68 324 456.52C333.59 455.37 342.79 452.2 351.92 449.04C353.95 448.43 355.89 447.58 357.71 446.5C364.03 442.37 365.43 433.91 366.61 426.46C367.92 418.16 369.68 409.87 372.79 402.06C374.64 397.41 377.02 392.69 376.62 387.71C376.1 381.09 370.86 375.73 369.57 369.22C369.13 367.04 369.15 364.8 369.63 362.64C370.03 361.34 370.25 360 370.3 358.65C370.15 355.92 367.92 353.82 365.81 352.07C358.98 346.36 353.11 342.35 351.7 341.27C351.45 339.58 353.76 338.85 354.8 337.51C356.27 335.62 354.75 332.62 352.51 331.74C350.28 330.86 347.77 331.44 345.44 332.02C345.83 328.96 343.66 326.17 340.6 325.78C338.74 325.54 336.87 326.26 335.65 327.69C334.39 324.8 331.66 322.83 328.52 322.54C322.9 322.1 322.79 326.4 319.2 328.76C315.6 331.12 312.64 328.01 309.88 325.74C308.84 328.35 309.28 331.31 311.03 333.51C308.58 334.16 305.96 333.61 303.98 332.03Z" id="b38dV4RjB0"></path><path d="M522.64 619.46C522.64 619.46 521.89 621.26 520.5 623.86C518.4 627.86 515.84 631.61 512.87 635.02C512.86 635.03 512.78 635.12 512.64 635.26L511.27 635.26L462.35 635.71L461.18 635.71L461.03 635.54L451.55 624.28L447.97 620.04L447.83 619.86L447.52 619.5L447.35 619.3L447.13 619.04L440.17 610.78L442.72 600.19L447.05 582.35L447.16 581.92L448 578.53L448.6 575.99L450.62 567.7L457.54 539.19L469.82 545.54L482.78 568.42L489.73 580.71C492.02 580.71 493.29 580.71 493.55 580.71C494.27 580.71 495.92 582.1 497.58 583.7C498.17 584.26 498.77 584.87 499.27 585.39C500.78 586.95 501.98 588.29 501.98 588.29C501.98 588.29 508.15 588.42 509.81 593.29C509.9 593.52 509.97 593.76 510.03 594.01C510.58 595.92 511.29 597.78 512.17 599.57C513.26 601.95 514.64 604.65 516.02 607.35C518.61 612.31 521.24 617.03 522.2 618.74C522.21 618.76 522.25 618.83 522.32 618.95C522.49 619.22 522.6 619.39 522.64 619.46Z" id="b2fK4djHix"></path><path d="M449.77 582.42L449.77 582.5L449.63 584.45L448.5 600.13L447.14 619.03L446.75 624.35L445.9 635.74L445.9 635.88L355.24 636.73L206.46 638.34L206.46 639.05L206.34 639.05L206.34 638.34L206.34 638.1L206.73 625.93L207.45 602.16L208.08 582C208.12 580.8 208.14 580.13 208.14 579.99C208.29 575.07 212.41 571.2 217.33 571.35C217.49 571.35 217.65 571.36 217.82 571.38C221.82 571.72 227.01 572.13 233.22 572.57C233.47 572.59 235.51 572.74 235.76 572.76C271.63 575.25 337.91 578.47 404.8 574.45C406.21 574.38 407.62 574.29 409.04 574.19C419.41 573.54 429.77 572.7 440.03 571.65C444.93 571.13 449.32 574.69 449.83 579.59C449.89 580.11 449.9 580.64 449.86 581.16C449.86 581.17 449.83 581.59 449.77 582.42Z" id="a4or8TTdjf"></path><path d="M206.44 638.34L355.24 636.72L445.9 635.87L446.16 635.87L446.16 635.73L447 624.34L447.37 619.26L448.76 600.1L449.85 584.93C449.85 584.71 449.85 584.59 449.85 584.56C449.9 583.86 449.87 583.16 449.76 582.47C449.76 582.44 449.76 582.41 449.76 582.38C449.52 580.95 448.94 579.6 448.06 578.45C446.17 576.02 443.15 574.74 440.08 575.06C429.82 576.11 419.46 576.95 409.09 577.6C407.67 577.71 406.26 577.79 404.85 577.87C337.96 581.84 271.68 578.62 235.81 576.17C235.56 576.15 233.53 576 233.27 575.99C227.06 575.55 221.87 575.14 217.87 574.79C213.31 574.41 209.2 577.53 208.34 582.02C208.26 582.48 208.21 582.94 208.19 583.41C208.15 584.66 207.96 590.92 207.61 602.18L206.83 625.97L206.45 638.14L206.45 638.37L206.45 639.08L206.44 638.34Z" id="b5G9HqAf1S"></path><path d="M449.07 600.13L447.52 619.5L447.13 624.34L446.28 635.2L446.23 635.74L446.23 635.88L446.23 635.88L446.11 637.14L446.2 635.88L445.95 635.88L355.29 636.73L206.46 638.34L206.46 638.1L206.88 625.93L207.72 602.16C208.05 592.68 208.23 587.41 208.27 586.36C208.32 584.53 209.3 582.86 210.86 581.91C211.82 581.32 212.94 581.05 214.06 581.15C215.84 581.29 218.03 581.46 220.58 581.65C224.72 581.95 229.83 582.31 235.78 582.68C246.79 583.37 260.61 584.12 276.45 584.73C320.51 586.42 379.99 586.99 436.49 582.04C439.03 581.82 441.66 581.58 444.22 581.33C445.24 581.23 446.26 581.43 447.17 581.89C447.43 582.02 447.67 582.17 447.9 582.35C448.64 582.88 449.22 583.6 449.6 584.43C449.68 584.6 449.75 584.77 449.81 584.95C450.06 585.65 450.17 586.4 450.11 587.15C449.97 588.88 449.63 593.21 449.07 600.13Z" id="b46htokphi"></path><path d="M162.68 598.74C162.68 600.37 162.68 601.27 162.68 601.45C162.68 603.45 161.53 605.28 159.72 606.14C156.32 606.21 129.14 606.73 125.74 606.79C123.89 605.95 122.71 604.1 122.71 602.07C122.71 601.91 122.71 601.06 122.71 599.53L162.68 598.74Z" id="amqiwUvDL"></path><path d="M118.83 608.58L118.83 601.24L163.11 600.39L163.11 607.73L163.11 607.73L118.83 608.58Z" id="b9FkrKkSt"></path><path d="M118.83 608.58L118.83 601.24L163.11 600.39L163.11 607.73L163.11 607.73L118.83 608.58Z" id="b50r7ZPAS"></path><path d="M120.53 608.58L120.53 601.24L164.8 600.39L164.8 607.73L164.8 607.73L120.53 608.58Z" id="b3gidTA5P0"></path><path d="M309.77 327.06C309.57 328.37 309.69 329.7 310.13 330.95C310.55 330.92 310.97 330.84 311.38 330.73C310.55 329.66 310 328.4 309.77 327.06Z" id="a14vC9SThl"></path><path d="M300.61 336.36C300.46 335.32 300.35 334.28 300.3 333.23C300.3 334.27 300.3 335.32 300.3 336.37C300.36 336.37 300.55 336.36 300.61 336.36Z" id="cXQUujmsi"></path><path d="M369.98 362.39C370.38 361.1 370.6 359.76 370.65 358.42C370.63 358.11 370.59 357.81 370.52 357.52C370.37 358.3 370.14 359.08 369.98 359.85C369.64 361.42 369.53 363.03 369.67 364.63C369.72 363.88 369.82 363.13 369.98 362.39Z" id="j3sVcCCeZ"></path><path d="M352.97 339.12C353.75 338.56 354.48 337.93 355.15 337.24C355.8 336.34 355.92 335.17 355.47 334.16C355.38 334.35 355.28 334.53 355.15 334.7C354.11 336.04 351.8 336.78 352.05 338.45C352.23 338.59 352.88 339.06 352.97 339.12Z" id="b3wuenjRtR"></path><path d="M282.42 346.6C282.11 347.22 281.87 347.87 281.69 348.54C283.01 347.8 284.44 347.26 285.92 346.93C285.22 346.87 283.12 346.67 282.42 346.6Z" id="a4HQHUe1MY"></path><path d="M292.51 336.34C292.49 336.68 292.52 337.02 292.59 337.34C293.1 337.32 293.6 337.33 294.11 337.39C293.55 337.08 293.02 336.73 292.51 336.34Z" id="b2gcWmL8HJ"></path><path d="M373.14 399.27C370.03 407.08 368.27 415.37 366.96 423.68C365.78 431.13 364.42 439.59 358.06 443.71C356.25 444.8 354.3 445.65 352.27 446.26C343.14 449.42 333.93 452.58 324.31 453.74C314.7 454.89 304.61 453.88 296.22 449.09C293.79 447.82 291.7 445.98 290.13 443.72C287.87 440.14 287.83 435.65 286.74 431.55C285.82 428.5 284.69 425.52 283.36 422.63C281.48 418.07 280.04 413.31 278.61 408.63C276.62 402.09 275.03 396.86 274.64 395.55C274.2 394.24 273.88 392.89 273.67 391.53C273.34 393.7 273.98 395.97 274.64 398.09C276.62 404.64 278.21 409.86 278.61 411.17C280.04 415.89 281.48 420.62 283.36 425.17C284.69 428.06 285.82 431.04 286.74 434.09C287.81 438.19 287.85 442.68 290.13 446.26C291.7 448.52 293.79 450.36 296.22 451.63C304.61 456.42 314.72 457.43 324.31 456.28C333.91 455.13 343.11 451.96 352.27 448.8C354.3 448.19 356.25 447.34 358.06 446.26C364.37 442.13 365.78 433.67 366.96 426.23C368.27 417.91 370.03 409.63 373.14 401.81C374.98 397.17 377.37 392.45 376.97 387.46C376.97 387.41 376.95 387.36 376.95 387.31C376.6 391.42 374.69 395.37 373.14 399.27Z" id="a1yQznhj3F"></path><path d="M275.53 383.94C275.69 382.44 275.56 380.93 275.14 379.49C274.98 378.56 274.87 377.62 274.81 376.67C274.72 378.47 274.83 380.26 275.14 382.03C275.28 382.69 275.43 383.36 275.53 384.03C275.53 384.01 275.53 383.97 275.53 383.94Z" id="c2HCiLdeQo"></path><path d="M280.33 360.19C278.78 361.68 275.92 360.36 275.31 358.3C275.09 359.13 275.09 360.01 275.31 360.84C275.74 362.1 276.81 363.05 278.12 363.3C278.77 362.21 279.51 361.17 280.33 360.19Z" id="dcArQWRY6"></path><path d="M489.74 598.91C487.06 607.39 489.74 580.7 489.74 580.7C489.74 584.34 492.43 590.44 489.74 598.91Z" id="i1NhNzhdup"></path><path d="M499.77 605.2C497.22 607.4 501.18 590.64 501.18 590.64C500.9 593.55 502.31 603.01 499.77 605.2Z" id="c4V9jYXR3O"></path><path d="M78.71 461.4L164.8 460.55" id="b5dUEFMi1l"></path><path d="M78.71 471.96L164.8 471.12" id="bvjkKKizL"></path><path d="M78.71 482.54L164.8 481.69" id="g43iZRHfLJ"></path></defs><g><g><g><use xlink:href="#hrXy25PDa" opacity="1" fill="#3f3d56" fill-opacity="1"></use><g><use xlink:href="#hrXy25PDa" opacity="1" fill-opacity="0" stroke="#000000" stroke-width="1" stroke-opacity="0"></use></g></g><g><use xlink:href="#a1dB2BmmyB" opacity="1" fill="#3f3d56" fill-opacity="1"></use><g><use xlink:href="#a1dB2BmmyB" opacity="1" fill-opacity="0" stroke="#000000" stroke-width="1" stroke-opacity="0"></use></g></g><g><use xlink:href="#b3Tw1Xxpkt" opacity="1" fill="#65617d" fill-opacity="1"></use><g><use xlink:href="#b3Tw1Xxpkt" opacity="1" fill-opacity="0" stroke="#000000" stroke-width="1" stroke-opacity="0"></use></g></g><g><use xlink:href="#d2MJ5KNzBh" opacity="1" fill="#000000" fill-opacity="1"></use><g><use xlink:href="#d2MJ5KNzBh" opacity="1" fill-opacity="0" stroke="#000000" stroke-width="1" stroke-opacity="0"></use></g></g><g><use xlink:href="#g1khOKmypU" opacity="1" fill="#3f3d56" fill-opacity="1"></use><g><use xlink:href="#g1khOKmypU" opacity="1" fill-opacity="0" stroke="#000000" stroke-width="1" stroke-opacity="0"></use></g></g><g><use xlink:href="#akAsbb1HL" opacity="1" fill="#000000" fill-opacity="1"></use><g><use xlink:href="#akAsbb1HL" opacity="1" fill-opacity="0" stroke="#000000" stroke-width="1" stroke-opacity="0"></use></g></g><g><use xlink:href="#cJlY6rzyi" opacity="1" fill="#3f3d56" fill-opacity="1"></use><g><use xlink:href="#cJlY6rzyi" opacity="1" fill-opacity="0" stroke="#000000" stroke-width="1" stroke-opacity="0"></use></g></g><g><use xlink:href="#b2qKpu3HD4" opacity="1" fill="#3f3d56" fill-opacity="1"></use><g><use xlink:href="#b2qKpu3HD4" opacity="1" fill-opacity="0" stroke="#000000" stroke-width="1" stroke-opacity="0"></use></g></g><g><use xlink:href="#c2LQAE0GLd" opacity="1" fill="#000000" fill-opacity="1"></use><g><use xlink:href="#c2LQAE0GLd" opacity="1" fill-opacity="0" stroke="#000000" stroke-width="1" stroke-opacity="0"></use></g></g><g><use xlink:href="#c1wWRX2BML" opacity="1" fill="#3f3d56" fill-opacity="1"></use><g><use xlink:href="#c1wWRX2BML" opacity="1" fill-opacity="0" stroke="#000000" stroke-width="1" stroke-opacity="0"></use></g></g><g><use xlink:href="#c2NOOHdDuS" opacity="1" fill="#000000" fill-opacity="1"></use><g><use xlink:href="#c2NOOHdDuS" opacity="1" fill-opacity="0" stroke="#000000" stroke-width="1" stroke-opacity="0"></use></g></g><g><use xlink:href="#b4Gsyba63H" opacity="1" fill="#65617d" fill-opacity="1"></use><g><use xlink:href="#b4Gsyba63H" opacity="1" fill-opacity="0" stroke="#000000" stroke-width="1" stroke-opacity="0"></use></g></g><g><use xlink:href="#h6prOuLpK" opacity="1" fill="#ffa7c4" fill-opacity="1"></use><g><use xlink:href="#h6prOuLpK" opacity="1" fill-opacity="0" stroke="#000000" stroke-width="1" stroke-opacity="0"></use></g></g><g><use xlink:href="#anJzR3Srq" opacity="1" fill="#65617d" fill-opacity="1"></use><g><use xlink:href="#anJzR3Srq" opacity="1" fill-opacity="0" stroke="#000000" stroke-width="1" stroke-opacity="0"></use></g></g><g><use xlink:href="#b1YuoNMbMD" opacity="1" fill="#ffa7c4" fill-opacity="1"></use><g><use xlink:href="#b1YuoNMbMD" opacity="1" fill-opacity="0" stroke="#000000" stroke-width="1" stroke-opacity="0"></use></g></g><g><use xlink:href="#h5mEPxksmc" opacity="1" fill="#000000" fill-opacity="1"></use><g><use xlink:href="#h5mEPxksmc" opacity="1" fill-opacity="0" stroke="#000000" stroke-width="1" stroke-opacity="0"></use></g></g><g><use xlink:href="#adYsEF54L" opacity="1" fill="#65617d" fill-opacity="1"></use><g><use xlink:href="#adYsEF54L" opacity="1" fill-opacity="0" stroke="#000000" stroke-width="1" stroke-opacity="0"></use></g></g><g><use xlink:href="#asXVMvfYZ" opacity="1" fill="#ffa7c4" fill-opacity="1"></use><g><use xlink:href="#asXVMvfYZ" opacity="1" fill-opacity="0" stroke="#000000" stroke-width="1" stroke-opacity="0"></use></g></g><g><use xlink:href="#cfV5OfrGI" opacity="1" fill="#000000" fill-opacity="1"></use><g><use xlink:href="#cfV5OfrGI" opacity="1" fill-opacity="0" stroke="#000000" stroke-width="1" stroke-opacity="0"></use></g></g><g><use xlink:href="#ci9eLrer" opacity="1" fill="#000000" fill-opacity="1"></use><g><use xlink:href="#ci9eLrer" opacity="1" fill-opacity="0" stroke="#000000" stroke-width="1" stroke-opacity="0"></use></g></g><g><use xlink:href="#awChIld8P" opacity="1" fill="#000000" fill-opacity="1"></use><g><use xlink:href="#awChIld8P" opacity="1" fill-opacity="0" stroke="#000000" stroke-width="1" stroke-opacity="0"></use></g></g><g><use xlink:href="#f4Zfy3v5fT" opacity="1" fill="#000000" fill-opacity="1"></use><g><use xlink:href="#f4Zfy3v5fT" opacity="1" fill-opacity="0" stroke="#000000" stroke-width="1" stroke-opacity="0"></use></g></g><g><use xlink:href="#bwLF9SrwI" opacity="1" fill="#65617d" fill-opacity="1"></use><g><use xlink:href="#bwLF9SrwI" opacity="1" fill-opacity="0" stroke="#000000" stroke-width="1" stroke-opacity="0"></use></g></g><g><use xlink:href="#b1DR9qhjnp" opacity="1" fill="#000000" fill-opacity="1"></use><g><use xlink:href="#b1DR9qhjnp" opacity="1" fill-opacity="0" stroke="#000000" stroke-width="1" stroke-opacity="0"></use></g></g><g><use xlink:href="#b1JX8Fv1J2" opacity="1" fill="#d4dfec" fill-opacity="1"></use><g><use xlink:href="#b1JX8Fv1J2" opacity="1" fill-opacity="0" stroke="#000000" stroke-width="1" stroke-opacity="0"></use></g></g><g><use xlink:href="#c2oNGoMEa" opacity="1" fill="#000000" fill-opacity="1"></use><g><use xlink:href="#c2oNGoMEa" opacity="1" fill-opacity="0" stroke="#000000" stroke-width="1" stroke-opacity="0"></use></g></g><g><use xlink:href="#a4H40sIF2" opacity="1" fill="#000000" fill-opacity="1"></use><g><use xlink:href="#a4H40sIF2" opacity="1" fill-opacity="0" stroke="#000000" stroke-width="1" stroke-opacity="0"></use></g></g><g><use xlink:href="#b3Xi5AmJHS" opacity="1" fill="#65617d" fill-opacity="1"></use><g><use xlink:href="#b3Xi5AmJHS" opacity="1" fill-opacity="0" stroke="#000000" stroke-width="1" stroke-opacity="0"></use></g></g><g><use xlink:href="#a2tqB25aAm" opacity="1" fill="#000000" fill-opacity="1"></use><g><use xlink:href="#a2tqB25aAm" opacity="1" fill-opacity="0" stroke="#000000" stroke-width="1" stroke-opacity="0"></use></g></g><g><use xlink:href="#apCQLpt8O" opacity="1" fill="#d4dfec" fill-opacity="1"></use><g><use xlink:href="#apCQLpt8O" opacity="1" fill-opacity="0" stroke="#000000" stroke-width="1" stroke-opacity="0"></use></g></g><g><use xlink:href="#bJWJ2lxPH" opacity="1" fill="#65617d" fill-opacity="1"></use><g><use xlink:href="#bJWJ2lxPH" opacity="1" fill-opacity="0" stroke="#000000" stroke-width="1" stroke-opacity="0"></use></g></g><g><use xlink:href="#bXlC7ia9F" opacity="1" fill="#d4dfec" fill-opacity="1"></use><g><use xlink:href="#bXlC7ia9F" opacity="1" fill-opacity="0" stroke="#000000" stroke-width="1" stroke-opacity="0"></use></g></g><g><use xlink:href="#aHy5JgfEy" opacity="1" fill="#000000" fill-opacity="1"></use><g><use xlink:href="#aHy5JgfEy" opacity="1" fill-opacity="0" stroke="#000000" stroke-width="1" stroke-opacity="0"></use></g></g><g><use xlink:href="#b2bMGZtbq4" opacity="1" fill="#fbbebe" fill-opacity="1"></use><g><use xlink:href="#b2bMGZtbq4" opacity="1" fill-opacity="0" stroke="#000000" stroke-width="1" stroke-opacity="0"></use></g></g><g><use xlink:href="#bLRDPjret" opacity="1" fill="url(#gradientgJRsAoqUv)"></use><g><use xlink:href="#bLRDPjret" opacity="1" fill-opacity="0" stroke="#000000" stroke-width="1" stroke-opacity="0"></use></g></g><g><use xlink:href="#b2eCW0Dlq" opacity="1" fill="#fbbebe" fill-opacity="1"></use><g><use xlink:href="#b2eCW0Dlq" opacity="1" fill-opacity="0" stroke="#000000" stroke-width="1" stroke-opacity="0"></use></g></g><g><use xlink:href="#ccig589FHH" opacity="1" fill="#000000" fill-opacity="1"></use><g><use xlink:href="#ccig589FHH" opacity="1" fill-opacity="0" stroke="#000000" stroke-width="1" stroke-opacity="0"></use></g></g><g><use xlink:href="#csADXxf" opacity="1" fill="#ffa7c4" fill-opacity="1"></use><g><use xlink:href="#csADXxf" opacity="1" fill-opacity="0" stroke="#000000" stroke-width="1" stroke-opacity="0"></use></g></g><g><use xlink:href="#aTeDCV7NV" opacity="1" fill="#000000" fill-opacity="1"></use><g><use xlink:href="#aTeDCV7NV" opacity="1" fill-opacity="0" stroke="#000000" stroke-width="1" stroke-opacity="0"></use></g></g><g><use xlink:href="#a1ytStpgt" opacity="1" fill="#000000" fill-opacity="1"></use><g><use xlink:href="#a1ytStpgt" opacity="1" fill-opacity="0" stroke="#000000" stroke-width="1" stroke-opacity="0"></use></g></g><g><use xlink:href="#b2eVFdTISK" opacity="1" fill="#000000" fill-opacity="1"></use><g><use xlink:href="#b2eVFdTISK" opacity="1" fill-opacity="0" stroke="#000000" stroke-width="1" stroke-opacity="0"></use></g></g><g><use xlink:href="#b1p7UGKMnJ" opacity="1" fill="#ffa7c4" fill-opacity="1"></use><g><use xlink:href="#b1p7UGKMnJ" opacity="1" fill-opacity="0" stroke="#000000" stroke-width="1" stroke-opacity="0"></use></g></g><g><use xlink:href="#dplUtao1d" opacity="1" fill="#fbbebe" fill-opacity="1"></use><g><use xlink:href="#dplUtao1d" opacity="1" fill-opacity="0" stroke="#000000" stroke-width="1" stroke-opacity="0"></use></g></g><g><use xlink:href="#a2Xfr8RrqF" opacity="1" fill="#000000" fill-opacity="1"></use><g><use xlink:href="#a2Xfr8RrqF" opacity="1" fill-opacity="0" stroke="#000000" stroke-width="1" stroke-opacity="0"></use></g></g><g><use xlink:href="#b38dV4RjB0" opacity="1" fill="#3f3d56" fill-opacity="1"></use><g><use xlink:href="#b38dV4RjB0" opacity="1" fill-opacity="0" stroke="#000000" stroke-width="1" stroke-opacity="0"></use></g></g><g><use xlink:href="#b2fK4djHix" opacity="1" fill="#ffa7c4" fill-opacity="1"></use><g><use xlink:href="#b2fK4djHix" opacity="1" fill-opacity="0" stroke="#000000" stroke-width="1" stroke-opacity="0"></use></g></g><g><use xlink:href="#a4or8TTdjf" opacity="1" fill="#000000" fill-opacity="1"></use><g><use xlink:href="#a4or8TTdjf" opacity="1" fill-opacity="0" stroke="#000000" stroke-width="1" stroke-opacity="0"></use></g></g><g><use xlink:href="#b5G9HqAf1S" opacity="1" fill="#3f3d56" fill-opacity="1"></use><g><use xlink:href="#b5G9HqAf1S" opacity="1" fill-opacity="0" stroke="#000000" stroke-width="1" stroke-opacity="0"></use></g></g><g><use xlink:href="#b46htokphi" opacity="1" fill="#000000" fill-opacity="1"></use><g><use xlink:href="#b46htokphi" opacity="1" fill-opacity="0" stroke="#000000" stroke-width="1" stroke-opacity="0"></use></g></g><g><use xlink:href="#amqiwUvDL" opacity="1" fill="#000000" fill-opacity="1"></use><g><use xlink:href="#amqiwUvDL" opacity="1" fill-opacity="0" stroke="#000000" stroke-width="1" stroke-opacity="0"></use></g></g><g><use xlink:href="#b9FkrKkSt" opacity="1" fill="#3f3d56" fill-opacity="1"></use><g><use xlink:href="#b9FkrKkSt" opacity="1" fill-opacity="0" stroke="#000000" stroke-width="1" stroke-opacity="0"></use></g></g><g><use xlink:href="#b50r7ZPAS" opacity="1" fill="#000000" fill-opacity="1"></use><g><use xlink:href="#b50r7ZPAS" opacity="1" fill-opacity="0" stroke="#000000" stroke-width="1" stroke-opacity="0"></use></g></g><g><use xlink:href="#b3gidTA5P0" opacity="1" fill="#3f3d56" fill-opacity="1"></use><g><use xlink:href="#b3gidTA5P0" opacity="1" fill-opacity="0" stroke="#000000" stroke-width="1" stroke-opacity="0"></use></g></g><g><use xlink:href="#a14vC9SThl" opacity="1" fill="#000000" fill-opacity="1"></use><g><use xlink:href="#a14vC9SThl" opacity="1" fill-opacity="0" stroke="#000000" stroke-width="1" stroke-opacity="0"></use></g></g><g><use xlink:href="#cXQUujmsi" opacity="1" fill="#000000" fill-opacity="1"></use><g><use xlink:href="#cXQUujmsi" opacity="1" fill-opacity="0" stroke="#000000" stroke-width="1" stroke-opacity="0"></use></g></g><g><use xlink:href="#j3sVcCCeZ" opacity="1" fill="#000000" fill-opacity="1"></use><g><use xlink:href="#j3sVcCCeZ" opacity="1" fill-opacity="0" stroke="#000000" stroke-width="1" stroke-opacity="0"></use></g></g><g><use xlink:href="#b3wuenjRtR" opacity="1" fill="#000000" fill-opacity="1"></use><g><use xlink:href="#b3wuenjRtR" opacity="1" fill-opacity="0" stroke="#000000" stroke-width="1" stroke-opacity="0"></use></g></g><g><use xlink:href="#a4HQHUe1MY" opacity="1" fill="#000000" fill-opacity="1"></use><g><use xlink:href="#a4HQHUe1MY" opacity="1" fill-opacity="0" stroke="#000000" stroke-width="1" stroke-opacity="0"></use></g></g><g><use xlink:href="#b2gcWmL8HJ" opacity="1" fill="#000000" fill-opacity="1"></use><g><use xlink:href="#b2gcWmL8HJ" opacity="1" fill-opacity="0" stroke="#000000" stroke-width="1" stroke-opacity="0"></use></g></g><g><use xlink:href="#a1yQznhj3F" opacity="1" fill="#000000" fill-opacity="1"></use><g><use xlink:href="#a1yQznhj3F" opacity="1" fill-opacity="0" stroke="#000000" stroke-width="1" stroke-opacity="0"></use></g></g><g><use xlink:href="#c2HCiLdeQo" opacity="1" fill="#000000" fill-opacity="1"></use><g><use xlink:href="#c2HCiLdeQo" opacity="1" fill-opacity="0" stroke="#000000" stroke-width="1" stroke-opacity="0"></use></g></g><g><use xlink:href="#dcArQWRY6" opacity="1" fill="#000000" fill-opacity="1"></use><g><use xlink:href="#dcArQWRY6" opacity="1" fill-opacity="0" stroke="#000000" stroke-width="1" stroke-opacity="0"></use></g></g><g><use xlink:href="#i1NhNzhdup" opacity="1" fill="#000000" fill-opacity="1"></use><g><use xlink:href="#i1NhNzhdup" opacity="1" fill-opacity="0" stroke="#000000" stroke-width="1" stroke-opacity="0"></use></g></g><g><use xlink:href="#c4V9jYXR3O" opacity="1" fill="#000000" fill-opacity="1"></use><g><use xlink:href="#c4V9jYXR3O" opacity="1" fill-opacity="0" stroke="#000000" stroke-width="1" stroke-opacity="0"></use></g></g><g><use xlink:href="#b5dUEFMi1l" opacity="1" fill="#000000" fill-opacity="0"></use><g><use xlink:href="#b5dUEFMi1l" opacity="1" fill-opacity="0" stroke="#ffa7c4" stroke-width="2" stroke-opacity="1"></use></g></g><g><use xlink:href="#bvjkKKizL" opacity="1" fill="#000000" fill-opacity="0"></use><g><use xlink:href="#bvjkKKizL" opacity="1" fill-opacity="0" stroke="#ffa7c4" stroke-width="2" stroke-opacity="1"></use></g></g><g><use xlink:href="#g43iZRHfLJ" opacity="1" fill="#000000" fill-opacity="0"></use><g><use xlink:href="#g43iZRHfLJ" opacity="1" fill-opacity="0" stroke="#ffa7c4" stroke-width="2" stroke-opacity="1"></use></g></g></g></g></svg>