<?xml version="1.0" encoding="UTF-8" standalone="no"?>
<!DOCTYPE svg PUBLIC "-//W3C//DTD SVG 1.1//EN" "http://www.w3.org/Graphics/SVG/1.1/DTD/svg11.dtd">
<svg version="1.1" xmlns="http://www.w3.org/2000/svg" xmlns:xlink="http://www.w3.org/1999/xlink" preserveAspectRatio="xMidYMid meet" viewBox="0 0 640 640" width="640" height="640"><defs><path d="M162.18 628.27C162.18 634.75 129.49 640 89.17 640C48.84 640 16.16 634.75 16.16 628.27C16.16 621.8 48.84 616.55 89.17 616.55C129.49 616.55 162.18 621.8 162.18 628.27Z" id="arscA28bV"></path><path d="M156.82 333.59C156.82 333.59 154.7 321.26 154.7 321.26C154.7 321.26 154.7 321.26 154.7 321.26C154.7 321.22 152.87 307.27 150.35 305.05C147.82 302.83 144.58 289.81 144.58 289.81C144.58 289.81 144.03 282.74 142.89 281.22C141.76 279.7 140.23 275.98 137.98 270.66C135.72 265.35 126.32 261.67 126.32 261.67C126.32 261.67 109.32 251.81 104.5 248.6C104.5 248.6 104.5 248.6 104.5 248.6C104.06 248.33 103.65 248.02 103.28 247.68C102.44 246.57 98.78 246.55 98.78 246.55C98.4 244.14 98.03 241.37 97.91 238.86C97.91 238.59 97.91 238.32 97.88 238.05C103.25 234.87 107.29 229.86 109.27 223.94C109.36 223.66 109.44 223.36 109.52 223.08C110.17 222.86 110.7 222.38 110.98 221.76C111.42 220.79 111.42 219.66 111.96 218.76C112.59 217.7 113.79 217.13 114.73 216.32C117.12 214.3 117.73 210.89 117.62 207.79C117.54 205.28 117.14 202.75 117.3 200.25C117.3 200.19 117.34 199.68 117.34 199.62C117.39 199.25 117.44 198.87 117.51 198.51C117.87 196.65 118.68 194.9 119.13 193.06C119.58 191.21 119.62 189.14 118.57 187.55C117.03 185.22 113.84 184.76 111.03 184.52C107.84 184.25 104.99 184.6 102.96 181.95C102 180.57 100.93 179.27 99.75 178.08C99.33 177.69 95.25 175.2 95.25 175.04C91.27 173.19 86.76 172.85 82.55 174.06C80.44 174.68 78.45 175.68 76.3 176.18C71.68 177.28 66.36 176.09 62.43 178.74C60.24 180.24 58.93 182.62 57.7 184.94C56.21 187.81 54.97 190.1 54.66 190.68C53.01 193.81 51.32 197.01 50.62 200.48C50.48 201.24 50.39 202.01 50.35 202.78C50.35 202.78 50.35 202.78 50.35 202.78C50.35 202.8 50.35 202.81 50.35 202.81C50.35 203.09 50.35 203.37 50.35 203.65C50.35 203.68 50.35 203.96 50.35 204C50.35 204.26 50.35 204.52 50.4 204.75C50.44 204.98 50.44 205.05 50.46 205.21C50.48 205.37 50.52 205.72 50.56 205.96C50.61 206.2 50.7 206.62 50.79 206.95C50.83 207.09 50.88 207.23 50.92 207.36C51 207.62 51.09 207.86 51.19 208.11C51.24 208.24 51.29 208.37 51.35 208.5C51.46 208.76 51.6 209.02 51.73 209.25C51.79 209.36 51.84 209.45 51.9 209.55C52.11 209.9 52.34 210.23 52.59 210.55C54.19 212.56 56.55 213.83 58.3 215.7C58.3 215.78 58.3 215.85 58.3 215.92C58.3 216.13 58.3 216.33 58.3 216.54C58.48 225.02 62.85 232.86 69.97 237.48C69.97 237.77 70.01 238.06 70.02 238.35C70.17 240.57 70.14 242.8 69.94 245.02C69.32 244.29 68.41 243.89 67.45 243.91C67.13 243.9 66.81 243.93 66.49 244C66.49 243.99 66.47 243.98 66.43 243.94L66.43 243.94C66.43 243.98 66.43 244.01 66.43 244.01C64.78 244.42 62.75 246.13 60.81 251.01C60.81 251.01 54.9 257.66 50.41 257.39C45.91 257.11 34.53 264.31 34.53 264.31C34.53 264.31 23.42 271.52 21.04 278.86C19.71 283.03 18.11 287.1 16.26 291.06C15.34 292.95 10.77 302.38 2.53 319.35L2.53 319.35C1.01 332.81 0.17 340.29 0 341.79C0 341.79 1.4 351.77 1.12 353.29C1.12 353.29 6.89 368.53 6.89 368.53C6.89 368.53 26.84 403.59 34.99 405.39C35.05 405.35 35.52 405.02 35.58 404.98C35.93 405.16 36.3 405.3 36.68 405.39C36.85 405.27 38.19 404.32 38.36 404.21C38.46 405.53 38.42 406.85 38.23 408.16C37.11 411.62 38.65 434.22 40.61 438.64C42.58 443.07 41.88 501.14 41.88 501.14C41.85 501.65 41.63 505.75 41.6 506.26C41.6 506.26 41.6 506.43 41.67 506.71C41.66 506.79 41.64 507.2 41.6 507.93C41.72 507.99 41.79 508.02 41.8 508.03C42.01 509.66 41.95 511.31 41.6 512.91C40.9 515.16 40.61 521.51 40.61 521.51C40.61 521.51 35 557.39 37.66 564.6C40.32 571.81 42.58 579.7 42.58 579.7C42.58 579.7 45.39 588.69 42.72 590.23C40.04 591.77 32.44 594.34 34 598.09C35.43 601.55 40.83 610.83 41.63 612.19C41.63 612.23 41.6 612.47 41.56 612.9C40.9 620.06 40.54 624.04 40.46 624.83C40.64 626.41 41.07 627.95 41.73 629.39C42.94 631.99 45.28 634.69 49.74 634.4C50.49 634.34 51.36 634.25 52.2 634.14C60.36 633.05 70.41 629.4 70.41 629.4C69.88 629.07 69.41 628.68 68.98 628.23C68.98 628.23 68.98 628.23 68.98 628.23C68.17 627.44 67.72 626.36 67.73 625.23C67.85 623.06 63.78 612.7 62.77 610.15C62.61 609.79 62.53 609.58 62.53 609.58C62.53 609.58 71.81 599.88 70.26 591.29C70.26 591.29 60 585.29 63.38 582C66.76 578.71 72.8 569.26 72.8 569.26C72.8 569.26 73.07 533.93 72.8 528.66C72.51 525 72.68 521.32 73.31 517.7C73.43 517.15 73.56 516.62 73.7 516.09C78.38 516.79 83.09 517.15 87.82 517.17C89.54 517.17 91.3 517.17 93.06 517.06C93.06 517.81 93.13 518.52 93.13 518.68C93.52 527.43 94.25 542.78 94.84 548.48C95.68 556.65 100.32 578.68 100.32 578.68C100.32 578.68 91.47 584.36 101.86 598.36C101.86 598.36 101.86 603.43 101.17 604.17C101.17 604.17 101.17 604.17 101.17 604.17C100.44 606.57 99.84 609.01 99.4 611.48C98.96 614.12 98.78 616.79 99.49 618.17C101.17 621.48 111.29 621.21 111.29 621.21C111.29 621.21 111.29 621.21 111.29 621.21C111.44 621.19 111.52 621.17 111.54 621.17C115.39 620.77 119.25 621.93 122.24 624.4C126.09 627.49 140.68 626.13 148.57 625.15C151.67 624.76 153.74 624.4 153.74 624.4C153.84 624.05 153.87 623.68 153.84 623.32C153.84 623.32 153.84 623.32 153.84 623.32C153.76 621.38 152.24 617.12 141.93 613.32C141.93 613.32 132.23 606.81 132.37 601.13C132.35 601.13 132.28 601.13 132.16 601.13C131.49 601.13 131.11 601.13 131.04 601.13C131.86 601.08 132.38 601.13 132.38 601.13C132.38 601.13 128.58 587.26 130.13 586.14C131.68 585.02 127.04 569.65 127.04 569.65C127.04 569.65 124.38 543.88 124.24 542.07C124.24 540.52 124.48 538.98 124.93 537.5C124.86 536.09 124.31 524.78 124.24 523.37C124.24 523.37 124.1 518.67 124.24 517.14C124.21 515.82 124.11 514.49 123.91 513.18C123.85 512.65 123.78 512.11 123.7 511.57C127.34 510.65 129.7 509.79 129.7 509.79C129.66 504.87 129.32 465.52 129.28 460.6C132.37 454.61 132.94 441.45 132.92 432.13C132.92 426.13 132.65 421.7 132.65 421.7C133.07 421.01 136.45 415.5 136.87 414.81C136.87 414.81 137.84 406.57 136.3 404.76C135.62 403.94 135.93 403.1 136.49 402.4C136.78 402.17 137.09 401.96 137.41 401.77C137.41 401.77 137.36 401.7 137.31 401.61C137.61 401.36 137.92 401.14 138.25 400.94C138.25 400.94 136.75 398.62 138.09 397.64C139.35 398.49 140.47 399.13 141.33 399.66C141.27 400.21 141.21 400.52 141.21 400.52C141.24 400.45 141.53 399.85 141.57 399.77C142.39 400.24 142.89 400.52 142.89 400.52C142.89 400.52 149.5 387.35 149.36 385.41C149.22 383.47 153.86 375.3 153.86 375.3C153.86 375.3 154.42 371 156.95 369.21C159.48 367.41 158.91 354.38 158.91 354.38C158.91 354.38 159.62 347.59 161.3 344.82C162.99 342.04 159.77 338.3 159.77 338.3C159.77 338.3 156.82 337.89 156.82 333.59ZM33.31 332.53C33.39 334.41 33.43 335.46 33.44 335.67C32.69 334.46 32.15 333.59 32.15 333.59C32.31 333.45 32.69 333.09 33.31 332.53Z" id="f5YVi2TsV"></path><linearGradient id="gradientd3vM2xUzU7" gradientUnits="userSpaceOnUse" x1="80.89" y1="634.43" x2="80.89" y2="173.35"><stop style="stop-color: #808080;stop-opacity: 0.25" offset="0%"></stop><stop style="stop-color: #808080;stop-opacity: 0.12" offset="54%"></stop><stop style="stop-color: #808080;stop-opacity: 0.1" offset="100%"></stop></linearGradient><path d="M143.25 394.83C142.28 398.97 141.74 401.27 141.63 401.73C141.63 401.73 128.67 395.11 126.33 386.7C126.33 386.7 130.25 375.1 130.25 375.1C131.05 375.44 135.08 377.15 142.32 380.22L143.25 394.83Z" id="acyYLJnGy"></path><path d="M143.25 394.83C142.28 398.97 141.74 401.27 141.63 401.73C141.63 401.73 128.67 395.11 126.33 386.7C126.33 386.7 130.25 375.1 130.25 375.1C131.05 375.44 135.08 377.15 142.32 380.22L143.25 394.83Z" id="a57sjf5r45"></path><path d="M50.27 634.41C45.9 634.7 43.59 632.02 42.41 629.43C41.76 628 41.35 626.47 41.17 624.9C41.25 624.11 41.6 620.15 42.25 613.02L42.82 606.7L60.33 602.15L62.81 609.74C62.95 610.08 63.02 610.27 63.04 610.31C64.04 612.84 68.03 623.15 67.91 625.3C67.9 626.41 68.34 627.48 69.14 628.26C69.54 628.71 70 629.11 70.5 629.45C70.5 629.45 58.51 633.86 50.27 634.41Z" id="a1wGqIyZmk"></path><path d="M152.29 624.48C152.29 624.48 126.65 628.76 121.4 624.48C118.41 621.95 114.49 620.81 110.61 621.32C110.61 621.32 100.69 621.59 99.04 618.32C98.35 616.95 98.53 614.29 98.95 611.67C99.39 609.21 99.97 606.78 100.69 604.39C100.72 604.37 100.85 604.27 101.09 604.08L103.45 602.18L131.08 601.37C131.21 601.37 131.28 601.37 131.29 601.37C131.16 607.02 140.68 613.5 140.68 613.5C150.78 617.24 152.28 621.48 152.4 623.41C152.43 623.77 152.39 624.13 152.29 624.48Z" id="d3Nm1kYuKt"></path><path d="M152.28 624.48C152.28 624.48 126.65 628.76 121.4 624.48C118.41 621.96 114.5 620.81 110.62 621.32C110.62 621.32 100.69 621.59 99.04 618.32C98.35 616.94 98.53 614.29 98.95 611.67C102.78 612.05 108.81 613 111.18 615.27C114.76 618.73 120.83 622.17 124.55 622.44C127.47 622.63 144.9 623.19 152.4 623.41C152.42 623.77 152.38 624.13 152.28 624.48Z" id="b6MMheVL9b"></path><path d="M50.27 634.41C45.9 634.7 43.59 632.02 42.42 629.43C45.47 630.45 49.7 631.53 51.93 630.54C54.56 629.37 63.92 628.62 69.16 628.3C69.56 628.73 70.01 629.12 70.5 629.45C70.5 629.45 58.51 633.86 50.27 634.41Z" id="d1mQBLY23"></path><path d="M68.85 251.91C69.56 250.41 69.98 248.8 70.09 247.14C70.3 244.9 70.33 242.65 70.18 240.4C69.96 236.72 69.51 233.06 68.85 229.43C68.85 229.43 99.73 230.13 97.94 234.67C97.41 236.01 97.33 238.32 97.47 240.92C97.61 243.51 97.99 246.44 98.38 248.92C98.92 252.32 99.46 254.91 99.46 254.91C99.46 254.91 97.57 257.56 96.46 257.7C95.35 257.84 102.48 279.87 88.29 274.39C78.4 270.54 65.68 257.84 68.85 251.91Z" id="apOqF9rXS"></path><path d="M63.02 610.31C62.88 610.47 62.8 610.55 62.78 610.57C53.55 599.4 42.39 613.32 42.39 613.32C42.38 613.3 42.32 613.2 42.22 613.02L42.79 606.7L60.3 602.15L62.78 609.74L63.02 610.31Z" id="amlUdGo7v"></path><path d="M120.96 605.19C120.96 605.19 99.98 605.88 100.73 605.19C100.95 604.85 101.09 604.45 101.12 604.05C101.28 603.92 102.06 603.29 103.48 602.15C120.06 601.66 129.27 601.39 131.11 601.34C131.22 601.84 131.3 602.15 131.3 602.15C129.23 602.76 124.56 602.01 120.96 605.19Z" id="d3Ike4Tjgf"></path><path d="M73.37 518.32C72.74 521.92 72.57 525.59 72.85 529.23C73.13 534.47 72.85 569.62 72.85 569.62C72.85 569.62 66.92 579 63.62 582.3C60.31 585.61 70.36 591.54 70.36 591.54C71.86 600.08 62.78 609.74 62.78 609.74C53.55 598.57 42.38 612.49 42.38 612.49C42.38 612.49 36.31 602 34.8 598.26C33.28 594.51 40.73 591.92 43.34 590.4C45.96 588.87 43.21 579.91 43.21 579.91C43.21 579.91 41 572.04 38.38 564.87C35.76 557.7 41.27 522.01 41.27 522.01C41.27 522.01 41.56 515.67 42.24 513.46C42.58 511.86 42.65 510.22 42.44 508.6C42.4 508.05 42.34 507.6 42.31 507.29C42.27 506.98 42.24 506.84 42.24 506.84C42.25 506.83 42.28 506.77 42.34 506.66C44.59 502.47 45.84 500.14 46.09 499.68C46.09 499.68 76.3 510.08 74.5 514.48C74 515.72 73.62 517 73.37 518.32Z" id="ftZLMJFz"></path><path d="M120.96 604.33C120.96 604.33 99.98 605.01 100.73 604.33C100.73 604.33 101.42 598.53 101.42 598.53C91.22 584.61 99.92 578.96 99.92 578.96C99.92 578.96 95.36 557.04 94.54 548.91C93.96 543.23 93.25 527.97 92.87 519.26C92.7 515.51 92.61 512.93 92.61 512.93C93.16 512.82 95.94 512.26 100.94 511.25L102.01 511.04C114.07 508.62 120.77 507.27 122.11 507C122.11 507 122.66 510.75 123.04 513.82C123.22 515.12 123.33 516.44 123.35 517.76C123.22 519.26 123.35 523.95 123.35 523.95C123.42 525.36 123.97 536.61 124.03 538.02C123.59 539.49 123.36 541.03 123.35 542.57C123.49 544.36 126.1 570 126.1 570C126.1 570 130.65 585.3 129.1 586.4C127.55 587.5 131.3 601.33 131.3 601.33C129.23 601.93 124.56 601.19 120.96 604.33Z" id="f2QFZwBGp9"></path><path d="M97.47 240.92C89.03 246 78.43 245.8 70.18 240.41C69.96 236.72 69.52 233.06 68.85 229.43C68.85 229.43 99.73 230.11 97.94 234.67C97.41 236.01 97.33 238.32 97.47 240.92Z" id="bomtmVSK"></path><path d="M108.61 226.07C104.22 239.53 89.74 246.88 76.28 242.48C65.95 239.11 58.87 229.59 58.6 218.73C58.6 218.52 58.6 218.32 58.6 218.12C58.36 203.96 69.64 192.28 83.8 192.04C97.96 191.8 109.64 203.08 109.88 217.24C109.88 217.53 109.88 217.82 109.88 218.12C109.88 220.82 109.45 223.5 108.61 226.07Z" id="a8XeZQnuGM"></path><path d="M68.85 251.91C69.56 250.41 69.98 248.8 70.09 247.14C70.99 247.89 75.51 251.59 83.63 258.27L92.01 265.14C95.83 255.41 97.95 250.01 98.38 248.93C98.92 252.33 99.46 254.92 99.46 254.92C99.46 254.92 97.57 257.57 96.46 257.71C95.35 257.85 102.48 279.87 88.29 274.39C78.4 270.54 65.68 257.84 68.85 251.91Z" id="cewQdeIzd"></path><path d="M112 513.52L97.25 514.48L59.07 404.34L65.33 273.58L66.65 245.95L83.63 259.9L92.02 266.77L98.57 250.08L110.76 260.71L123.31 323.57L123.31 323.57L112 513.52Z" id="a3gkpA3iHY"></path><path d="M73.37 518.32C62.63 516.66 52.21 513.41 42.45 508.66C42.44 508.65 42.37 508.62 42.25 508.56L42.31 507.35L42.35 506.72C44.6 502.53 45.85 500.2 46.1 499.74C46.1 499.74 76.3 510.08 74.5 514.48C74 515.72 73.62 517 73.37 518.32Z" id="bG0hraR5j"></path><path d="M101.11 518.35C98.37 518.82 95.6 519.13 92.82 519.29C92.66 515.55 92.56 512.97 92.56 512.97C93.12 512.86 95.9 512.3 100.89 511.29C101.01 515.06 101.08 517.41 101.11 518.35Z" id="eGDjtXdS3"></path><path d="M102.07 515.82C102.06 515.51 102.03 513.92 101.97 511.07C114.02 508.65 120.72 507.31 122.06 507.04C122.06 507.04 122.62 510.75 122.99 513.85C117.66 515.24 109.44 516.8 102.07 515.82Z" id="c7QkDh3i71"></path><path d="M101.94 516.69C71.21 521.94 43.08 506.9 43.08 506.9C43.1 506.39 43.32 502.31 43.35 501.8C43.35 501.8 44.04 444.04 42.11 439.61C42.11 439.61 38.67 412.73 39.77 409.28C39.77 409.28 35.77 354.15 35.77 354.15C35.72 352.75 35.44 345.75 34.95 333.16L4.78 320.94C12.87 304.07 17.37 294.7 18.27 292.83C20.09 288.89 21.66 284.83 22.96 280.69C25.3 273.39 36.19 266.22 36.19 266.22C36.19 266.22 47.36 259.06 51.77 259.33C56.18 259.6 61.97 252.99 61.97 252.99C66.24 242.1 70.11 247.03 70.11 247.03C70.11 247.55 70.11 247.03 69.9 248.64C68.4 260.59 94.13 298.36 94.5 299.03C94.5 299.03 94.5 299.03 94.5 299.03L96.95 358.72L99.43 434.25C100.76 478.22 101.6 505.7 101.94 516.69Z" id="b59BtH84Y7"></path><path d="M101.11 516.69C70.39 521.94 42.25 506.9 42.25 506.9C42.27 506.39 42.5 502.31 42.52 501.8C42.52 501.8 43.22 444.04 41.28 439.61C41.28 439.61 37.84 412.73 38.94 409.28C38.94 409.28 34.95 354.15 34.95 354.15C34.89 352.75 34.62 345.75 34.12 333.16L3.93 320.9C12.03 304.03 16.52 294.66 17.42 292.78C19.24 288.84 20.81 284.79 22.11 280.65C24.45 273.35 35.35 266.18 35.35 266.18C35.35 266.18 46.51 259.01 50.92 259.28C55.32 259.55 61.11 252.94 61.11 252.94C65.39 242.06 70.11 246.99 70.11 246.99C70.11 247.5 69.66 247.74 69.9 248.6C73.19 260.19 93.3 298.31 93.67 298.98C93.67 298.98 93.67 298.98 93.67 298.98L96.15 358.67L98.63 434.21C99.95 478.2 100.78 505.7 101.11 516.69Z" id="ahyG7TuEp"></path><path d="M72.02 279.32C72.02 278.86 72.02 275.23 72.02 274.77C71.39 273.27 67.6 274.19 64.53 275.24C64.62 273.39 65.06 264.18 65.85 247.61C66.75 248.35 67.25 248.77 67.35 248.85C70.63 260.44 92.45 300.01 92.83 300.68C89.53 299.3 76.19 283.59 72.02 279.32Z" id="baHk20n5h"></path><path d="M72.85 277.66C72.85 277.21 72.85 273.57 72.85 273.11C72.21 271.62 68.43 272.53 65.35 273.58C65.44 271.74 65.89 262.53 66.68 245.95C67.58 246.7 68.08 247.11 68.18 247.2C71.47 258.78 93.3 298.37 93.66 299.03C90.35 297.65 77.01 281.94 72.85 277.66Z" id="ajk8hUhgR"></path><path d="M43.08 398.69C43.49 398.69 64.44 396.49 64.44 396.49C64.44 396.49 77.13 421.43 76.29 427.5C75.46 433.57 73.96 438.94 68.85 437.99C63.75 437.04 41.39 438.74 41.39 438.74C41.73 430.73 42.74 406.7 43.08 398.69Z" id="a4Cm0xfnS"></path><path d="M42.25 397.04C42.66 397.04 63.61 394.83 63.61 394.83C63.61 394.83 76.29 419.78 75.46 425.85C74.64 431.91 73.12 437.29 68.02 436.34C62.93 435.39 40.56 437.09 40.56 437.09C40.9 429.08 41.91 405.05 42.25 397.04Z" id="b14bofgmWE"></path><path d="M58.03 385.32C58.03 385.32 77.26 395.66 77.67 398.81C77.67 398.81 67.89 397.43 65.68 396.89C64.23 396.54 62.76 396.31 61.27 396.2C60.29 396.22 55.39 396.36 46.58 396.59C52.69 390.58 56.51 386.83 58.03 385.32Z" id="a5PuioVDCj"></path><path d="M87.47 297.92C86.35 297.92 85.44 298.83 85.44 299.95C85.44 301.06 86.35 301.97 87.47 301.97C88.58 301.97 89.49 301.06 89.49 299.95C89.49 298.83 88.58 297.92 87.47 297.92Z" id="c20TwF7ED9"></path><path d="M87.47 297.1C86.35 297.1 85.44 298.01 85.44 299.12C85.44 300.24 86.35 301.15 87.47 301.15C88.58 301.15 89.49 300.24 89.49 299.12C89.49 298.01 88.58 297.1 87.47 297.1Z" id="b43Eygj4HP"></path><path d="M91.19 385.5C90.07 385.5 89.17 386.41 89.17 387.53C89.17 388.64 90.07 389.55 91.19 389.55C92.31 389.55 93.21 388.64 93.21 387.53C93.21 386.41 92.31 385.5 91.19 385.5Z" id="c4kRcMmDgp"></path><path d="M91.19 384.67C90.07 384.67 89.17 385.58 89.17 386.7C89.17 387.81 90.07 388.72 91.19 388.72C92.31 388.72 93.21 387.81 93.21 386.7C93.21 385.58 92.31 384.67 91.19 384.67Z" id="g2gdybZCZ"></path><path d="M89.48 341.71C88.37 341.71 87.46 342.62 87.46 343.74C87.46 344.85 88.37 345.76 89.48 345.76C90.6 345.76 91.51 344.85 91.51 343.74C91.51 342.62 90.6 341.71 89.48 341.71Z" id="b5TAuf0D4X"></path><path d="M89.48 340.89C88.37 340.89 87.46 341.8 87.46 342.91C87.46 344.03 88.37 344.94 89.48 344.94C90.6 344.94 91.51 344.03 91.51 342.91C91.51 341.8 90.6 340.89 89.48 340.89Z" id="d3DEz9aLqJ"></path><path d="M136.12 398.81C136.12 398.81 136.25 402.12 136.25 402.12C136.25 402.12 132.82 404.13 134.33 405.94C134.33 405.94 134.88 415.95 134.88 415.95C134.47 416.63 131.16 422.11 130.75 422.8C130.75 422.8 130.99 427.21 131.01 433.17C131.01 442.48 130.46 455.56 127.44 461.53C127.48 466.42 127.81 505.57 127.86 510.47C127.86 510.47 113.37 515.76 101.25 514.15C101.07 506.29 99.63 443.47 99.45 435.62C99.45 435.62 102.07 391.09 103.04 382.54C103.6 378.11 103.83 373.64 103.73 369.17C103.73 369.17 103.32 355.8 101.93 349.6C101.93 349.6 100.43 322.72 100.28 315.28C100.21 311.72 100.4 301.33 100.61 291.46C100.84 280.66 101.1 270.48 101.1 270.48C100.83 268.31 98.64 251 98.37 248.84C98.37 248.84 101.1 248.56 101.93 249.66C102.3 250.01 102.7 250.31 103.13 250.58C103.13 250.58 103.13 250.58 103.13 250.58C107.85 253.77 124.53 263.59 124.53 263.59C124.53 263.59 133.76 267.26 135.97 272.52C138.18 277.78 139.72 281.51 140.79 283.01C141.86 284.51 142.44 291.56 142.44 291.56C142.44 291.56 145.62 304.52 148.1 306.71C150.58 308.91 152.4 322.88 152.4 322.88C150.2 324.6 132.67 338.39 130.48 340.11C130.48 340.11 128.55 368.78 128.14 369.89C127.73 371 136.12 395.78 136.12 395.78C136.12 396.38 137.5 397.84 136.12 398.81Z" id="c2mbVnxDLn"></path><path d="M136.95 398.81C136.95 398.81 137.08 402.12 137.08 402.12C137.08 402.12 133.66 404.15 135.16 405.97C136.66 407.78 135.72 415.97 135.72 415.97C135.3 416.66 131.99 422.13 131.58 422.82C131.58 422.82 131.83 427.23 131.85 433.2C131.85 442.5 131.3 455.59 128.27 461.55C128.32 466.45 128.65 505.6 128.69 510.49C128.69 510.49 114.18 515.78 102.07 514.17C101.89 506.32 100.46 443.49 100.28 435.64C100.28 435.64 102.9 391.11 103.87 382.57C104.44 378.13 104.66 373.66 104.55 369.19C104.55 369.19 104.14 355.82 102.76 349.62C102.76 349.62 101.26 322.74 101.1 315.3C101.04 311.74 101.23 301.36 101.43 291.48C101.67 280.68 101.93 270.5 101.93 270.5C101.57 268.31 98.68 250.76 98.32 248.57C98.32 248.57 101.93 248.57 102.76 249.68C103.13 250.03 103.53 250.34 103.96 250.61C103.96 250.61 103.96 250.61 103.96 250.61C108.68 253.8 125.37 263.61 125.37 263.61C125.37 263.61 134.59 267.28 136.8 272.55C139.01 277.81 140.55 281.54 141.63 283.04C142.71 284.53 143.28 291.58 143.28 291.58C143.28 291.58 146.45 304.54 148.93 306.74C151.41 308.93 153.2 322.87 153.2 322.87C151.01 324.59 133.48 338.38 131.29 340.1C131.29 340.1 129.36 368.77 128.94 369.88C128.52 370.99 136.95 395.78 136.95 395.78C136.95 396.38 138.32 397.84 136.95 398.81Z" id="c3gh5WyUM2"></path><path d="M110.7 276.86L112.68 282.63C106.43 288.92 102.96 292.42 102.27 293.12C102.5 282.33 102.76 272.14 102.76 272.14C102.4 269.95 99.51 252.4 99.15 250.21C99.15 250.21 102.76 250.21 103.59 251.32C103.96 251.67 104.36 251.98 104.79 252.24C104.79 252.24 104.79 252.24 104.79 252.24L113.65 277.79L110.7 276.86Z" id="b29kvr9gF"></path><path d="M109.87 275.21L111.86 280.97C105.61 287.27 102.14 290.77 101.44 291.47C101.67 280.67 101.94 270.48 101.94 270.48C101.57 268.29 98.68 250.75 98.32 248.55C98.32 248.55 101.94 248.55 102.76 249.67C103.13 250.02 103.53 250.32 103.96 250.59C103.96 250.59 103.96 250.59 103.96 250.59L112.82 276.13L109.87 275.21Z" id="eyExgIdNT"></path><path d="M108.61 226.07C108.33 226.11 108.03 226.04 107.8 225.86C107.61 219.12 104.29 212.79 100.21 207.4C99.06 205.77 97.67 204.33 96.08 203.13C94.48 201.93 92.49 201.36 90.49 201.55C88.25 201.85 86.26 203.38 83.99 203.58C80.99 203.83 78.31 201.75 75.34 201.65C72.89 201.67 70.57 202.74 68.97 204.6C67.41 206.45 66.25 208.6 65.56 210.92C64.39 214.44 63.75 218.12 63.66 221.83C63.62 223.93 63.42 226.56 61.47 227.32C61.77 224.2 60.75 221.1 58.65 218.77C58.64 218.77 58.61 218.73 58.6 218.73C58.6 218.52 58.6 218.32 58.6 218.12C58.36 203.96 69.64 192.28 83.8 192.04C97.96 191.8 109.64 203.08 109.88 217.24C109.88 217.53 109.88 217.82 109.88 218.12C109.88 220.82 109.45 223.5 108.61 226.07Z" id="jz6EUFods"></path><path d="M82.4 176.43C80.33 177.05 78.37 178.04 76.26 178.54C71.77 179.63 66.52 178.45 62.66 181.08C60.52 182.58 59.23 184.95 58.03 187.25C57.73 187.82 55.34 192.39 55.04 192.96C53.4 196.09 51.75 199.26 51.07 202.7C50.39 206.14 50.8 209.99 52.98 212.76C54.57 214.77 56.92 216.04 58.64 217.94C60.73 220.27 61.75 223.36 61.46 226.48C63.41 225.73 63.6 223.09 63.65 220.99C63.73 217.28 64.37 213.6 65.55 210.08C66.23 207.76 67.39 205.61 68.96 203.76C70.56 201.91 72.87 200.83 75.32 200.81C78.32 200.91 81.01 202.98 83.98 202.73C86.22 202.54 88.22 201.01 90.48 200.71C92.47 200.52 94.47 201.08 96.07 202.29C97.65 203.49 99.04 204.93 100.18 206.56C104.27 211.95 107.59 218.26 107.79 225.02C108.64 225.65 109.86 224.84 110.28 223.88C110.7 222.92 110.71 221.79 111.24 220.88C111.86 219.82 113.03 219.26 113.96 218.47C116.29 216.45 116.88 213.06 116.79 209.98C116.7 206.9 116.1 203.77 116.68 200.75C117.03 198.89 117.83 197.15 118.26 195.31C118.7 193.48 118.75 191.42 117.72 189.84C116.23 187.51 113.07 187.06 110.32 186.84C107.2 186.57 104.4 186.91 102.41 184.28C101.47 182.91 100.42 181.62 99.26 180.43C98.86 180.04 94.86 177.57 94.86 177.4C90.96 175.57 86.53 175.23 82.4 176.43Z" id="a1yr384r8r"></path><path d="M13.41 335.42L5.58 320.94C4.09 334.35 3.27 341.79 3.1 343.28C3.1 343.28 4.48 353.2 4.2 354.72C4.2 354.72 9.85 369.88 9.85 369.88C9.85 369.88 29.43 404.75 37.43 406.55C39.23 405.27 48.23 398.83 64.44 387.25C60.14 381.79 57.75 378.76 57.28 378.15C57.28 378.15 54.8 377.19 54.18 378.15C54.18 378.15 40.87 355.27 39.5 353.61C38.12 351.96 38.39 348.65 38.39 348.65C38.39 348.65 36.32 346.45 37.01 344.38C37.7 342.31 33.01 335.14 33.01 335.14C33.3 334.88 34.72 333.54 37.29 331.15L13.41 335.42Z" id="a7t0HgrYo"></path><path d="M5.99 319.29L3.93 320.94C2.44 334.35 1.61 341.79 1.45 343.28C1.45 343.28 2.82 353.2 2.55 354.72C2.55 354.72 8.2 369.88 8.2 369.88C8.2 369.88 27.78 404.75 35.77 406.55C37.57 405.27 46.58 398.83 62.79 387.25C58.49 381.79 56.1 378.76 55.62 378.15C55.62 378.15 53.14 377.19 52.52 378.15C52.52 378.15 39.22 355.27 37.84 353.61C36.46 351.96 36.74 348.65 36.74 348.65C36.74 348.65 34.67 346.45 35.36 344.38C36.05 342.31 31.36 335.14 31.36 335.14C31.64 334.88 33.07 333.54 35.63 331.15L5.99 319.29Z" id="ba7khq50hf"></path><path d="M134.88 416.8C134.47 417.48 131.16 422.96 130.75 423.64C130.75 423.64 130.99 428.06 131.01 434.02C130.31 434.24 124.75 435.98 124.06 436.19C121.88 436.87 119.56 435.66 118.88 433.48C118.75 433.05 118.68 432.59 118.7 432.13C118.78 429.55 119.18 416.66 119.9 393.45C129.63 397.18 135.04 399.24 136.12 399.66C134.74 400.62 136.25 402.97 136.25 402.97C136.25 402.97 132.82 404.98 134.33 406.8C135.83 408.62 134.77 414.8 134.88 416.8Z" id="c1QpDiw0R"></path><path d="M135.72 415.97C135.3 416.66 131.99 422.13 131.58 422.82C131.58 422.82 131.83 427.23 131.85 433.2C131.14 433.42 125.48 435.19 124.77 435.41C122.63 436.07 120.37 434.88 119.7 432.74C119.57 432.32 119.51 431.87 119.52 431.42C119.6 428.84 120.01 415.9 120.73 392.63C130.47 396.35 135.88 398.42 136.96 398.83C135.57 399.79 137.09 402.14 137.09 402.14C137.09 402.14 133.66 404.15 135.16 405.97C136.66 407.79 135.6 413.97 135.72 415.97Z" id="b1L4lxIH7"></path><path d="M140.53 387.53C140.53 387.53 139.43 394.57 136.67 394.98C136.67 394.98 132.68 406.36 129.93 405.97C129.93 405.97 129 395.78 129.1 393.87C129.1 393.87 126.1 384.09 128.42 382.3C128.42 382.3 138.06 382.3 138.06 382.3C138.56 383.34 140.04 386.49 140.53 387.53Z" id="dzXTDvRg1"></path><path d="M146.4 333.35C149.52 327.06 151.25 323.56 151.6 322.86C151.6 322.86 153.67 330.86 153.67 335.13C153.67 335.13 156.56 339.82 156.56 339.82C156.56 339.82 159.73 343.56 158.06 346.29C158.06 346.29 155.71 355.81 155.71 355.81C155.71 355.81 156.26 368.76 153.78 370.55C153.78 370.55 150.78 376.62 150.78 376.62C150.78 376.62 146.23 384.75 146.37 386.69C146.37 386.69 140.03 401.71 140.03 401.71C140.03 401.71 143.2 385.44 124.73 378.42C124.73 378.42 124.59 372.89 125.97 371.38C127.35 369.87 129.5 369.18 128.15 361.53C126.8 353.88 127.76 344.73 127.76 342.9C127.76 341.06 131.89 329.61 131.89 329.61C133.83 330.11 138.66 331.36 146.4 333.35Z" id="c6JSf87Zjq"></path><path d="M148.65 321.36C151.37 322.26 152.89 322.76 153.19 322.86C153.19 322.86 155.26 330.86 155.26 335.13C155.26 335.13 158.16 339.82 158.16 339.82C158.16 339.82 161.33 343.56 159.66 346.29C159.66 346.29 157.32 355.81 157.32 355.81C157.32 355.81 157.86 368.76 155.38 370.55C155.38 370.55 152.35 376.62 152.35 376.62C152.35 376.62 147.8 384.75 147.94 386.69C147.94 386.69 141.6 401.71 141.6 401.71C141.6 401.71 144.77 385.44 126.3 378.42C126.3 378.42 126.16 372.89 127.54 371.38C128.92 369.87 131.07 369.18 129.72 361.53C128.37 353.88 129.33 344.73 129.33 342.9C129.33 341.06 133.47 329.61 133.47 329.61C135.49 328.51 140.55 325.76 148.65 321.36Z" id="f5s0S7aEfc"></path><path d="M60.34 592.02C65.09 595.33 48.35 593.27 48.35 593.27C50.75 593.02 55.59 588.72 60.34 592.02Z" id="b1eGuWbv1J"></path><path d="M116.38 584.17C121.76 589.96 104.6 579.2 104.6 579.2C106.95 580.19 111 578.38 116.38 584.17Z" id="bQ5m48TAr"></path><path d="M111.25 219.25C110.73 220.15 110.71 221.27 110.29 222.24C109.87 223.22 108.65 224.01 107.8 223.4C107.61 216.65 104.28 210.32 100.2 204.93C99.06 203.3 97.67 201.86 96.08 200.66C94.48 199.45 92.48 198.89 90.49 199.08C88.24 199.38 86.26 200.91 83.99 201.1C80.99 201.35 78.3 199.28 75.33 199.17C72.88 199.2 70.57 200.28 68.97 202.13C67.41 203.98 66.25 206.13 65.56 208.45C64.39 211.97 63.75 215.65 63.66 219.36C63.62 221.45 63.42 224.06 61.49 224.84C61.53 225.39 61.53 225.95 61.49 226.5C63.44 225.75 63.63 223.11 63.68 221.01C63.76 217.3 64.4 213.63 65.58 210.1C66.26 207.78 67.42 205.63 68.99 203.78C70.58 201.93 72.9 200.85 75.34 200.83C78.34 200.93 81.04 203 84.01 202.75C86.25 202.57 88.25 201.03 90.5 200.73C92.5 200.54 94.5 201.11 96.1 202.31C97.68 203.51 99.07 204.95 100.21 206.58C104.3 211.97 107.62 218.29 107.82 225.05C108.67 225.67 109.89 224.86 110.31 223.9C110.73 222.94 110.74 221.82 111.27 220.9C111.88 219.85 113.06 219.28 113.99 218.49C116.32 216.47 116.91 213.08 116.82 210C116.82 209.9 116.82 209.81 116.82 209.72C116.68 212.38 115.96 215.1 113.97 216.83C113.05 217.62 111.86 218.19 111.25 219.25Z" id="beGee1yrC"></path><path d="M53 211.12C51.67 209.35 50.91 207.21 50.82 204.99C50.58 207.76 51.36 210.53 53 212.77C54.58 214.79 56.93 216.05 58.66 217.95C60.31 219.8 61.3 222.16 61.48 224.63C61.71 221.59 60.69 218.57 58.66 216.29C56.93 214.4 54.58 213.13 53 211.12Z" id="a1Uy2sP6TN"></path><path d="M116.69 199.1C116.48 200.34 116.4 201.6 116.46 202.85C116.48 202.14 116.56 201.43 116.69 200.72C117.05 198.87 117.84 197.13 118.28 195.29C118.54 194.28 118.62 193.23 118.53 192.19C118.48 192.69 118.4 193.18 118.28 193.67C117.84 195.51 117.05 197.25 116.69 199.1Z" id="ekE5Mm59z"></path><path d="M405.59 30.21L190.69 136.05L381.79 128.3L502.19 155.89L560.56 342.52L514.11 278.74L221.62 255.39L378.58 242.53L298 183.47L327.8 345.37" id="bHR6RmsZU"></path><path d="M233.15 257.42L217.48 383.85L556.32 340.47L433.32 447.54L332.03 345.37L438.16 345.37L520.14 274.02L456.23 248.58L389.91 136.05L374.24 248.58L502.19 159.83L410.61 30.21L381.79 126.01L293.45 176.88L190.69 136.05L221.62 260.49" id="f41yocQLee"></path><path d="M393.48 30.21C393.48 38.44 400.15 45.1 408.37 45.1C416.6 45.1 423.27 38.44 423.27 30.21C423.27 21.99 416.6 15.32 408.37 15.32C400.15 15.32 393.48 21.99 393.48 30.21Z" id="c1LQEizCYF"></path><path d="M393.48 30.21C393.48 38.44 400.15 45.1 408.37 45.1C416.6 45.1 423.27 38.44 423.27 30.21C423.27 21.99 416.6 15.32 408.37 15.32C400.15 15.32 393.48 21.99 393.48 30.21Z" id="a1dHbDfeSJ"></path><path d="M206.73 384.23C206.73 392.45 213.39 399.13 221.62 399.13C229.85 399.13 236.52 392.45 236.52 384.23C236.52 376 229.85 369.34 221.62 369.34C213.39 369.34 206.73 376 206.73 384.23Z" id="biuefB5CV"></path><path d="M206.73 384.23C206.73 392.45 213.39 399.13 221.62 399.13C229.85 399.13 236.52 392.45 236.52 384.23C236.52 376 229.85 369.34 221.62 369.34C213.39 369.34 206.73 376 206.73 384.23Z" id="a2aykJ0q95"></path><path d="M208.78 256.24C208.78 264.46 215.44 271.13 223.67 271.13C231.89 271.13 238.57 264.46 238.57 256.24C238.57 248.01 231.89 241.34 223.67 241.34C215.44 241.34 208.78 248.01 208.78 256.24Z" id="b2SNDqE3nV"></path><path d="M208.78 256.24C208.78 264.46 215.44 271.13 223.67 271.13C231.89 271.13 238.57 264.46 238.57 256.24C238.57 248.01 231.89 241.34 223.67 241.34C215.44 241.34 208.78 248.01 208.78 256.24Z" id="kguOuyzyK"></path><path d="M487.3 155.89C487.3 164.11 493.97 170.78 502.19 170.78C510.42 170.78 517.09 164.11 517.09 155.89C517.09 147.66 510.42 141 502.19 141C493.97 141 487.3 147.66 487.3 155.89Z" id="huAyvGBKe"></path><path d="M487.3 155.89C487.3 164.11 493.97 170.78 502.19 170.78C510.42 170.78 517.09 164.11 517.09 155.89C517.09 147.66 510.42 141 502.19 141C493.97 141 487.3 147.66 487.3 155.89Z" id="b23eFrVfxu"></path><path d="M545.67 341.23C545.67 349.45 552.33 356.12 560.56 356.12C568.79 356.12 575.45 349.45 575.45 341.23C575.45 333 568.79 326.34 560.56 326.34C552.33 326.34 545.67 333 545.67 341.23Z" id="j4o5OpGS1"></path><path d="M545.67 341.23C545.67 349.45 552.33 356.12 560.56 356.12C568.79 356.12 575.45 349.45 575.45 341.23C575.45 333 568.79 326.34 560.56 326.34C552.33 326.34 545.67 333 545.67 341.23Z" id="c4d3Mkjtfc"></path><path d="M502.32 275.4C502.32 283.62 508.99 290.29 517.22 290.29C525.44 290.29 532.11 283.62 532.11 275.4C532.11 267.17 525.44 260.49 517.22 260.49C508.99 260.49 502.32 267.17 502.32 275.4Z" id="cfqdut63m"></path><path d="M502.32 275.4C502.32 283.62 508.99 290.29 517.22 290.29C525.44 290.29 532.11 283.62 532.11 275.4C532.11 267.17 525.44 260.49 517.22 260.49C508.99 260.49 502.32 267.17 502.32 275.4Z" id="dZRWUhHpR"></path><path d="M175.8 133.33C175.8 141.55 182.46 148.22 190.69 148.22C198.91 148.22 205.58 141.55 205.58 133.33C205.58 125.1 198.91 118.44 190.69 118.44C182.46 118.44 175.8 125.1 175.8 133.33Z" id="ih0MxBYAf"></path><path d="M175.8 133.33C175.8 141.55 182.46 148.22 190.69 148.22C198.91 148.22 205.58 141.55 205.58 133.33C205.58 125.1 198.91 118.44 190.69 118.44C182.46 118.44 175.8 125.1 175.8 133.33Z" id="a1kdVdRat"></path><path d="M415.24 443.81C415.24 452.03 421.92 458.71 430.14 458.71C438.37 458.71 445.03 452.03 445.03 443.81C445.03 435.58 438.37 428.91 430.14 428.91C421.92 428.91 415.24 435.58 415.24 443.81Z" id="c2AQZ7WFc8"></path><path d="M415.24 443.81C415.24 452.03 421.92 458.71 430.14 458.71C438.37 458.71 445.03 452.03 445.03 443.81C445.03 435.58 438.37 428.91 430.14 428.91C421.92 428.91 415.24 435.58 415.24 443.81Z" id="d35KZarBAi"></path><path d="M312.89 345.37C312.89 353.59 319.57 360.26 327.8 360.26C336.02 360.26 342.69 353.59 342.69 345.37C342.69 337.14 336.02 330.48 327.8 330.48C319.57 330.48 312.89 337.14 312.89 345.37Z" id="abLIkXEIs"></path><path d="M312.89 345.37C312.89 353.59 319.57 360.26 327.8 360.26C336.02 360.26 342.69 353.59 342.69 345.37C342.69 337.14 336.02 330.48 327.8 330.48C319.57 330.48 312.89 337.14 312.89 345.37Z" id="b7OtNSJgy"></path><path d="M366.9 128.3C366.9 136.53 373.57 143.19 381.79 143.19C390.02 143.19 396.69 136.53 396.69 128.3C396.69 120.08 390.02 113.41 381.79 113.41C373.57 113.41 366.9 120.08 366.9 128.3Z" id="bhY8DG3yd"></path><path d="M366.9 128.3C366.9 136.53 373.57 143.19 381.79 143.19C390.02 143.19 396.69 136.53 396.69 128.3C396.69 120.08 390.02 113.41 381.79 113.41C373.57 113.41 366.9 120.08 366.9 128.3Z" id="bsM4ucmj3"></path><path d="M423.27 348.46C423.27 356.68 429.93 363.36 438.16 363.36C446.38 363.36 453.05 356.68 453.05 348.46C453.05 340.23 446.38 333.56 438.16 333.56C429.93 333.56 423.27 340.23 423.27 348.46Z" id="abhcgDfdO"></path><path d="M423.27 348.46C423.27 356.68 429.93 363.36 438.16 363.36C446.38 363.36 453.05 356.68 453.05 348.46C453.05 340.23 446.38 333.56 438.16 333.56C429.93 333.56 423.27 340.23 423.27 348.46Z" id="c2a4LLJCsy"></path><path d="M283.11 176.88C283.11 185.11 289.78 191.78 298 191.78C306.23 191.78 312.89 185.11 312.89 176.88C312.89 168.66 306.23 161.99 298 161.99C289.78 161.99 283.11 168.66 283.11 176.88Z" id="b3qIXuuSD"></path><path d="M283.11 176.88C283.11 185.11 289.78 191.78 298 191.78C306.23 191.78 312.89 185.11 312.89 176.88C312.89 168.66 306.23 161.99 298 161.99C289.78 161.99 283.11 168.66 283.11 176.88Z" id="a4b7r0dsjG"></path><path d="M363.69 242.53C363.69 250.76 370.36 257.42 378.58 257.42C386.81 257.42 393.48 250.76 393.48 242.53C393.48 234.31 386.81 227.63 378.58 227.63C370.36 227.63 363.69 234.31 363.69 242.53Z" id="fGAkRCvz9"></path><path d="M363.69 242.53C363.69 250.76 370.36 257.42 378.58 257.42C386.81 257.42 393.48 250.76 393.48 242.53C393.48 234.31 386.81 227.63 378.58 227.63C370.36 227.63 363.69 234.31 363.69 242.53Z" id="eCz5rMjkc"></path><path d="M438.16 245.6C438.16 253.83 444.82 260.49 453.05 260.49C461.27 260.49 467.95 253.83 467.95 245.6C467.95 237.38 461.27 230.71 453.05 230.71C444.82 230.71 438.16 237.38 438.16 245.6Z" id="b1lX6s5NdQ"></path><path d="M438.16 245.6C438.16 253.83 444.82 260.49 453.05 260.49C461.27 260.49 467.95 253.83 467.95 245.6C467.95 237.38 461.27 230.71 453.05 230.71C444.82 230.71 438.16 237.38 438.16 245.6Z" id="a2lejH2I8J"></path></defs><g><g><g><use xlink:href="#arscA28bV" opacity="1" fill="#ffa7c4" fill-opacity="1"></use><g><use xlink:href="#arscA28bV" opacity="1" fill-opacity="0" stroke="#000000" stroke-width="1" stroke-opacity="0"></use></g></g><g><use xlink:href="#f5YVi2TsV" opacity="1" fill="url(#gradientd3vM2xUzU7)"></use><g><use xlink:href="#f5YVi2TsV" opacity="1" fill-opacity="0" stroke="#000000" stroke-width="1" stroke-opacity="0"></use></g></g><g><use xlink:href="#acyYLJnGy" opacity="1" fill="#ffffff" fill-opacity="1"></use><g><use xlink:href="#acyYLJnGy" opacity="1" fill-opacity="0" stroke="#000000" stroke-width="1" stroke-opacity="0"></use></g></g><g><use xlink:href="#a57sjf5r45" opacity="1" fill="#000000" fill-opacity="1"></use><g><use xlink:href="#a57sjf5r45" opacity="1" fill-opacity="0" stroke="#000000" stroke-width="1" stroke-opacity="0"></use></g></g><g><use xlink:href="#a1wGqIyZmk" opacity="1" fill="#ffffff" fill-opacity="1"></use><g><use xlink:href="#a1wGqIyZmk" opacity="1" fill-opacity="0" stroke="#000000" stroke-width="1" stroke-opacity="0"></use></g></g><g><use xlink:href="#d3Nm1kYuKt" opacity="1" fill="#ffffff" fill-opacity="1"></use><g><use xlink:href="#d3Nm1kYuKt" opacity="1" fill-opacity="0" stroke="#000000" stroke-width="1" stroke-opacity="0"></use></g></g><g><use xlink:href="#b6MMheVL9b" opacity="1" fill="#000000" fill-opacity="1"></use><g><use xlink:href="#b6MMheVL9b" opacity="1" fill-opacity="0" stroke="#000000" stroke-width="1" stroke-opacity="0"></use></g></g><g><use xlink:href="#d1mQBLY23" opacity="1" fill="#000000" fill-opacity="1"></use><g><use xlink:href="#d1mQBLY23" opacity="1" fill-opacity="0" stroke="#000000" stroke-width="1" stroke-opacity="0"></use></g></g><g><use xlink:href="#apOqF9rXS" opacity="1" fill="#cf6f80" fill-opacity="1"></use><g><use xlink:href="#apOqF9rXS" opacity="1" fill-opacity="0" stroke="#000000" stroke-width="1" stroke-opacity="0"></use></g></g><g><use xlink:href="#amlUdGo7v" opacity="1" fill="#000000" fill-opacity="1"></use><g><use xlink:href="#amlUdGo7v" opacity="1" fill-opacity="0" stroke="#000000" stroke-width="1" stroke-opacity="0"></use></g></g><g><use xlink:href="#d3Ike4Tjgf" opacity="1" fill="#000000" fill-opacity="1"></use><g><use xlink:href="#d3Ike4Tjgf" opacity="1" fill-opacity="0" stroke="#000000" stroke-width="1" stroke-opacity="0"></use></g></g><g><use xlink:href="#ftZLMJFz" opacity="1" fill="#ffa7c4" fill-opacity="1"></use><g><use xlink:href="#ftZLMJFz" opacity="1" fill-opacity="0" stroke="#000000" stroke-width="1" stroke-opacity="0"></use></g></g><g><use xlink:href="#f2QFZwBGp9" opacity="1" fill="#ffa7c4" fill-opacity="1"></use><g><use xlink:href="#f2QFZwBGp9" opacity="1" fill-opacity="0" stroke="#000000" stroke-width="1" stroke-opacity="0"></use></g></g><g><use xlink:href="#bomtmVSK" opacity="1" fill="#000000" fill-opacity="1"></use><g><use xlink:href="#bomtmVSK" opacity="1" fill-opacity="0" stroke="#000000" stroke-width="1" stroke-opacity="0"></use></g></g><g><use xlink:href="#a8XeZQnuGM" opacity="1" fill="#cf6f80" fill-opacity="1"></use><g><use xlink:href="#a8XeZQnuGM" opacity="1" fill-opacity="0" stroke="#000000" stroke-width="1" stroke-opacity="0"></use></g></g><g><use xlink:href="#cewQdeIzd" opacity="1" fill="#000000" fill-opacity="1"></use><g><use xlink:href="#cewQdeIzd" opacity="1" fill-opacity="0" stroke="#000000" stroke-width="1" stroke-opacity="0"></use></g></g><g><use xlink:href="#a3gkpA3iHY" opacity="1" fill="#ffa7c4" fill-opacity="1"></use><g><use xlink:href="#a3gkpA3iHY" opacity="1" fill-opacity="0" stroke="#000000" stroke-width="1" stroke-opacity="0"></use></g></g><g><use xlink:href="#bG0hraR5j" opacity="1" fill="#000000" fill-opacity="1"></use><g><use xlink:href="#bG0hraR5j" opacity="1" fill-opacity="0" stroke="#000000" stroke-width="1" stroke-opacity="0"></use></g></g><g><use xlink:href="#eGDjtXdS3" opacity="1" fill="#000000" fill-opacity="1"></use><g><use xlink:href="#eGDjtXdS3" opacity="1" fill-opacity="0" stroke="#000000" stroke-width="1" stroke-opacity="0"></use></g></g><g><use xlink:href="#c7QkDh3i71" opacity="1" fill="#000000" fill-opacity="1"></use><g><use xlink:href="#c7QkDh3i71" opacity="1" fill-opacity="0" stroke="#000000" stroke-width="1" stroke-opacity="0"></use></g></g><g><use xlink:href="#b59BtH84Y7" opacity="1" fill="#000000" fill-opacity="1"></use><g><use xlink:href="#b59BtH84Y7" opacity="1" fill-opacity="0" stroke="#000000" stroke-width="1" stroke-opacity="0"></use></g></g><g><use xlink:href="#ahyG7TuEp" opacity="1" fill="#ffffff" fill-opacity="1"></use><g><use xlink:href="#ahyG7TuEp" opacity="1" fill-opacity="0" stroke="#000000" stroke-width="1" stroke-opacity="0"></use></g></g><g><use xlink:href="#baHk20n5h" opacity="1" fill="#000000" fill-opacity="1"></use><g><use xlink:href="#baHk20n5h" opacity="1" fill-opacity="0" stroke="#000000" stroke-width="1" stroke-opacity="0"></use></g></g><g><use xlink:href="#ajk8hUhgR" opacity="1" fill="#ffffff" fill-opacity="1"></use><g><use xlink:href="#ajk8hUhgR" opacity="1" fill-opacity="0" stroke="#000000" stroke-width="1" stroke-opacity="0"></use></g></g><g><use xlink:href="#a4Cm0xfnS" opacity="1" fill="#000000" fill-opacity="1"></use><g><use xlink:href="#a4Cm0xfnS" opacity="1" fill-opacity="0" stroke="#000000" stroke-width="1" stroke-opacity="0"></use></g></g><g><use xlink:href="#b14bofgmWE" opacity="1" fill="#ffffff" fill-opacity="1"></use><g><use xlink:href="#b14bofgmWE" opacity="1" fill-opacity="0" stroke="#000000" stroke-width="1" stroke-opacity="0"></use></g></g><g><use xlink:href="#a5PuioVDCj" opacity="1" fill="#cf6f80" fill-opacity="1"></use><g><use xlink:href="#a5PuioVDCj" opacity="1" fill-opacity="0" stroke="#000000" stroke-width="1" stroke-opacity="0"></use></g></g><g><use xlink:href="#c20TwF7ED9" opacity="1" fill="#000000" fill-opacity="1"></use><g><use xlink:href="#c20TwF7ED9" opacity="1" fill-opacity="0" stroke="#000000" stroke-width="1" stroke-opacity="0"></use></g></g><g><use xlink:href="#b43Eygj4HP" opacity="1" fill="#3f3d56" fill-opacity="1"></use><g><use xlink:href="#b43Eygj4HP" opacity="1" fill-opacity="0" stroke="#000000" stroke-width="1" stroke-opacity="0"></use></g></g><g><use xlink:href="#c4kRcMmDgp" opacity="1" fill="#000000" fill-opacity="1"></use><g><use xlink:href="#c4kRcMmDgp" opacity="1" fill-opacity="0" stroke="#000000" stroke-width="1" stroke-opacity="0"></use></g></g><g><use xlink:href="#g2gdybZCZ" opacity="1" fill="#3f3d56" fill-opacity="1"></use><g><use xlink:href="#g2gdybZCZ" opacity="1" fill-opacity="0" stroke="#000000" stroke-width="1" stroke-opacity="0"></use></g></g><g><use xlink:href="#b5TAuf0D4X" opacity="1" fill="#000000" fill-opacity="1"></use><g><use xlink:href="#b5TAuf0D4X" opacity="1" fill-opacity="0" stroke="#000000" stroke-width="1" stroke-opacity="0"></use></g></g><g><use xlink:href="#d3DEz9aLqJ" opacity="1" fill="#3f3d56" fill-opacity="1"></use><g><use xlink:href="#d3DEz9aLqJ" opacity="1" fill-opacity="0" stroke="#000000" stroke-width="1" stroke-opacity="0"></use></g></g><g><use xlink:href="#c2mbVnxDLn" opacity="1" fill="#ffffff" fill-opacity="1"></use><g><use xlink:href="#c2mbVnxDLn" opacity="1" fill-opacity="0" stroke="#000000" stroke-width="1" stroke-opacity="0"></use></g></g><g><use xlink:href="#c3gh5WyUM2" opacity="1" fill="#ffffff" fill-opacity="1"></use><g><use xlink:href="#c3gh5WyUM2" opacity="1" fill-opacity="0" stroke="#000000" stroke-width="1" stroke-opacity="0"></use></g></g><g><use xlink:href="#b29kvr9gF" opacity="1" fill="#000000" fill-opacity="1"></use><g><use xlink:href="#b29kvr9gF" opacity="1" fill-opacity="0" stroke="#000000" stroke-width="1" stroke-opacity="0"></use></g></g><g><use xlink:href="#eyExgIdNT" opacity="1" fill="#ffffff" fill-opacity="1"></use><g><use xlink:href="#eyExgIdNT" opacity="1" fill-opacity="0" stroke="#000000" stroke-width="1" stroke-opacity="0"></use></g></g><g><use xlink:href="#jz6EUFods" opacity="1" fill="#000000" fill-opacity="1"></use><g><use xlink:href="#jz6EUFods" opacity="1" fill-opacity="0" stroke="#000000" stroke-width="1" stroke-opacity="0"></use></g></g><g><use xlink:href="#a1yr384r8r" opacity="1" fill="#512e4e" fill-opacity="1"></use><g><use xlink:href="#a1yr384r8r" opacity="1" fill-opacity="0" stroke="#000000" stroke-width="1" stroke-opacity="0"></use></g></g><g><use xlink:href="#a7t0HgrYo" opacity="1" fill="#000000" fill-opacity="1"></use><g><use xlink:href="#a7t0HgrYo" opacity="1" fill-opacity="0" stroke="#000000" stroke-width="1" stroke-opacity="0"></use></g></g><g><use xlink:href="#ba7khq50hf" opacity="1" fill="#ffffff" fill-opacity="1"></use><g><use xlink:href="#ba7khq50hf" opacity="1" fill-opacity="0" stroke="#000000" stroke-width="1" stroke-opacity="0"></use></g></g><g><use xlink:href="#c1QpDiw0R" opacity="1" fill="#000000" fill-opacity="1"></use><g><use xlink:href="#c1QpDiw0R" opacity="1" fill-opacity="0" stroke="#000000" stroke-width="1" stroke-opacity="0"></use></g></g><g><use xlink:href="#b1L4lxIH7" opacity="1" fill="#ffffff" fill-opacity="1"></use><g><use xlink:href="#b1L4lxIH7" opacity="1" fill-opacity="0" stroke="#000000" stroke-width="1" stroke-opacity="0"></use></g></g><g><use xlink:href="#dzXTDvRg1" opacity="1" fill="#cf6f80" fill-opacity="1"></use><g><use xlink:href="#dzXTDvRg1" opacity="1" fill-opacity="0" stroke="#000000" stroke-width="1" stroke-opacity="0"></use></g></g><g><use xlink:href="#c6JSf87Zjq" opacity="1" fill="#000000" fill-opacity="1"></use><g><use xlink:href="#c6JSf87Zjq" opacity="1" fill-opacity="0" stroke="#000000" stroke-width="1" stroke-opacity="0"></use></g></g><g><use xlink:href="#f5s0S7aEfc" opacity="1" fill="#ffffff" fill-opacity="1"></use><g><use xlink:href="#f5s0S7aEfc" opacity="1" fill-opacity="0" stroke="#000000" stroke-width="1" stroke-opacity="0"></use></g></g><g><use xlink:href="#b1eGuWbv1J" opacity="1" fill="#000000" fill-opacity="1"></use><g><use xlink:href="#b1eGuWbv1J" opacity="1" fill-opacity="0" stroke="#000000" stroke-width="1" stroke-opacity="0"></use></g></g><g><use xlink:href="#bQ5m48TAr" opacity="1" fill="#000000" fill-opacity="1"></use><g><use xlink:href="#bQ5m48TAr" opacity="1" fill-opacity="0" stroke="#000000" stroke-width="1" stroke-opacity="0"></use></g></g><g><use xlink:href="#beGee1yrC" opacity="1" fill="#000000" fill-opacity="1"></use><g><use xlink:href="#beGee1yrC" opacity="1" fill-opacity="0" stroke="#000000" stroke-width="1" stroke-opacity="0"></use></g></g><g><use xlink:href="#a1Uy2sP6TN" opacity="1" fill="#000000" fill-opacity="1"></use><g><use xlink:href="#a1Uy2sP6TN" opacity="1" fill-opacity="0" stroke="#000000" stroke-width="1" stroke-opacity="0"></use></g></g><g><use xlink:href="#ekE5Mm59z" opacity="1" fill="#000000" fill-opacity="1"></use><g><use xlink:href="#ekE5Mm59z" opacity="1" fill-opacity="0" stroke="#000000" stroke-width="1" stroke-opacity="0"></use></g></g><g><use xlink:href="#bHR6RmsZU" opacity="1" fill="#000000" fill-opacity="0"></use><g><use xlink:href="#bHR6RmsZU" opacity="1" fill-opacity="0" stroke="#ffffff" stroke-width="1" stroke-opacity="1"></use></g></g><g><use xlink:href="#f41yocQLee" opacity="1" fill="#000000" fill-opacity="0"></use><g><use xlink:href="#f41yocQLee" opacity="1" fill-opacity="0" stroke="#ffffff" stroke-width="1" stroke-opacity="1"></use></g></g><g><use xlink:href="#c1LQEizCYF" opacity="1" fill="#0a7aa3" fill-opacity="1"></use><g><use xlink:href="#c1LQEizCYF" opacity="1" fill-opacity="0" stroke="#000000" stroke-width="1" stroke-opacity="0"></use></g></g><g><use xlink:href="#a1dHbDfeSJ" opacity="1" fill="#ffa7c4" fill-opacity="1"></use><g><use xlink:href="#a1dHbDfeSJ" opacity="1" fill-opacity="0" stroke="#ffa7c4" stroke-width="1" stroke-opacity="1"></use></g></g><g><use xlink:href="#biuefB5CV" opacity="1" fill="#0a7aa3" fill-opacity="1"></use><g><use xlink:href="#biuefB5CV" opacity="1" fill-opacity="0" stroke="#000000" stroke-width="1" stroke-opacity="0"></use></g></g><g><use xlink:href="#a2aykJ0q95" opacity="1" fill="#ffa7c4" fill-opacity="1"></use><g><use xlink:href="#a2aykJ0q95" opacity="1" fill-opacity="0" stroke="#ffa7c4" stroke-width="1" stroke-opacity="1"></use></g></g><g><use xlink:href="#b2SNDqE3nV" opacity="1" fill="#e6e6e6" fill-opacity="1"></use><g><use xlink:href="#b2SNDqE3nV" opacity="1" fill-opacity="0" stroke="#000000" stroke-width="1" stroke-opacity="0"></use></g></g><g><use xlink:href="#kguOuyzyK" opacity="1" fill="#000000" fill-opacity="0"></use><g><use xlink:href="#kguOuyzyK" opacity="1" fill-opacity="0" stroke="#000000" stroke-width="1" stroke-opacity="0"></use></g></g><g><use xlink:href="#huAyvGBKe" opacity="1" fill="#e6e6e6" fill-opacity="1"></use><g><use xlink:href="#huAyvGBKe" opacity="1" fill-opacity="0" stroke="#000000" stroke-width="1" stroke-opacity="0"></use></g></g><g><use xlink:href="#b23eFrVfxu" opacity="1" fill="#000000" fill-opacity="0"></use><g><use xlink:href="#b23eFrVfxu" opacity="1" fill-opacity="0" stroke="#000000" stroke-width="1" stroke-opacity="0"></use></g></g><g><use xlink:href="#j4o5OpGS1" opacity="1" fill="#e6e6e6" fill-opacity="1"></use><g><use xlink:href="#j4o5OpGS1" opacity="1" fill-opacity="0" stroke="#000000" stroke-width="1" stroke-opacity="0"></use></g></g><g><use xlink:href="#c4d3Mkjtfc" opacity="1" fill="#000000" fill-opacity="0"></use><g><use xlink:href="#c4d3Mkjtfc" opacity="1" fill-opacity="0" stroke="#000000" stroke-width="1" stroke-opacity="0"></use></g></g><g><use xlink:href="#cfqdut63m" opacity="1" fill="#0a7aa3" fill-opacity="1"></use><g><use xlink:href="#cfqdut63m" opacity="1" fill-opacity="0" stroke="#000000" stroke-width="1" stroke-opacity="0"></use></g></g><g><use xlink:href="#dZRWUhHpR" opacity="1" fill="#ffa7c4" fill-opacity="1"></use><g><use xlink:href="#dZRWUhHpR" opacity="1" fill-opacity="0" stroke="#ffa7c4" stroke-width="1" stroke-opacity="1"></use></g></g><g><use xlink:href="#ih0MxBYAf" opacity="1" fill="#0a7aa3" fill-opacity="1"></use><g><use xlink:href="#ih0MxBYAf" opacity="1" fill-opacity="0" stroke="#000000" stroke-width="1" stroke-opacity="0"></use></g></g><g><use xlink:href="#a1kdVdRat" opacity="1" fill="#ffa7c4" fill-opacity="1"></use><g><use xlink:href="#a1kdVdRat" opacity="1" fill-opacity="0" stroke="#ffa7c4" stroke-width="1" stroke-opacity="1"></use></g></g><g><use xlink:href="#c2AQZ7WFc8" opacity="1" fill="#0a7aa3" fill-opacity="1"></use><g><use xlink:href="#c2AQZ7WFc8" opacity="1" fill-opacity="0" stroke="#000000" stroke-width="1" stroke-opacity="0"></use></g></g><g><use xlink:href="#d35KZarBAi" opacity="1" fill="#ffa7c4" fill-opacity="1"></use><g><use xlink:href="#d35KZarBAi" opacity="1" fill-opacity="0" stroke="#ffa7c4" stroke-width="1" stroke-opacity="1"></use></g></g><g><use xlink:href="#abLIkXEIs" opacity="1" fill="#0a7aa3" fill-opacity="1"></use><g><use xlink:href="#abLIkXEIs" opacity="1" fill-opacity="0" stroke="#000000" stroke-width="1" stroke-opacity="0"></use></g></g><g><use xlink:href="#b7OtNSJgy" opacity="1" fill="#ffa7c4" fill-opacity="1"></use><g><use xlink:href="#b7OtNSJgy" opacity="1" fill-opacity="0" stroke="#ffa7c4" stroke-width="1" stroke-opacity="1"></use></g></g><g><use xlink:href="#bhY8DG3yd" opacity="1" fill="#0a7aa3" fill-opacity="1"></use><g><use xlink:href="#bhY8DG3yd" opacity="1" fill-opacity="0" stroke="#000000" stroke-width="1" stroke-opacity="0"></use></g></g><g><use xlink:href="#bsM4ucmj3" opacity="1" fill="#ffa7c4" fill-opacity="1"></use><g><use xlink:href="#bsM4ucmj3" opacity="1" fill-opacity="0" stroke="#ffa7c4" stroke-width="1" stroke-opacity="1"></use></g></g><g><use xlink:href="#abhcgDfdO" opacity="1" fill="#e6e6e6" fill-opacity="1"></use><g><use xlink:href="#abhcgDfdO" opacity="1" fill-opacity="0" stroke="#000000" stroke-width="1" stroke-opacity="0"></use></g></g><g><use xlink:href="#c2a4LLJCsy" opacity="1" fill="#000000" fill-opacity="0"></use><g><use xlink:href="#c2a4LLJCsy" opacity="1" fill-opacity="0" stroke="#000000" stroke-width="1" stroke-opacity="0"></use></g></g><g><use xlink:href="#b3qIXuuSD" opacity="1" fill="#e6e6e6" fill-opacity="1"></use><g><use xlink:href="#b3qIXuuSD" opacity="1" fill-opacity="0" stroke="#000000" stroke-width="1" stroke-opacity="0"></use></g></g><g><use xlink:href="#a4b7r0dsjG" opacity="1" fill="#000000" fill-opacity="0"></use><g><use xlink:href="#a4b7r0dsjG" opacity="1" fill-opacity="0" stroke="#000000" stroke-width="1" stroke-opacity="0"></use></g></g><g><use xlink:href="#fGAkRCvz9" opacity="1" fill="#e6e6e6" fill-opacity="1"></use><g><use xlink:href="#fGAkRCvz9" opacity="1" fill-opacity="0" stroke="#000000" stroke-width="1" stroke-opacity="0"></use></g></g><g><use xlink:href="#eCz5rMjkc" opacity="1" fill="#000000" fill-opacity="0"></use><g><use xlink:href="#eCz5rMjkc" opacity="1" fill-opacity="0" stroke="#000000" stroke-width="1" stroke-opacity="0"></use></g></g><g><use xlink:href="#b1lX6s5NdQ" opacity="1" fill="#0a7aa3" fill-opacity="1"></use><g><use xlink:href="#b1lX6s5NdQ" opacity="1" fill-opacity="0" stroke="#000000" stroke-width="1" stroke-opacity="0"></use></g></g><g><use xlink:href="#a2lejH2I8J" opacity="1" fill="#ffa7c4" fill-opacity="1"></use><g><use xlink:href="#a2lejH2I8J" opacity="1" fill-opacity="0" stroke="#ffa7c4" stroke-width="1" stroke-opacity="1"></use></g></g></g></g></svg>