<?xml version="1.0" encoding="UTF-8" standalone="no"?>
<!DOCTYPE svg PUBLIC "-//W3C//DTD SVG 1.1//EN" "http://www.w3.org/Graphics/SVG/1.1/DTD/svg11.dtd">
<svg version="1.1" xmlns="http://www.w3.org/2000/svg" xmlns:xlink="http://www.w3.org/1999/xlink" preserveAspectRatio="xMidYMid meet" viewBox="0 0 640 640" width="640" height="640"><defs><path d="M199.83 582.01C201.19 579.22 203.52 577.03 206.38 575.85C209.21 574.7 212.2 573.96 215.24 573.67C224.8 572.41 234.47 572.28 244.06 573.27C244.76 578.81 243.28 584.42 242.01 589.77C240.86 594.69 240.2 595.42 235.12 595.68C231.83 595.85 202.58 598.64 201.8 596.9C199.72 592.17 197.75 586.73 199.83 582.01Z" id="bht8CEsP2"></path><path d="M430.32 525.62C430.32 547.37 367.27 565.01 289.5 565.01C211.72 565.01 148.67 547.37 148.67 525.62C148.67 503.86 211.72 486.23 289.5 486.23C367.27 486.23 430.32 503.86 430.32 525.62Z" id="b3TNpo7kp"></path><path d="M430.32 525.62C430.32 547.37 367.27 565.01 289.5 565.01C211.72 565.01 148.67 547.37 148.67 525.62C148.67 503.86 211.72 486.23 289.5 486.23C367.27 486.23 430.32 503.86 430.32 525.62Z" id="aJ2LGWwk8"></path><path d="M292.16 338.19C286.4 340.29 280.35 341.44 274.22 341.6C267.54 341.91 260.71 341.47 254.43 339.19C246 336.13 239 329.89 233.75 322.61C228.5 315.34 224.89 307.02 221.74 298.64C220.09 294.28 218.51 289.63 219.29 285.02C224.36 283.87 229.92 282.18 232.54 277.68C234.77 273.82 234.15 269.19 232.86 264.78C232.5 263.53 232.07 262.29 231.65 261.09C230.67 258.24 227.27 252.81 229.68 250.37C231.19 248.82 237.5 248.04 239.68 247.03C246.38 243.94 252.57 239.47 259.93 238C266.31 236.73 272.88 237.92 279.25 239.24C280.09 239.36 280.9 239.65 281.63 240.1C282.46 240.8 283.07 241.72 283.4 242.76C285.21 247.17 286.28 252.04 287.73 256.64C289.25 261.46 291.2 265.98 294.85 269.4C297.7 272.06 301.32 273.74 304.87 275.36C305.74 275.76 312.72 278.96 313.6 279.36C315.15 279.94 316.55 280.85 317.72 282.03C318.86 283.6 319.54 285.45 319.69 287.39C321.25 297.75 319.53 308.34 314.75 317.67C309.92 327 301.9 334.28 292.16 338.19Z" id="a1WkYzGRtv"></path><path d="M232.87 264.78C232.51 263.53 232.08 262.29 231.66 261.09C230.68 258.24 227.28 252.81 229.69 250.37C231.2 248.82 237.51 248.04 239.69 247.03C246.39 243.94 252.58 239.47 259.94 238C266.32 236.73 272.89 237.92 279.26 239.24C280.1 239.36 280.91 239.65 281.64 240.1C282.47 240.8 283.08 241.72 283.41 242.76C285.17 247.17 286.24 252.04 287.7 256.64C273.4 271.52 250.87 274.86 232.87 264.78Z" id="a17f2C8v2M"></path><path d="M255.03 177.99C230.01 177.99 209.73 198.27 209.73 223.29C209.73 248.31 230.01 268.59 255.03 268.59C280.05 268.59 300.33 248.31 300.33 223.29C300.33 198.27 280.05 177.99 255.03 177.99Z" id="a2GTFECoV"></path><path d="M389.33 347.76C387.44 336.44 385.5 324.91 380.25 314.72C376.79 308.04 371.3 301.68 363.91 300.36C362.45 300.23 361.02 299.9 359.65 299.37C357.49 298.33 356.31 295.98 354.64 294.25C350.35 289.8 343.36 289.73 337.6 287.47C332.52 285.5 328.37 281.71 323.74 278.81C319.11 275.91 313.35 273.89 308.23 275.74C307.4 284.55 306.52 293.56 302.78 301.59C293.76 320.95 270.74 329.33 251.38 320.3C248.92 319.16 246.59 317.76 244.42 316.12C235.65 309.52 230.03 299.32 227.41 288.66C226.77 286.06 226.04 283.07 223.64 281.88C221.05 280.58 217.94 282.16 215.77 284.07C211.83 287.6 208.61 292.67 203.43 293.86C201.56 294.29 199.49 294.2 197.93 295.33C196.9 296.29 196.03 297.41 195.37 298.65C193.07 301.91 189.28 303.78 185.3 303.64C183.49 303.55 181.36 303.13 180.13 304.44C179.21 305.43 179.14 306.96 178.16 307.88C176.83 309.17 174.67 308.54 172.82 308.47C169.31 308.32 166.05 310.57 164.04 313.4C162.04 316.22 161.09 319.72 160.11 323.11C170.87 347.08 180.72 371.07 191.48 395.04C191.99 395.95 192.25 396.96 192.26 398C192.04 399.07 191.59 400.08 190.92 400.95C185.64 409.43 185.81 420.1 186.39 430.06C186.97 440.03 187.68 450.56 183.23 459.49C182.02 461.94 180.44 464.19 179.29 466.64C176.59 472.19 175.62 489.96 177.19 495.93C199.46 495.93 377.57 495.93 399.83 495.93C395.59 484.26 397.2 460.84 398.09 448.45C398.71 439.78 397.11 431.13 396.42 422.46C394.91 404.76 395.97 387.97 393.05 370.31C392.3 365.8 389.7 350.01 389.33 347.76Z" id="e9F31sp3C"></path><path d="M142.93 404.71C143.21 408.77 145.47 441.28 145.76 445.35C146.02 449.18 146.29 453 146.64 456.82C147.32 464.24 148.34 471.59 149.6 478.94C149.66 481.11 151.46 482.83 153.64 482.77C166.09 485.41 178.96 485.3 191.68 484.58C211.08 483.5 230.45 481.03 249.88 481.45C254.88 481.56 260.71 481.45 263.75 477.51C266.78 473.57 265.02 467.2 261.06 464.02C257.1 460.84 251.72 460.08 246.64 460.08C239.91 460.01 233.19 460.97 226.48 460.57C220.33 460.21 214.31 458.72 208.34 457.23C206.67 456.82 193.27 453.49 191.6 453.07C192.24 448 194.17 443.22 196 438.41C199.29 429.87 202.36 421.04 202.42 411.89C202.48 402.75 199.03 393.12 191.54 387.89C185.38 383.58 177.44 382.78 169.92 382.96C164.46 383.12 155.01 381.81 150.02 383.95C146.07 385.68 143.79 392.24 143.05 396.11C142.65 398.96 142.62 401.85 142.93 404.71Z" id="a1xKcNoMg"></path><path d="M414.85 488.71C426.17 490.25 437.65 491.84 448.14 496.36C453.06 498.47 457.75 501.28 461.08 505.43C464.03 509.16 465.76 513.73 467.39 518.23C467.77 519.27 470.79 527.56 471.17 528.59C472.61 532.53 474.07 536.55 474.47 540.73C475.65 553.13 467.17 564.82 456.51 571.26C445.84 577.7 433.29 580 421.06 582.4C408.82 584.8 396.54 587.46 384.36 590.28C378.68 591.75 372.92 592.89 367.1 593.68C354.06 595.15 340.43 592.98 328.04 597.29C323.12 599.01 318.28 601.58 313.17 602.77C309.78 603.48 306.34 604 302.89 604.33C300.55 604.6 281.79 606.74 279.44 607.01C274.67 607.65 269.87 608.02 265.06 608.11C254.82 608.11 244.75 605.69 234.8 603.27C233.74 603.08 232.74 602.68 231.85 602.08C230.27 600.84 229.93 598.64 229.7 596.65C228.19 583.45 227.33 572.85 227.06 570.21C226.83 567.34 226.65 564.24 228.21 561.83C230.18 558.87 234.02 557.95 237.53 557.38C252.4 554.95 267.46 553.9 282.52 554.26C288.24 548.53 297.67 548.5 305.17 545.39C307.92 544.13 310.59 542.68 313.15 541.05C326.56 533.23 341.54 528.5 357 527.19C360.03 527.1 363.04 526.67 365.98 525.91C371.78 524.11 377.07 519.21 383.02 520.41C383.76 518.37 384.27 515.64 385.98 514.24C386.82 513.53 387.87 513.04 388.65 512.27C390.29 510.61 390.44 507.99 390.19 505.67C389.95 503.34 389.39 500.96 390 498.69C390.25 497.84 390.61 497.02 391.09 496.26C394.04 491.16 398.5 488.54 404.44 489.03C407.72 487.78 411.34 488.24 414.85 488.71Z" id="e3T2sSOkMo"></path><path d="M414.85 488.71C426.17 490.25 437.65 491.84 448.14 496.36C453.06 498.47 457.75 501.28 461.08 505.43C464.03 509.16 465.76 513.73 467.39 518.23C467.77 519.27 470.79 527.56 471.17 528.59C472.61 532.53 474.07 536.55 474.47 540.73C475.65 553.13 467.17 564.82 456.51 571.26C445.84 577.7 433.29 580 421.06 582.4C408.82 584.8 396.54 587.46 384.36 590.28C378.68 591.75 372.92 592.89 367.1 593.68C354.06 595.15 340.43 592.98 328.04 597.29C323.12 599.01 318.28 601.58 313.17 602.77C309.78 603.48 306.34 604 302.89 604.33C300.55 604.6 281.79 606.74 279.44 607.01C274.67 607.65 269.87 608.02 265.06 608.11C254.82 608.11 244.75 605.69 234.8 603.27C233.74 603.08 232.74 602.68 231.85 602.08C230.27 600.84 229.93 598.64 229.7 596.65C228.19 583.45 227.33 572.85 227.06 570.21C226.83 567.34 226.65 564.24 228.21 561.83C230.18 558.87 234.02 557.95 237.53 557.38C252.4 554.95 267.46 553.9 282.52 554.26C288.24 548.53 297.67 548.5 305.17 545.39C307.92 544.13 310.59 542.68 313.15 541.05C326.56 533.23 341.54 528.5 357 527.19C360.03 527.1 363.04 526.67 365.98 525.91C371.78 524.11 377.07 519.21 383.02 520.41C383.76 518.37 384.27 515.64 385.98 514.24C386.82 513.53 387.87 513.04 388.65 512.27C390.29 510.61 390.44 507.99 390.19 505.67C389.95 503.34 389.39 500.96 390 498.69C390.25 497.84 390.61 497.02 391.09 496.26C394.04 491.16 398.5 488.54 404.44 489.03C407.72 487.78 411.34 488.24 414.85 488.71Z" id="exsz5umqg"></path><path d="M189.86 612.34C181.05 612.13 174.03 611.51 172.27 611.42C168.27 610.99 164.24 610.8 160.21 610.86C148.06 611.33 136.33 616.9 124.21 615.92C122.42 615.78 120.64 615.45 118.92 614.94C116.17 614.18 113.69 612.67 111.74 610.59C109.42 607.96 108.31 604.47 107.67 601.02C104.43 583.36 113.31 564.11 128.86 555.12C130.89 553.81 133.19 552.99 135.59 552.73C137.95 552.72 140.28 553.23 142.41 554.23C142.42 554.23 142.54 554.28 142.56 554.29C148.87 556.89 154.61 560.71 159.44 565.55C160.17 566.39 161.04 567.09 162.02 567.63C162.99 568 164.02 568.19 165.06 568.2C166.35 568.28 176.71 568.94 178 569.02C180.19 569.08 182.37 569.38 184.5 569.91C186.85 570.73 189.13 571.72 191.33 572.87C198.3 575.98 206.02 576.81 213.54 578.01C214.27 578.05 214.96 578.33 215.51 578.8C215.81 579.17 216.02 579.61 216.12 580.08C218.27 588.11 216.3 596.69 210.86 602.98C204.77 610.04 199.4 612.57 189.86 612.34Z" id="a16bbmbtdM"></path><path d="M142.56 554.3C137.54 559.09 133.18 564.53 129.61 570.49C123.87 580.31 120.27 591.22 119.03 602.53C118.56 606.65 118.52 610.82 118.92 614.95C116.17 614.19 113.69 612.68 111.74 610.6C109.42 607.97 108.31 604.48 107.67 601.03C104.43 583.37 113.31 564.12 128.86 555.13C130.89 553.82 133.19 553 135.59 552.74C137.95 552.73 140.28 553.24 142.41 554.24C142.44 554.25 142.53 554.28 142.56 554.3Z" id="b50wQfrtV"></path><path d="M413.86 583.11C418.93 587.72 419.6 595.32 419.93 602.17C419.97 602.96 420.28 609.32 420.32 610.11C420.44 612.54 420.53 615.04 419.56 617.28C417.83 621.22 413.07 623.12 408.73 622.9C404.38 622.67 400.39 620.77 396.43 619.06C385.65 614.41 374.43 610.88 362.94 608.51C363.5 600.27 364.63 593.74 364.81 592.1C365.41 588.33 365.51 582.02 368.03 578.89C370.7 575.58 374.18 577.37 377.8 577.98C382.89 578.76 388.04 579.03 393.18 578.8C400.41 578.6 408.54 578.24 413.86 583.11Z" id="anqy8yMfK"></path><path d="M200.21 497.89C199.12 489.92 192.8 483.35 185.43 480.16C178.07 476.97 169.68 476.8 161.7 477.56C149.64 478.7 136.1 483.32 131.68 494.6C130.64 497.24 130.17 500.09 128.89 502.62C127.47 505.4 125.16 507.62 123.62 510.31C120.97 514.98 120.86 520.7 121.82 525.98C124.39 540.07 134.02 552.11 145.69 560.45C157.36 568.79 171 573.77 184.6 578.27C220.56 590.13 257.45 598.94 294.89 604.61C300.96 605.52 307.09 606.37 312.9 608.32C318.1 610.06 322.96 612.67 328.04 614.72C339.86 619.47 352.57 621.16 365.17 622.83C367.32 623.1 369.78 623.3 371.36 621.84C373.41 619.94 372.73 616.63 372.15 613.9C370.01 603.53 371.81 592.74 377.18 583.61C379.29 580.07 382.03 576.43 381.63 572.33C381.16 567.54 376.4 564.15 371.65 563.39C366.9 562.62 362.08 563.75 357.31 564.37C355.67 564.59 353.87 564.72 352.44 563.89C351.73 563.41 351.08 562.84 350.52 562.19C343.79 555.7 333.63 554.28 325.37 558.68C323.61 559.66 320.94 557.47 319.11 556.64C317.04 555.7 300.47 548.2 298.4 547.26C274.61 536.5 250.7 525.69 225.53 518.87C223.52 518.48 221.61 517.68 219.91 516.54C218.66 515.55 217.77 514.21 216.61 513.12C214.1 510.75 210.61 509.8 207.59 508.12C204.58 506.43 201.2 502.32 201.89 498.94C201.89 499.93 200.34 498.94 200.21 497.89Z" id="d1HCad1wO"></path><path d="M504.55 639.17C502.82 639.57 501.06 639.82 499.29 639.92C490.57 640.46 481.97 638.05 473.56 635.67C472.42 635.35 463.3 632.78 462.16 632.46C460.2 631.84 458.19 631.39 456.15 631.12C453.38 630.93 450.6 631.03 447.84 631.4C434.36 632.66 420.78 632.05 407.47 629.59C406.35 629.47 405.28 629.09 404.34 628.48C403.52 627.67 402.79 626.78 402.17 625.81C399.07 622.08 395.73 619.9 399.4 614.98C401.52 612.12 405.45 610.69 407.09 607.42C408.74 604.14 407.68 599.48 406.71 596.09C405.38 591.41 401.01 589.39 399.44 585.1C398.27 581.86 400.24 578.1 403.2 576.34C406.17 574.57 409.83 574.43 413.25 574.89C416.66 575.34 420.01 576.31 423.45 576.57C433.55 577.38 443.88 572.17 453.58 575.1C455.72 575.75 457.74 576.79 459.91 577.36C464.13 578.3 468.54 577.92 472.54 576.27C473.96 575.73 475.35 575.09 476.73 574.46C479.38 573.08 482.22 572.06 485.15 571.42C494.61 569.8 503.38 576.34 510.52 582.74C512.97 584.77 515.14 587.12 516.97 589.73C518.94 592.8 519.99 596.38 520.91 599.9C523.52 609.01 525.68 619.27 521.17 627.64C517.86 633.78 511.44 637.6 504.55 639.17Z" id="cU5fLvl7"></path><path d="M504.55 639.17C507.23 633.96 508.44 628.12 508.04 622.28C507.45 612.91 503.33 604.09 498.09 596.31C494.86 591.52 491.18 587.04 487.12 582.94C483.98 579.79 480.13 577.29 476.77 574.4C479.42 573.02 482.26 572 485.19 571.36C494.65 569.74 503.42 576.29 510.56 582.68C513.01 584.71 515.18 587.06 517.01 589.67C518.98 592.74 520.03 596.32 520.95 599.84C523.52 609.01 525.68 619.27 521.17 627.64C517.86 633.78 511.44 637.6 504.55 639.17Z" id="b30N4DSxnH"></path><path d="M157.36 327.33C149.4 345.27 144.7 364.49 143.47 384.07C143.49 385.03 143.27 385.97 142.83 386.82C142.4 387.39 141.91 387.91 141.38 388.39C139.45 390.68 139.74 394.11 142.03 396.05C142.12 396.12 142.22 396.2 142.31 396.27C143.94 393.2 147.83 392.21 151.28 391.94C167.84 390.63 184.01 398.33 200.61 397.75C199.44 393.71 197.75 389.82 196.8 385.72C192.57 367.53 203.11 347.73 196.65 330.21C195.36 326.7 193.2 323.25 189.81 321.72C188.4 321.15 186.93 320.76 185.42 320.56C181.23 319.8 172.88 316.56 168.82 317.86C167.32 318.34 166.73 319.75 165.49 320.59C163.61 321.81 161.11 322.25 159.54 323.83C158.58 324.84 157.84 326.03 157.36 327.33Z" id="a4yDtWS2Gh"></path><path d="M406.22 359.68C411.46 359.68 414.07 362.3 414.07 367.53C414.07 442.02 414.07 483.4 414.07 491.67C414.07 496.91 411.46 499.52 406.22 499.52C283.88 499.52 215.91 499.52 202.31 499.52C197.08 499.52 194.46 496.91 194.46 491.67C194.46 417.19 194.46 375.81 194.46 367.53C194.46 362.3 197.08 359.68 202.31 359.68C324.66 359.68 392.63 359.68 406.22 359.68Z" id="c5wvKYnkYz"></path><path d="M303.78 423.69C300.51 423.69 297.87 426.34 297.87 429.6C297.87 432.86 300.51 435.51 303.78 435.51C307.04 435.51 309.69 432.86 309.69 429.6C309.69 426.34 307.04 423.69 303.78 423.69Z" id="j18wgVMCtn"></path><path d="M215.85 158.89C211.61 164.99 206.8 171.07 200.02 174.47C197.45 175.76 194.51 176.74 192.81 178.98C191.8 180.5 191.14 182.23 190.89 184.03C189.59 190.39 188.91 196.85 188.86 203.34C188.86 206.57 189 209.89 190.43 212.83C191.78 215.59 194.21 217.92 194.71 220.92C195.1 223.27 194.23 225.6 193.92 227.96C193.62 230.31 194.15 233.1 196.33 234.22C197.5 234.66 198.72 234.95 199.97 235.08C206.52 236.53 208.71 244.21 209.71 250.57C211.94 250.44 212.94 247.89 213.4 245.81C214.08 242.78 219.54 218.5 220.23 215.47C220.97 212.18 222.2 208.37 225.48 207.22C227.67 206.46 230.08 207.17 232.37 207.36C241.38 208.1 249 201.14 257.82 199.22C260.64 198.65 263.52 198.46 266.39 198.65C273.35 198.99 281.43 201.85 282.91 208.34C283.16 209.39 283.3 210.65 284.29 211.17C285.27 211.7 286.31 211.25 287.34 211.17C291.75 210.73 294.35 215.69 295.62 219.75C296.09 221.23 299.79 233.05 300.25 234.52C300.94 236.76 302.1 239.39 304.53 239.67C306.76 239.95 308.66 237.83 309 235.74C309.33 233.64 308.6 231.46 308.12 229.35C305.94 219.65 309.27 209.73 311.3 200.01C313.33 190.29 313.69 179.12 306.89 171.63C304.42 168.93 301.17 166.91 298.86 164.05C296.72 161.37 295.5 158.08 293.28 155.45C287.12 148.2 271.34 142.59 261.66 141.67C250.6 140.47 232.67 143.27 223.73 149.76C220.42 152.16 218.16 155.59 215.85 158.89Z" id="bKStNv1mS"></path><path d="M300.29 227.63C297.98 220.23 296.12 214.34 295.66 212.86C294.39 208.79 291.79 203.83 287.38 204.28C286.35 204.39 285.23 204.79 284.33 204.28C283.42 203.77 283.19 202.5 282.95 201.44C281.47 194.94 273.39 192.1 266.43 191.75C263.56 191.57 260.68 191.75 257.86 192.32C249.04 194.29 241.42 201.18 232.41 200.46C230.08 200.27 227.68 199.56 225.52 200.32C222.2 201.46 221.01 205.25 220.27 208.57C219.58 211.61 214.12 235.87 213.44 238.91C212.98 240.99 211.97 243.54 209.75 243.66C208.76 237.32 206.56 229.64 200.01 228.18C198.76 228.04 197.54 227.76 196.37 227.32C195.51 226.86 194.84 226.11 194.46 225.21C194.29 226.12 194.08 227.04 193.96 227.96C193.67 230.3 194.19 233.1 196.37 234.22C197.54 234.66 198.76 234.95 200.01 235.08C206.56 236.53 208.75 244.21 209.75 250.57C211.97 250.44 212.98 247.89 213.44 245.81C214.12 242.78 219.58 218.5 220.27 215.47C221.01 212.18 222.24 208.37 225.52 207.22C227.71 206.46 230.11 207.17 232.41 207.36C241.42 208.1 249.04 201.14 257.86 199.22C260.68 198.65 263.56 198.46 266.43 198.65C273.39 198.99 281.47 201.85 282.95 208.34C283.19 209.39 283.34 210.65 284.33 211.17C285.31 211.7 286.35 211.25 287.38 211.17C291.79 210.73 294.39 215.69 295.66 219.75C297.97 227.15 299.83 233.05 300.29 234.52C300.98 236.76 302.14 239.39 304.56 239.67C306.8 239.95 308.7 237.83 309.04 235.74C309.19 233.97 308.99 232.19 308.44 230.51C307.73 231.98 306.2 232.87 304.56 232.78C302.14 232.49 300.98 229.83 300.29 227.63Z" id="g2FIz6XNKn"></path><path d="M190.44 205.94C189.58 204.08 189.09 202.07 188.98 200.03C188.98 201.13 188.88 202.23 188.87 203.35C188.87 206.58 189.01 209.9 190.44 212.84C191.53 215.07 193.33 217.04 194.24 219.32C194.72 217.6 194.88 215.81 194.72 214.03C194.22 211.03 191.77 208.69 190.44 205.94Z" id="e1oOiSx3r3"></path><path d="M307.62 219.01C308.18 212.66 310.03 206.27 311.34 199.97C312.43 195.18 312.82 190.26 312.48 185.36C312.27 187.96 311.89 190.53 311.34 193.07C309.55 201.66 306.75 210.41 307.62 219.01Z" id="b20NKdhqTm"></path></defs><g><g><g><use xlink:href="#bht8CEsP2" opacity="1" fill="#fbbebe" fill-opacity="1"></use><g><use xlink:href="#bht8CEsP2" opacity="1" fill-opacity="0" stroke="#000000" stroke-width="1" stroke-opacity="0"></use></g></g><g><use xlink:href="#b3TNpo7kp" opacity="1" fill="#464353" fill-opacity="1"></use><g><use xlink:href="#b3TNpo7kp" opacity="1" fill-opacity="0" stroke="#000000" stroke-width="1" stroke-opacity="0"></use></g></g><g><use xlink:href="#aJ2LGWwk8" opacity="1" fill="#000000" fill-opacity="1"></use><g><use xlink:href="#aJ2LGWwk8" opacity="1" fill-opacity="0" stroke="#000000" stroke-width="1" stroke-opacity="0"></use></g></g><g><use xlink:href="#a1WkYzGRtv" opacity="1" fill="#fbbebe" fill-opacity="1"></use><g><use xlink:href="#a1WkYzGRtv" opacity="1" fill-opacity="0" stroke="#000000" stroke-width="1" stroke-opacity="0"></use></g></g><g><use xlink:href="#a17f2C8v2M" opacity="1" fill="#000000" fill-opacity="1"></use><g><use xlink:href="#a17f2C8v2M" opacity="1" fill-opacity="0" stroke="#000000" stroke-width="1" stroke-opacity="0"></use></g></g><g><use xlink:href="#a2GTFECoV" opacity="1" fill="#fbbebe" fill-opacity="1"></use><g><use xlink:href="#a2GTFECoV" opacity="1" fill-opacity="0" stroke="#000000" stroke-width="1" stroke-opacity="0"></use></g></g><g><use xlink:href="#e9F31sp3C" opacity="1" fill="#ffa7c4" fill-opacity="1"></use><g><use xlink:href="#e9F31sp3C" opacity="1" fill-opacity="0" stroke="#000000" stroke-width="1" stroke-opacity="0"></use></g></g><g><use xlink:href="#a1xKcNoMg" opacity="1" fill="#fbbebe" fill-opacity="1"></use><g><use xlink:href="#a1xKcNoMg" opacity="1" fill-opacity="0" stroke="#000000" stroke-width="1" stroke-opacity="0"></use></g></g><g><use xlink:href="#e3T2sSOkMo" opacity="1" fill="#464353" fill-opacity="1"></use><g><use xlink:href="#e3T2sSOkMo" opacity="1" fill-opacity="0" stroke="#000000" stroke-width="1" stroke-opacity="0"></use></g></g><g><use xlink:href="#exsz5umqg" opacity="1" fill="#000000" fill-opacity="1"></use><g><use xlink:href="#exsz5umqg" opacity="1" fill-opacity="0" stroke="#000000" stroke-width="1" stroke-opacity="0"></use></g></g><g><use xlink:href="#a16bbmbtdM" opacity="1" fill="#3f3d56" fill-opacity="1"></use><g><use xlink:href="#a16bbmbtdM" opacity="1" fill-opacity="0" stroke="#000000" stroke-width="1" stroke-opacity="0"></use></g></g><g><use xlink:href="#b50wQfrtV" opacity="1" fill="#000000" fill-opacity="1"></use><g><use xlink:href="#b50wQfrtV" opacity="1" fill-opacity="0" stroke="#000000" stroke-width="1" stroke-opacity="0"></use></g></g><g><use xlink:href="#anqy8yMfK" opacity="1" fill="#fbbebe" fill-opacity="1"></use><g><use xlink:href="#anqy8yMfK" opacity="1" fill-opacity="0" stroke="#000000" stroke-width="1" stroke-opacity="0"></use></g></g><g><use xlink:href="#d1HCad1wO" opacity="1" fill="#464353" fill-opacity="1"></use><g><use xlink:href="#d1HCad1wO" opacity="1" fill-opacity="0" stroke="#000000" stroke-width="1" stroke-opacity="0"></use></g></g><g><use xlink:href="#cU5fLvl7" opacity="1" fill="#3f3d56" fill-opacity="1"></use><g><use xlink:href="#cU5fLvl7" opacity="1" fill-opacity="0" stroke="#000000" stroke-width="1" stroke-opacity="0"></use></g></g><g><use xlink:href="#b30N4DSxnH" opacity="1" fill="#000000" fill-opacity="1"></use><g><use xlink:href="#b30N4DSxnH" opacity="1" fill-opacity="0" stroke="#000000" stroke-width="1" stroke-opacity="0"></use></g></g><g><use xlink:href="#a4yDtWS2Gh" opacity="1" fill="#ffa7c4" fill-opacity="1"></use><g><use xlink:href="#a4yDtWS2Gh" opacity="1" fill-opacity="0" stroke="#000000" stroke-width="1" stroke-opacity="0"></use></g></g><g><use xlink:href="#c5wvKYnkYz" opacity="1" fill="#3f3d56" fill-opacity="1"></use><g><use xlink:href="#c5wvKYnkYz" opacity="1" fill-opacity="0" stroke="#000000" stroke-width="1" stroke-opacity="0"></use></g></g><g><use xlink:href="#j18wgVMCtn" opacity="1" fill="#ffffff" fill-opacity="1"></use><g><use xlink:href="#j18wgVMCtn" opacity="1" fill-opacity="0" stroke="#000000" stroke-width="1" stroke-opacity="0"></use></g></g><g><use xlink:href="#bKStNv1mS" opacity="1" fill="#3f3d56" fill-opacity="1"></use><g><use xlink:href="#bKStNv1mS" opacity="1" fill-opacity="0" stroke="#000000" stroke-width="1" stroke-opacity="0"></use></g></g><g><use xlink:href="#g2FIz6XNKn" opacity="1" fill="#000000" fill-opacity="1"></use><g><use xlink:href="#g2FIz6XNKn" opacity="1" fill-opacity="0" stroke="#000000" stroke-width="1" stroke-opacity="0"></use></g></g><g><use xlink:href="#e1oOiSx3r3" opacity="1" fill="#000000" fill-opacity="1"></use><g><use xlink:href="#e1oOiSx3r3" opacity="1" fill-opacity="0" stroke="#000000" stroke-width="1" stroke-opacity="0"></use></g></g><g><use xlink:href="#b20NKdhqTm" opacity="1" fill="#000000" fill-opacity="1"></use><g><use xlink:href="#b20NKdhqTm" opacity="1" fill-opacity="0" stroke="#000000" stroke-width="1" stroke-opacity="0"></use></g></g></g></g></svg>